<svg width="96" height="96" viewBox="0 0 96 96" fill="none" xmlns="http://www.w3.org/2000/svg">
<rect width="96" height="96" fill="#FFE7CB"/>
<ellipse cx="48" cy="70.5" rx="40" ry="17.5" fill="#F0CFA8"/>
<path d="M67.8941 50.4272C67.8941 65.8946 57.688 74.5256 45.0983 74.5256C32.5085 74.5256 22.3025 65.8946 22.3025 50.4272C22.3025 34.9597 32.5085 18.5131 45.0983 18.5131C57.688 18.5131 67.8941 34.9597 67.8941 50.4272Z" fill="#BBC69C"/>
<mask id="mask0" mask-type="alpha" maskUnits="userSpaceOnUse" x="22" y="18" width="46" height="57">
<path d="M67.8941 50.4272C67.8941 65.8946 57.688 74.5256 45.0983 74.5256C32.5085 74.5256 22.3025 65.8946 22.3025 50.4272C22.3025 34.9597 32.5085 18.5131 45.0983 18.5131C57.688 18.5131 67.8941 34.9597 67.8941 50.4272Z" fill="#BBC69C"/>
</mask>
<g mask="url(#mask0)">
<path d="M30.1181 19.1644C31.4207 19.8157 35.9799 19.1644 37.9338 19.8157C39.0014 20.1715 39.8745 20.1385 41.1905 20.0354M37.9338 21.7696C34.026 21.7696 32.7234 20.467 31.4207 21.7696C30.1181 23.0722 28.8155 24.3748 30.1181 24.3748C31.4207 24.3748 34.0262 25.0262 35.98 24.3748C37.5431 23.8538 37.9338 22.4209 37.9338 21.7696ZM37.9338 21.7696C38.6477 21.7696 39.2964 21.8131 39.8878 21.8841M41.1905 20.0354C42.2832 19.9497 43.6813 19.8157 45.7495 19.8157C50.3087 19.8157 55.5192 19.8157 57.4731 19.8157C59.427 19.8157 60.0783 21.1183 56.1705 21.1183C52.2626 21.1183 54.2165 19.8157 50.3087 21.1183C49.8158 21.2826 49.3851 21.4365 49.0061 21.5801M41.1905 20.0354C42.4931 21.1183 48.355 25.6775 52.914 24.3748C53.3618 24.2469 53.797 24.1252 54.2166 24.0111M64.6373 31.5392C65.2886 29.5853 50.3087 32.8419 54.8677 32.1905C59.3813 31.5457 52.914 32.1905 50.3087 31.5392C49.0995 31.237 48.5919 31.2153 47.2882 31.5392M46.401 32.1905C41.9566 30.8879 39.236 32.1905 37.2824 32.8419C35.3287 33.4932 37.2824 32.8419 32.7232 34.1445C30.1956 34.8666 25.8663 35.789 22.9539 36.4676M57.4731 34.3073C55.1935 34.7958 52.9139 35.4471 51.6114 35.4471C49.0065 35.4471 49.0059 34.7958 41.8418 35.4471C37.8857 36.0122 38.343 36.087 35.98 36.5224M57.4731 34.3073C59.7526 33.8188 62.0321 33.4932 63.3347 34.1445C65.9399 35.4471 71.1504 37.401 65.9399 37.401C60.7295 37.401 63.3347 35.7727 57.4731 34.3073ZM48.3549 34.1445C47.052 36.7497 43.796 37.401 41.1905 37.401C38.585 37.401 37.9337 32.7609 38.585 34.3073C39.2363 35.8537 42.4928 38.0523 38.585 38.7036C34.6771 39.3549 36.6311 38.0523 32.0719 38.7036C29.4938 39.0719 26.0826 39.232 23.6049 39.4193M23.6049 39.4193C21.701 39.5632 20.3484 39.7232 20.3484 40.0062C20.3484 40.6576 22.3023 43.2628 22.3023 42.6115C22.3023 41.9602 21.651 39.5549 23.6049 39.4193ZM26.8617 40.0062C30.1181 41.3089 30.118 41.3089 32.0719 41.3089C34.0258 41.3089 32.7238 40.0062 35.98 40.0062C39.2363 40.0062 42.4927 41.3089 43.7955 41.3089C45.0982 41.3089 41.1903 40.0062 50.3087 40.0062C57.9606 40.0062 63.3193 40.9235 61.381 41.2186M61.381 41.2186C61.0095 41.2752 60.37 41.3089 59.4271 41.3089C53.5651 41.3089 50.3083 37.401 54.8677 37.401C59.4271 37.401 60.7295 37.401 63.3347 38.0523C65.4189 38.5734 69.4136 39.1807 71.1504 39.4193C72.6701 40.0491 74.7977 41.4391 71.1504 41.9602C66.5912 42.6115 63.9859 42.6115 60.0782 42.6115C56.1705 42.6115 58.7761 42.6115 52.914 42.6115C47.052 42.6115 57.4728 41.3089 43.7955 42.6115C43.1301 42.6983 42.4789 42.7786 41.8418 42.8531M61.381 41.2186C63.3349 36.5692 60.7297 43.2628 62.0323 45.868C63.3349 48.4733 66.5915 46.5193 69.848 44.5654C73.1046 42.6115 63.3347 43.9141 57.4731 44.5654C51.6115 45.2167 55.5192 44.5654 54.2166 44.5654C52.914 44.5654 45.0982 45.2167 41.8418 45.868C38.5854 46.5193 39.8878 45.868 35.98 45.2167C33.6835 44.834 32.9614 44.351 31.5668 43.6801M56.1705 46.5193C52.2627 47.1706 41.8416 41.9602 45.7495 43.9141C49.6575 45.868 52.9143 47.1706 48.3549 47.8219C43.7955 48.4733 44.4472 47.8219 41.1905 47.8219C37.9338 47.8219 29.4668 45.2167 28.1643 46.5193C27.2265 47.4572 23.25 49.7455 24.2565 50.2243M28.1643 49.7759C29.4669 50.4272 17.0923 51.7298 18.3947 53.6837C19.697 55.6376 20.3481 58.2429 22.3023 56.289C24.2565 54.335 27.513 51.7298 28.1643 49.7759ZM28.1643 49.7759C25.7932 50.323 24.648 50.4105 24.2565 50.2243M30.1181 47.1706C31.4207 47.8219 32.886 48.7989 33.8629 49.7759M33.8629 49.7759C34.8399 50.7528 35.3283 51.7298 34.6771 52.3811C33.3747 53.6837 33.0487 49.7759 33.8629 49.7759ZM43.1444 49.7759C45.7495 49.7759 47.0522 49.7759 49.0061 50.4272C50.6025 50.9593 53.9376 50.6219 56.1705 50.4806M35.3287 61.4994C39.2367 59.5455 37.2824 59.5455 30.1181 59.5455C27.4329 59.5455 26.2104 64.1047 22.9539 64.1047C19.6974 64.1047 24.9077 58.8942 26.2104 58.2429C27.513 57.5916 25.559 55.6376 26.8617 53.0324C28.1644 50.4272 30.1181 54.335 30.1181 54.9863C30.1181 55.6376 32.7232 55.6376 43.1444 56.289C43.3712 56.3031 43.5881 56.3148 43.7955 56.3242M45.0982 57.5916C48.3549 58.2429 50.9602 58.2429 51.6114 58.8942C52.2627 59.5455 56.1706 60.1968 52.914 60.8481C49.6575 61.4994 49.6576 58.2429 46.401 58.8942C43.1444 59.5455 39.2366 60.8481 41.1905 61.4994C43.1444 62.1507 49.6575 57.5916 55.5192 57.5916C61.381 57.5916 67.8941 55.6376 69.848 57.5916C71.5361 59.2797 70.7932 60.4816 65.9399 61.1974M35.3287 62.4488C40.0037 62.5959 45.8766 64.1047 48.3549 64.1047C51.6116 64.1047 56.1705 62.1507 63.3347 61.4994C64.3094 61.4108 65.1756 61.3101 65.9399 61.1974M35.3287 62.4488C33.8605 62.4026 32.5104 62.4907 31.4207 62.802C26.8617 64.1047 21.0002 64.1047 24.2565 66.7099C27.5127 69.3151 29.4667 74.5256 32.0719 68.6638C34.6771 62.802 35.3287 64.7008 35.3287 62.4488ZM37.2824 58.2429C41.8418 62.4488 41.1907 66.7099 42.4931 66.7099C43.7955 66.7099 37.9342 66.7099 46.401 67.3612C54.8677 68.0125 60.7295 69.3151 65.9399 66.7099C71.1504 64.1047 65.9399 59.5928 65.9399 61.1974M60.7297 60.1968C58.4375 61.9932 61.1871 62.1411 58.7758 64.3687M19.697 48.2441C18.9588 48.0978 18.0982 47.9477 17.0918 47.8219C11.8813 47.1706 18.3944 45.868 19.697 44.5654C20.5817 43.6808 24.4703 43.9977 31.5668 43.6801M19.697 48.2441C22.7813 48.855 23.731 49.3985 24.2565 47.8219C24.6032 46.7817 23.6578 44.7161 23.5823 43.2628M19.697 48.2441C20.5655 51.7941 22.1721 58.8942 21.6512 58.8942C21.0001 58.8942 28.8156 64.1047 30.1181 65.4073C31.4207 66.7099 35.3287 68.6638 42.4931 69.3151C49.6574 69.9664 46.401 68.6638 49.0061 68.6638C51.6113 68.6638 52.914 68.6638 57.4731 65.4073C58.0209 65.016 58.4465 64.6729 58.7758 64.3687M24.2565 50.2243C23.6049 51.1655 24.9077 54.335 25.559 56.289C26.2104 58.2429 26.2104 58.8942 28.8156 60.8481C31.4207 62.802 34.6777 66.7099 35.98 69.3151C37.2824 71.9204 45.7498 86.9004 39.2365 71.9204C32.7232 56.9403 34.0263 56.9403 30.7695 53.0324C27.5127 49.1246 26.8163 47.1063 23.5823 43.2628M23.5823 43.2628C23.516 41.9863 24.1208 41.1821 26.8617 41.9602C29.2786 42.6462 30.5882 43.2094 31.5668 43.6801M19.046 38.7036C19.046 41.2186 21 36.1855 22.9539 36.4676M22.9539 36.4676C20.6129 37.013 19.1873 37.401 20.3484 37.401C22.9539 37.401 26.2101 38.7036 27.5127 37.401C28.8154 36.0984 27.5131 32.8419 30.1181 34.1445C32.7232 35.4471 30.7693 37.401 34.6771 36.7497C35.1941 36.6635 35.6198 36.5888 35.98 36.5224M28.1643 40.0062C28.953 42.6115 20.3485 21.1183 30.7695 45.2167C43.7955 71.9204 50.3086 88.8544 45.7495 72.5717C41.1905 56.289 42.493 60.1968 39.2365 54.335C35.98 48.4733 38.5848 51.7298 34.6771 45.868C30.7695 40.0062 29.4669 39.6106 29.4669 36.7497C29.4669 33.8888 26.2107 27.6314 26.8617 25.6775C27.5127 23.7235 26.2104 20.8334 28.8156 23.7235C31.4207 26.6137 33.0487 24.8056 33.8629 29.1999M33.8629 29.1999C31.7382 29.5102 30.6464 29.1428 26.8617 26.9801C28.1643 26.9801 37.9338 26.3288 37.9338 24.3748C37.9338 22.4209 41.8418 25.0262 47.7036 25.0262C48.6051 25.0262 49.4759 25.0262 50.3087 25.0214M33.8629 29.1999C34.2977 29.1365 34.7756 29.0446 35.3287 28.934C38.5853 28.2827 36.6313 26.3288 41.8418 27.6314C47.0523 28.934 50.3088 30.2366 51.6114 29.5853C52.3059 29.2381 53.5559 28.7057 54.8677 28.2842M35.98 36.5224C40.5391 41.3089 40.5392 31.5094 41.8418 42.8531M41.8418 42.8531C37.876 43.3165 34.4556 43.5509 31.5668 43.6801M43.7955 56.3242C53.115 56.744 43.0593 52.3811 39.2365 52.3811C35.3287 52.3811 35.98 53.6837 50.3087 54.9863C64.6374 56.289 56.8218 54.9863 58.7758 53.6837C60.7297 52.3811 63.9862 49.7759 66.5915 47.8219C69.1967 45.868 70.4993 50.4272 69.848 52.3811C69.1967 54.335 63.3347 53.6837 58.1245 53.0324C52.9143 52.3811 58.1245 49.7759 60.7297 48.4733C63.3349 47.1706 59.4271 50.4272 57.4731 50.4272C57.1155 50.4272 56.6706 50.449 56.1705 50.4806M43.7955 56.3242C46.401 66.7099 45.0985 67.3612 47.7036 69.9664C50.3087 72.5717 50.9604 76.4795 52.914 74.5256C54.8677 72.5717 54.9567 67.4957 47.7036 52.3811C40.4504 37.2665 39.2368 37.401 35.98 29.5853C32.7232 21.7696 29.792 18.5131 33.8629 19.1644C37.5349 19.7519 35.2453 6.74829 38.585 17.4928M39.8878 21.8841C42.5338 22.2021 44.0336 23.0722 45.0982 23.0722C46.2366 23.0722 46.3801 22.5748 49.0061 21.5801M39.8878 21.8841C39.3772 20.1081 38.9479 18.6603 38.585 17.4928M47.0522 43.2628C49.5439 47.3364 50.6738 50.6535 51.6114 53.7811M56.1705 50.4806C56.6704 51.9942 57.3836 54.0944 58.1245 56.3818M47.2882 31.5392C45.7829 31.9133 43.2161 32.7483 37.2824 34.1445C33.3742 35.4471 34.0258 32.8419 32.0719 30.2366C30.118 27.6314 28.1641 33.4932 27.5127 34.1445C26.8614 34.7958 26.2104 34.7958 24.2565 35.4471C22.3026 36.0984 22.3026 32.8419 22.9539 30.8879C23.6052 28.934 24.2565 30.8879 30.1181 31.5392C33.3161 31.8946 36.3204 31.6683 39.2365 31.2835M47.2882 31.5392C45.845 28.043 44.5094 25.2336 43.3265 23.0722M38.585 17.4928C39.4339 17.2524 41.1129 19.0276 43.3265 23.0722M39.8878 25.6775C43.7955 29.5853 45.0981 31.5392 45.7495 32.8419C46.401 34.1445 45.0983 29.2456 47.0522 37.401C49.0061 45.5564 50.3088 51.2731 51.6114 53.7811M51.6114 53.7811C52.3895 56.3763 53.0352 58.8411 54.2166 61.4994C56.8218 67.3612 58.1247 71.2691 60.7297 71.2691C62.6681 71.2691 60.2791 63.0336 58.1245 56.3818M56.1705 60.8481C57.4731 63.4534 58.1244 62.0276 58.7758 64.3687M69.848 69.3151C70.5163 59.5455 63.3349 56.9403 60.7297 51.0785C58.1245 45.2167 56.8213 36.7528 54.8677 28.2842M54.8677 28.2842C56.0163 27.9153 57.2124 27.6314 58.1245 27.6314C60.0784 27.6314 62.0324 26.3288 62.6837 27.6314C63.335 28.934 63.335 30.8879 58.1245 30.8879C52.914 30.8879 49.0062 27.6314 48.3549 27.6314C47.7036 27.6314 51.6114 29.5853 46.401 30.2366C44.0332 30.5326 41.6654 30.963 39.2365 31.2835M46.401 13.3026C60.0782 15.9079 60.0785 13.9539 57.4731 16.5592C54.8677 19.1644 52.2628 18.2934 48.3549 19.1644C44.447 20.0354 36.3443 12.6513 43.3265 23.0722M61.381 34.3073C62.0323 32.1905 69.8482 15.9078 66.5915 30.2366C64.4686 39.5768 66.497 49.067 68.1667 54.9863M54.2166 24.0111C58.0688 22.9631 60.6018 22.5489 59.4271 23.7235C58.3249 24.8258 54.8907 24.9953 50.3087 25.0214M54.2166 24.0111C57.4732 29.2559 58.7758 32.8419 63.9862 44.5654C69.1967 56.289 66.5915 58.8278 73.1046 70.6178C79.6176 82.4077 69.848 62.4488 69.848 60.8481C69.848 60.2908 69.0585 58.1479 68.1667 54.9863M50.3087 25.0214C56.1705 36.4676 62.0541 49.7759 62.6837 52.3811C63.1873 54.4653 65.4987 59.3284 66.5915 61.4994C70.2469 58.8942 75.6795 53.9442 68.1667 54.9863M58.1245 56.3818C49.3319 58.2429 44.4469 56.9403 43.1444 51.0785C41.8418 45.2167 41.9975 39.3549 44.447 38.0523C46.8965 36.7497 49.0062 35.4471 49.6575 33.4932C50.3087 31.5392 56.8218 13.5748 49.0061 21.5801M39.2365 31.2835C32.7945 41.2186 37.5745 38.2357 31.5668 43.6801M26.2104 42.8531C37.9338 32.1905 21.6514 31.3195 43.1444 25.6775" stroke="#CBD6AE" stroke-width="0.2"/>
<path d="M20.3486 60.1968C20.9999 58.8942 31.4209 49.7759 32.0722 50.4272C32.7235 51.0785 34.0261 49.7759 37.2826 50.4272C40.5392 51.0785 40.5392 51.7299 44.447 50.4272C48.3549 49.1245 50.9601 46.5193 54.2167 47.8219C57.4732 49.1245 57.4732 50.4272 62.0324 50.4272C62.9117 50.4272 63.791 50.4514 64.6376 50.4952M37.934 53.0323C39.8879 49.7758 38.5853 50.7218 37.934 47.8219C37.2826 44.9219 35.3287 47.8219 34.0261 46.5193C32.7235 45.2166 28.8156 44.5654 26.8617 41.9601C24.9078 39.3548 23.6052 40.0062 21.6512 36.0983C19.6973 32.1905 26.8617 39.3549 28.8156 41.9601C30.3788 44.0443 30.7696 49.3416 30.7696 51.7298C30.9867 52.3811 31.2906 54.2047 30.7696 56.2889C30.1183 58.8941 30.1183 58.8941 28.8156 60.848C27.513 62.802 28.1643 65.6386 31.4209 69.9664C34.6774 74.2941 35.3287 71.9203 37.934 73.2229C40.5392 74.5255 41.8418 72.5716 43.1444 70.6177C44.447 68.6637 43.1444 66.7098 41.1905 66.7098C39.2366 66.7098 36.6313 65.4072 34.0261 65.4072C31.4209 65.4072 29.4669 66.0585 26.8617 65.4072C24.2565 64.7559 24.2565 65.4072 24.2565 66.7098C24.2565 68.0124 32.0722 68.6637 37.2826 69.3151C42.4931 69.9664 44.447 69.3151 48.3549 69.3151C52.2627 69.3151 48.3549 68.0124 48.3549 64.7559C48.3549 61.4994 48.3549 60.1968 48.3549 54.9863C48.3549 49.7759 49.0062 53.0323 50.3088 50.4272C51.6114 47.822 53.5654 46.5193 53.5654 45.868C53.5654 45.2166 54.2167 42.6114 54.2167 41.9601C54.2167 41.3088 52.914 36.0983 51.6114 32.8418C50.3088 29.5852 51.6114 29.5852 50.3088 26.3287C49.0062 23.0722 50.3088 23.0722 47.7036 20.467C45.0983 17.8618 45.7497 20.467 46.401 21.7696C47.0523 23.0722 47.7036 28.2827 48.3549 31.5392C49.0062 34.7958 49.6575 35.4471 50.3088 38.7036C50.9601 41.9602 50.9601 42.6115 51.6114 44.5654C52.2627 46.5193 51.6114 47.8219 53.5654 51.7298C55.5193 55.6377 55.5193 56.2889 58.7758 60.1968C62.0324 64.1047 62.6837 60.1968 62.0324 58.2429C61.3811 56.2889 62.0324 56.2889 61.3811 54.9863C60.7297 53.6837 71.1507 52.3811 71.1507 51.7298C71.1507 51.2041 68.1806 50.6784 64.6376 50.4952M37.934 53.0323C35.98 56.2889 30.7696 55.6376 28.8156 56.2889C26.8617 56.9402 25.5591 55.6377 24.2565 58.2429C22.9539 60.848 17.7434 62.802 24.2565 62.1507C30.7696 61.4994 34.6774 60.848 35.98 59.5454C37.2826 58.2429 36.912 55.2488 37.934 53.0323ZM39.2366 47.1706C38.5853 44.5654 42.4931 49.7759 37.2826 38.7036C32.0722 27.6313 28.8156 25.6774 29.4669 24.3748C30.1183 23.0722 26.8617 19.1643 32.0722 21.1182C37.2826 23.0722 37.2826 24.3748 39.2366 27.6313C41.1905 30.8879 41.1905 32.1904 43.1444 35.447C45.0983 38.7036 45.0983 40.0062 46.401 41.3088C47.7036 42.6114 50.3088 45.2166 52.2627 45.868C54.2167 46.5193 61.3811 48.4731 64.6376 46.5193C67.8941 44.5654 78.3151 48.4732 72.4533 41.3088C66.5915 34.1444 67.2428 34.7957 64.6376 34.7957C62.0324 34.7957 57.4732 32.1905 56.8219 33.4931C56.1706 34.7957 52.2627 36.7496 50.3088 37.4009C48.3549 38.0523 45.0983 37.4009 41.1905 35.447C37.2826 33.4931 35.98 29.5852 35.3287 26.98C34.6774 24.3748 34.6774 20.467 35.98 20.467C37.2826 20.467 37.934 20.4669 43.1444 22.4209C48.3549 24.3748 45.7497 21.1182 52.2627 24.3748C58.7758 27.6313 62.0324 26.3287 63.335 28.9339C64.6376 31.5392 68.5454 39.3548 63.335 41.9601C58.1245 44.5654 60.0784 41.5209 56.8219 44.5654C53.5654 47.6099 50.9601 47.822 50.3088 51.7298C49.6575 55.6376 50.3088 56.9402 50.9601 60.848C51.6114 64.7559 49.0062 65.4072 51.6114 67.3611C54.2167 69.3151 56.1706 69.3151 59.4271 68.0124C62.6837 66.7098 64.6376 70.6177 64.6376 63.4533C64.6376 56.2889 64.3088 60.3329 64.6376 50.4952" stroke="#CBD6AE" stroke-width="0.2"/>
</g>
<path opacity="0.2" fill-rule="evenodd" clip-rule="evenodd" d="M62.522 66.8546C58.5371 70.1775 53.361 71.9204 47.7035 71.9204C35.1138 71.9204 24.9077 63.2894 24.9077 47.822C24.9077 38.7537 28.4158 29.3489 33.8556 23.1191C26.9564 29.0911 22.3025 39.9824 22.3025 50.4272C22.3025 65.8946 32.5085 74.5256 45.0983 74.5256C52.0866 74.5256 58.3404 71.8663 62.522 66.8546Z" fill="#5A7510"/>
<path d="M61.3811 18.5131C63.0296 17.8196 63.4082 17.0743 63.335 15.2565C54.2167 15.9078 42.4931 14.6052 35.9801 12C34.1001 12.3682 33.4855 13.0426 32.7235 14.6052C36.9776 15.9365 39.3564 16.7141 43.7958 17.2105V20.467C45.0679 20.9946 46.401 21.1183 47.0523 20.467V17.8618C52.2628 18.5131 55.5193 18.5131 61.3811 18.5131Z" fill="#8AAC64"/>
<path opacity="0.3" fill-rule="evenodd" clip-rule="evenodd" d="M60.667 18.513C61.1071 18.4235 61.5533 18.3241 62.0046 18.214C62.1718 18.1207 62.3202 18.0243 62.4514 17.9225C50.7211 18.6354 39.2552 15.6151 33.3951 13.44C33.1599 13.7612 32.9481 14.1446 32.7235 14.6052C32.8732 14.652 33.0206 14.6982 33.1659 14.7437C37.1476 15.9908 39.5127 16.7315 43.7958 17.2104V20.467C45.0679 20.9946 46.401 21.1183 47.0523 20.467V17.8617C52.0473 18.4861 55.2466 18.5119 60.667 18.513Z" fill="#5A7240"/>
<path d="M80.8095 65.4073C70.8421 66.0845 38.8573 68.2577 32.7235 68.6746C38.5843 78.0684 43.9394 82.9725 56.0964 83.1007C67.9453 83.2257 79.0932 78.5801 80.8095 65.4073Z" fill="#BBC69C"/>
<mask id="mask1" mask-type="alpha" maskUnits="userSpaceOnUse" x="32" y="65" width="50" height="20">
<path d="M80.8095 65.4075C70.8421 66.0847 38.8573 68.2579 32.7235 68.6748C38.5843 78.0686 43.9394 82.9727 56.0964 83.1009C67.9453 83.2259 79.0932 78.5803 80.8095 65.4075Z" fill="#BBC69C"/>
</mask>
<g mask="url(#mask1)">
<path d="M87.4335 66.721C82.0059 70.846 70.4995 79.617 67.8943 81.7011C64.6377 84.3063 63.9864 85.609 62.6838 84.9577C61.3812 84.3064 60.7299 76.4907 62.0325 76.4907C63.3351 76.4907 64.6378 78.4446 65.2891 81.7011C65.9404 84.9577 70.4997 92.7734 69.197 84.9577C67.8943 77.142 65.9402 70.6289 67.8943 74.5367C69.8483 78.4446 71.1509 80.3985 71.8022 81.0498C72.4535 81.7011 71.8022 73.2341 71.8022 72.5828C73.1048 72.5828 73.1048 74.5367 75.0588 77.7933C77.0127 81.0498 76.3614 68.675 75.7101 68.0237C75.0588 67.3724 77.0127 62.1619 79.6179 69.9776C82.2231 77.7933 86.7823 74.5368 84.1771 69.9776C81.5718 65.4184 77.0127 67.3724 75.0588 69.9776C73.1048 72.5828 60.0787 78.4446 59.4274 81.7011C58.776 84.9577 65.2892 81.0498 66.5917 80.3984C67.8943 79.7471 82.2233 69.326 84.1771 66.0695C86.1308 62.813 78.4746 60.2075 78.3151 63.4643C78.1557 66.721 78.3155 72.5827 79.6179 78.4445C80.9204 84.3063 74.5813 80.3983 73.756 79.0958C72.9306 77.7933 70.4997 70.6288 69.197 70.6288C67.8943 70.6288 63.3352 83.6549 62.0325 85.6089" stroke="#CBD6AE" stroke-width="0.2"/>
</g>
<path d="M76.9609 65.6694C64.3603 66.5255 38.2081 68.3023 32.7236 68.675C37.1965 76.8576 42.1866 83.0467 56.0965 83.1011C65.0181 83.1361 75.6677 76.2021 80.8096 65.4079L76.9609 65.6694Z" fill="#79B170"/>
<path d="M80.1596 65.4519C70.1922 66.1291 39.5071 68.2141 33.3733 68.631C37.8903 77.4634 44.0918 82.2645 56.0445 82.3346C64.595 81.7537 74.3679 76.2905 80.1596 65.4519Z" fill="#FFB45E"/>
<path d="M71.0623 66.07L41.171 68.1011C44.6547 74.0265 51.6897 74.9277 56.29 74.6151C60.8903 74.3025 69.1268 71.5934 71.0623 66.07Z" fill="#FFD187"/>
<path fill-rule="evenodd" clip-rule="evenodd" d="M55.2864 67.4203C55.1795 67.5629 55.1836 67.7998 55.3205 67.9161C55.4574 68.0324 55.6754 67.9839 55.7824 67.8413C55.93 67.6443 55.9172 67.2554 55.9087 67.1314C55.8088 67.2039 55.7029 67.2298 55.6032 67.2542C55.4808 67.2841 55.3678 67.3118 55.2864 67.4203ZM45.858 68.1923C45.7422 68.3269 45.7312 68.5635 45.8606 68.6892C45.99 68.8149 46.2106 68.7821 46.3264 68.6475C46.4863 68.4616 46.4981 68.0729 46.4975 67.9487C46.3932 68.0139 46.2858 68.0321 46.1846 68.0493C46.0606 68.0704 45.946 68.0899 45.858 68.1923ZM48.6782 69.8859C48.5624 70.0205 48.5514 70.257 48.6808 70.3827C48.8101 70.5084 49.0308 70.4757 49.1466 70.3411C49.3065 70.1552 49.3183 69.7665 49.3177 69.6423C49.2133 69.7074 49.106 69.7257 49.0048 69.7429C48.8808 69.764 48.7662 69.7835 48.6782 69.8859ZM58.6639 69.8259C58.7472 69.9869 58.9545 70.0765 59.1073 69.9882C59.2601 69.9 59.3007 69.6674 59.2173 69.5063C59.1022 69.2839 58.7597 69.1429 58.6489 69.1023C58.6739 69.2288 58.6563 69.3428 58.6397 69.4501C58.6193 69.5817 58.6005 69.7034 58.6639 69.8259ZM66.1261 69.7382C66.2095 69.8992 66.4167 69.9888 66.5695 69.9005C66.7224 69.8123 66.7629 69.5797 66.6796 69.4186C66.5645 69.1962 66.222 69.0553 66.1111 69.0147C66.1362 69.1411 66.1185 69.2551 66.1019 69.3624C66.0816 69.494 66.0627 69.6157 66.1261 69.7382ZM55.6513 71.9214C55.522 71.7957 55.5329 71.5592 55.6487 71.4246C55.7368 71.3222 55.8514 71.3027 55.9754 71.2816C56.0765 71.2644 56.1839 71.2461 56.2882 71.181C56.2889 71.3052 56.277 71.6939 56.1172 71.8798C56.0014 72.0144 55.7807 72.0471 55.6513 71.9214ZM61.596 72.6451C61.4666 72.5194 61.4776 72.2828 61.5933 72.1482C61.6814 72.0458 61.796 72.0263 61.92 72.0052C62.0212 71.988 62.1285 71.9698 62.2329 71.9046C62.2335 72.0288 62.2217 72.4175 62.0618 72.6034C61.946 72.7381 61.7253 72.7708 61.596 72.6451ZM50.9311 68.7891C50.8539 68.9547 50.6367 69.0066 50.482 68.9242C50.3644 68.8616 50.3143 68.7497 50.2601 68.6287C50.2159 68.53 50.169 68.4252 50.0805 68.336C50.1927 68.3023 50.548 68.2107 50.7615 68.3245C50.9162 68.4069 51.0083 68.6235 50.9311 68.7891ZM58.0624 73.2749C58.1416 73.4383 58.3465 73.5338 58.5016 73.4501C58.6566 73.3663 58.7032 73.1351 58.624 72.9717C58.5146 72.7461 58.1758 72.5952 58.066 72.5514C58.0878 72.6785 58.0673 72.7919 58.0479 72.8987C58.0241 73.0296 58.0021 73.1507 58.0624 73.2749ZM63.7312 68.2121C63.5761 68.2959 63.3712 68.2004 63.292 68.037C63.2318 67.9127 63.2538 67.7917 63.2775 67.6608C63.2969 67.554 63.3175 67.4406 63.2957 67.3135C63.4055 67.3573 63.7443 67.5081 63.8536 67.7337C63.9328 67.8971 63.8863 68.1284 63.7312 68.2121ZM52.0978 73.1304C51.9249 73.1032 51.8085 72.9001 51.8322 72.7189C51.8503 72.5811 51.9341 72.4964 52.0248 72.4047C52.0988 72.3299 52.1773 72.2505 52.2285 72.134C52.2949 72.2368 52.4912 72.567 52.4584 72.8172C52.4347 72.9983 52.2707 73.1575 52.0978 73.1304Z" fill="#EF9022"/>
<path opacity="0.12" fill-rule="evenodd" clip-rule="evenodd" d="M38.0811 68.3107C43.4256 76.2428 48.8539 80.378 60.0042 80.4956C65.2669 80.5511 70.3914 79.6655 74.6126 77.5096C69.8999 81.5722 63.1213 83.1749 56.0964 83.1008C43.9394 82.9726 38.5843 78.0686 32.7235 68.6747C33.7997 68.6016 35.6718 68.4744 38.0811 68.3107Z" fill="#2D382B"/>
<path opacity="0.12" fill-rule="evenodd" clip-rule="evenodd" d="M66.0066 60.9615C62.494 69.7587 54.4543 74.5256 45.098 74.5256C40.2769 74.5256 35.8054 73.2599 32.1227 70.8294C32.1918 70.8 32.2611 70.7704 32.3306 70.7407C31.8021 69.8695 31.2867 68.9586 30.7695 68.0125C32.7081 67.8362 36.3408 67.5189 40.8064 67.1363C50.292 63.1073 60.9367 58.5833 65.94 56.289C66.084 57.942 66.1085 59.4956 66.0066 60.9615Z" fill="#5A380F"/>
<path opacity="0.12" fill-rule="evenodd" clip-rule="evenodd" d="M65.8966 66.4213C58.3481 66.9342 49.7823 67.5161 43.1122 67.9693C40.1584 69.3238 37.2558 70.6549 34.589 71.8777C37.928 77.1783 42.0788 81.2257 49.9292 82.5967C58.6607 78.5384 63.9034 73.1832 65.8966 66.4213Z" fill="#5A380F"/>
<path d="M65.4033 57.15C56.3222 61.3142 26.9832 74.7679 21.3949 77.3306C28.6737 85.8289 36.5043 88.1561 48.3796 82.7105C60.9534 76.9447 66.3951 68.5312 65.4033 57.15Z" fill="#79B170"/>
<path d="M64.7047 57.4703C55.6235 61.6345 27.6817 74.4476 22.0934 77.0103C28.033 84.4319 36.8825 87.1373 48.0592 82.0121C59.236 76.8869 65.3762 68.153 64.7047 57.4703Z" fill="#FFB45E"/>
<path d="M56.322 61.3142L29.0788 73.807C34.4355 78.114 41.3631 76.6281 45.5543 74.7061C49.7456 72.7842 56.4687 67.165 56.322 61.3142Z" fill="#FFD187"/>
<path fill-rule="evenodd" clip-rule="evenodd" d="M42.1684 68.6037C42.1329 68.7838 42.2452 68.9931 42.4276 69.0291C42.61 69.065 42.7933 68.9141 42.8289 68.734C42.8779 68.4853 42.6878 68.1448 42.623 68.0384C42.562 68.1525 42.474 68.2279 42.3911 68.299C42.2894 68.3862 42.1955 68.4667 42.1684 68.6037ZM33.6312 73.9547C33.5836 74.132 33.6816 74.3484 33.8612 74.3965C34.0407 74.4447 34.2338 74.3064 34.2813 74.129C34.347 73.8842 34.1801 73.5317 34.1226 73.4212C34.0541 73.5309 33.9612 73.6003 33.8737 73.6657C33.7665 73.7458 33.6673 73.8199 33.6312 73.9547ZM37.0663 74.0703C37.0187 74.2477 37.1167 74.464 37.2963 74.5121C37.4758 74.5603 37.6689 74.422 37.7164 74.2447C37.7821 73.9998 37.6152 73.6473 37.5577 73.5369C37.4892 73.6466 37.3963 73.7159 37.3088 73.7813C37.2016 73.8614 37.1024 73.9355 37.0663 74.0703ZM46.4547 69.0792C46.6071 69.1816 46.8435 69.1589 46.9472 69.0047C47.0509 68.8504 46.9827 68.6229 46.8303 68.5205C46.6199 68.3791 46.2324 68.4227 46.1093 68.4413C46.1908 68.5417 46.2264 68.6521 46.2599 68.756C46.3009 68.8835 46.3389 69.0013 46.4547 69.0792ZM53.451 65.3111C53.6034 65.4135 53.8398 65.3909 53.9435 65.2366C54.0472 65.0824 53.979 64.8549 53.8266 64.7525C53.6162 64.6111 53.2287 64.6547 53.1056 64.6733C53.1871 64.7737 53.2227 64.884 53.2562 64.988C53.2972 65.1154 53.3352 65.2332 53.451 65.3111ZM44.5736 72.4378C44.394 72.3897 44.296 72.1733 44.3436 71.996C44.3797 71.8612 44.4789 71.7871 44.5862 71.707C44.6736 71.6416 44.7665 71.5722 44.8351 71.4626C44.8926 71.573 45.0594 71.9255 44.9938 72.1703C44.9462 72.3477 44.7531 72.486 44.5736 72.4378ZM50.5107 70.1433C50.3311 70.0952 50.2331 69.8788 50.2807 69.7015C50.3168 69.5667 50.416 69.4926 50.5233 69.4125C50.6107 69.3471 50.7036 69.2777 50.7722 69.1681C50.8297 69.2785 50.9965 69.631 50.9309 69.8758C50.8833 70.0532 50.6902 70.1915 50.5107 70.1433ZM38.688 71.9784C38.6911 72.1643 38.51 72.3179 38.3264 72.321C38.1868 72.3233 38.0884 72.2483 37.9818 72.1671C37.895 72.101 37.8027 72.0307 37.6784 71.995C37.7688 71.9093 38.0619 71.6521 38.3154 71.6479C38.4989 71.6449 38.685 71.7925 38.688 71.9784ZM47.4668 72.4525C47.6163 72.5591 47.8533 72.543 47.9612 72.3916C48.0691 72.2402 48.007 72.011 47.8575 71.9044C47.6511 71.7573 47.2625 71.7903 47.139 71.8055C47.2177 71.9081 47.2503 72.0194 47.2809 72.1242C47.3184 72.2527 47.3531 72.3715 47.4668 72.4525ZM50.494 65.1344C50.3861 65.2858 50.1492 65.3019 49.9997 65.1954C49.886 65.1143 49.8513 64.9955 49.8137 64.867C49.7831 64.7622 49.7506 64.6509 49.6718 64.5483C49.7954 64.5331 50.184 64.5001 50.3904 64.6472C50.5399 64.7538 50.6019 64.983 50.494 65.1344ZM41.7766 75.2728C41.6011 75.3341 41.3983 75.2105 41.3378 75.0372C41.2917 74.9054 41.3319 74.7884 41.3755 74.6618C41.411 74.5585 41.4487 74.4489 41.4436 74.3196C41.5533 74.3785 41.8896 74.5759 41.9732 74.8152C42.0338 74.9885 41.9521 75.2115 41.7766 75.2728Z" fill="#EF9022"/>
<path opacity="0.12" fill-rule="evenodd" clip-rule="evenodd" d="M23.3047 76.4548C29.5102 83.1548 36.7706 84.9042 47.5961 80.7368C56.9055 77.153 62.5991 71.9635 64.9459 65.0647C63.2624 72.5361 57.8395 78.3725 48.3797 82.7104C36.5044 88.156 28.6738 85.8288 21.395 77.3305C21.8694 77.1129 22.5149 76.8169 23.3047 76.4548Z" fill="#2D382B"/>
<path opacity="0.8" d="M53.5654 25.0262C54.7392 25.7429 57.9618 29.6031 59.9418 33.278M61.3811 36.7497C61.3283 36.538 61.2652 36.3206 61.1928 36.0984" stroke="white" stroke-linecap="round"/>
<path opacity="0.8" d="M59.4271 62.1508L58.7758 62.4514M50.9601 66.0586L57.2322 63.1638" stroke="white" stroke-linecap="round"/>
<path opacity="0.8" d="M69.848 68.0125L74.8378 67.5589M77.0124 67.3612L76.5033 67.4075" stroke="white" stroke-linecap="round"/>
</svg>
