<svg width="96" height="96" viewBox="0 0 96 96" fill="none" xmlns="http://www.w3.org/2000/svg">
<rect width="96" height="96" fill="#F9E7EC"/>
<ellipse cx="48" cy="60" rx="40" ry="17" fill="#DCBDC5"/>
<ellipse cx="64.7971" cy="46.4538" rx="23.2029" ry="21.7527" fill="#923753"/>
<path fill-rule="evenodd" clip-rule="evenodd" d="M83.1073 59.8164C79.0094 63.2316 73.6119 65.3061 67.6975 65.3061C54.8829 65.3061 44.4946 55.5671 44.4946 43.5534C44.4946 38.5158 46.3212 33.8781 49.3874 30.1908C44.6063 34.1753 41.5942 39.9848 41.5942 46.4538C41.5942 58.4675 51.9825 68.2065 64.7971 68.2065C72.2383 68.2065 78.8613 64.9227 83.1073 59.8164Z" fill="#862C47"/>
<path d="M75.6734 26.8764C74.5856 29.0519 69.9279 28.3874 67.7527 29.3542C65.5774 28.3874 61.2271 26.1126 61.2272 24.2783C61.2273 21.8008 65.912 20.3505 70.5978 20.3505C74.9483 20.3505 76.7612 24.7008 75.6734 26.8764Z" fill="#86A556"/>
<path opacity="0.6" fill-rule="evenodd" clip-rule="evenodd" d="M62.386 22.3223C61.6568 22.8724 61.2272 23.5284 61.2272 24.2786C61.2271 26.113 65.5774 28.3878 67.7527 29.3545C68.5597 28.9959 69.7085 28.8617 70.8899 28.7238C72.8927 28.4899 74.9892 28.2451 75.6734 26.8767C76.163 25.8974 76.065 24.4775 75.4123 23.212C72.4909 22.8272 70.5702 24.3095 68.9503 25.5597C68.2539 26.0971 67.6131 26.5917 66.9723 26.8765C66.4998 24.0417 64.7958 23.3618 63.4653 22.831C63.054 22.6669 62.6785 22.5171 62.386 22.3223Z" fill="#547521"/>
<path d="M45.9448 31.227C45.9448 26.1514 51.7455 17.4502 64.7971 24.2161C66.247 24.7598 66.4873 28.5689 65.522 30.0169C63.7485 32.6771 52.4706 37.0276 45.9448 31.227Z" fill="#7D9D4C"/>
<path fill-rule="evenodd" clip-rule="evenodd" d="M49.7635 23.7831C48.1612 25.6691 47.3949 27.9929 47.3949 29.8377C52.9537 34.7788 61.9607 32.3542 65.6041 29.8829C65.5777 29.9295 65.5504 29.9742 65.522 30.0168C63.7485 32.677 52.4705 37.0276 45.9447 31.227C45.9447 28.8936 47.1707 25.7939 49.7635 23.7831Z" fill="#668C2B"/>
<path opacity="0.6" fill-rule="evenodd" clip-rule="evenodd" d="M65.8112 25.5378C66.2782 26.937 66.1814 29.0279 65.522 30.017C64.5706 31.4441 60.884 33.3576 56.6632 33.9295C56.3118 32.9927 56.096 31.8728 56.0961 30.5018C56.0962 25.426 61.6551 25.1845 64.7972 25.4262C65.1117 25.4504 65.4532 25.4864 65.8112 25.5378Z" fill="#547521"/>
<path d="M68.6732 17.1717C67.8383 15.5011 65.0474 15.7216 64.3223 17.1718C63.5973 18.622 64.6372 26.9129 65.0474 27.323C65.7726 28.0481 67.2221 28.0481 67.9477 27.323C68.3579 26.9129 69.5081 18.8423 68.6732 17.1717Z" fill="#547429"/>
<path fill-rule="evenodd" clip-rule="evenodd" d="M65.6915 16.123C66.779 15.8027 68.1339 16.0929 68.6731 17.1717C69.5079 18.8423 68.3578 26.9129 67.9475 27.323C67.3764 27.8937 66.3569 28.0152 65.595 27.6875C65.9521 27.7163 66.2983 27.6141 66.5896 27.323C66.9999 26.9129 68.3882 18.8425 67.5533 17.1719C67.1818 16.4285 66.4516 16.1146 65.6915 16.123Z" fill="#486620"/>
<path d="M86.5494 36.3023C86.5494 31.9516 79.2989 18.1753 69.1476 26.1514C67.6978 26.6951 66.7318 30.5038 67.6971 31.9517C69.1474 34.1271 77.1234 40.6528 86.5494 36.3023Z" fill="#7D9D4C"/>
<path fill-rule="evenodd" clip-rule="evenodd" d="M67.7061 28.0839C67.2298 29.4255 67.128 31.0985 67.6969 31.9517C69.1471 34.1271 77.1232 40.6528 86.5491 36.3022C86.5491 36.175 86.5429 36.0396 86.5306 35.897C77.4146 39.5245 69.4976 32.1571 68.0856 30.0391C67.7734 29.5709 67.6632 28.8557 67.7061 28.0839Z" fill="#668C2B"/>
<path opacity="0.6" fill-rule="evenodd" clip-rule="evenodd" d="M73.2861 36.2047C73.7251 35.3872 74.0473 34.4574 74.2233 33.4022C74.9644 28.9592 71.63 26.9094 68.8419 26.3178C67.5684 27.2323 66.8015 30.6081 67.6971 31.9516C68.3596 32.9453 70.3839 34.8468 73.2861 36.2047Z" fill="#5C7C29"/>
<path d="M56.8212 31.2269C56.8213 26.1511 63.1053 25.9096 66.2473 26.1513C69.1477 26.3744 74.3449 28.3265 73.4982 33.4022C72.6516 38.4778 67.6982 40.6531 63.347 41.3782C61.8975 39.203 56.821 37.3835 56.8212 31.2269Z" fill="#86A556"/>
<path opacity="0.2" fill-rule="evenodd" clip-rule="evenodd" d="M48.7352 62.1521C44.334 58.1933 41.5942 52.6235 41.5942 46.4538C41.5942 41.279 43.5217 36.5262 46.7403 32.792C50.0047 36.2415 51.985 40.7698 51.985 45.7287C52.7094 52.6076 51.8066 58.1238 48.7352 62.1521Z" fill="#480D21"/>
<path fill-rule="evenodd" clip-rule="evenodd" d="M60.575 26.624C59.7775 27.382 59.1989 28.4219 58.9965 29.838C58.3311 34.4948 61.2228 37.5026 63.2709 39.6329C63.802 40.1854 64.2764 40.6788 64.6174 41.1267C64.1911 41.2248 63.7663 41.3082 63.347 41.378C62.9365 40.762 62.2351 40.1745 61.4405 39.509C59.4293 37.8244 56.8211 35.6398 56.8212 31.2267C56.8212 28.5952 58.5103 27.2631 60.575 26.624Z" fill="#6C942F"/>
<path d="M50.2947 45.7287C51.7455 59.5054 46.6698 67.816 30.7178 69.6567C19.1164 70.9953 6.06439 58.0552 8.23949 45.7287C8.23949 34.9164 17.6539 26.1512 29.2671 26.1512C40.8803 26.1512 50.2947 34.9164 50.2947 45.7287Z" fill="#4D0F24"/>
<path fill-rule="evenodd" clip-rule="evenodd" d="M48.1793 60.4263C44.8504 64.2335 39.3706 66.5671 31.443 67.4818C19.8416 68.8204 6.79005 57.3302 8.96515 45.0036C8.96515 39.767 11.3997 34.8406 15.2299 31.1523C10.9389 34.7365 8.23949 39.9393 8.23949 45.729C6.06439 58.0556 19.1164 70.9956 30.7178 69.657C39.7882 68.6104 45.3421 65.472 48.1793 60.4263Z" fill="#3D091A"/>
<ellipse cx="29.2676" cy="45.7287" rx="21.0276" ry="19.5774" fill="#E45B62"/>
<path d="M33.6182 29.7767C38.6935 29.0516 46.939 36.3025 45.2193 40.653C43.4997 45.0035 31.4431 45.7287 29.2677 43.5533C26.1305 40.416 28.5429 30.5019 33.6182 29.7767Z" fill="#F4F2EE"/>
<path fill-rule="evenodd" clip-rule="evenodd" d="M28.5751 42.5949C28.7655 42.9584 28.9958 43.2812 29.2677 43.5532C31.4431 45.7286 43.4997 45.0034 45.2194 40.653C46.1062 38.4092 44.3425 35.394 41.7301 33.0993C43.4914 35.1182 44.4788 37.4075 43.7692 39.2028C42.1958 43.1831 31.97 44.1288 28.5751 42.5949Z" fill="#F2D0D5"/>
<path fill-rule="evenodd" clip-rule="evenodd" d="M31.5714 30.6344C34.5259 34.5694 34.121 41.1483 32.6531 44.6532C31.0882 44.4947 29.8381 44.1237 29.2677 43.5532C26.5892 40.8748 27.956 33.2566 31.5714 30.6344Z" fill="#F2D0D5"/>
<path d="M13.1093 41.0924C10.9336 33.8417 25.4353 25.1404 29.7859 30.2162C34.1366 35.2919 32.1299 45.6333 29.5282 46.8934C25.7762 48.7106 15.2851 48.3431 13.1093 41.0924Z" fill="#F4F2EE"/>
<path fill-rule="evenodd" clip-rule="evenodd" d="M16.7238 32.7246C14.8779 34.8452 13.862 37.3182 14.5594 39.6422C16.5468 46.2654 25.2552 47.9885 29.6074 46.8521C29.581 46.8668 29.5546 46.8806 29.528 46.8934C25.776 48.7106 15.285 48.3432 13.1092 41.0925C12.2455 38.2143 14.0097 35.1075 16.7238 32.7246Z" fill="#F2D0D5"/>
<path fill-rule="evenodd" clip-rule="evenodd" d="M45.0181 41.0684C43.3757 43.9141 37.104 45.0366 32.8943 44.6757C32.4922 43.6263 32.432 42.7181 32.8931 42.1032C35.0404 39.2398 41.745 39.1088 45.0181 41.0684Z" fill="#F2D0D5"/>
<path d="M46.6699 44.2785C48.1201 47.904 44.4946 55.8801 42.3194 55.8801C40.1441 55.8801 30.7179 46.4539 32.8931 43.5534C35.5549 40.0039 45.2197 40.653 46.6699 44.2785Z" fill="#F4F2EE"/>
<path fill-rule="evenodd" clip-rule="evenodd" d="M46.9708 45.5941C46.6522 49.4694 44.0348 54.4299 42.3194 54.4299C40.4985 54.4299 33.5967 47.8248 32.6722 43.9714C31.5311 47.2628 40.2395 55.88 42.3194 55.88C44.259 55.88 47.3516 49.5384 46.9708 45.5941Z" fill="#F2D0D5"/>
<path fill-rule="evenodd" clip-rule="evenodd" d="M24.3971 47.8132C20.0206 47.7835 14.7601 46.0941 13.1813 41.3201C16.4617 40.3137 24.4575 40.7798 25.6425 43.5535C26.2331 44.9359 25.6184 46.4444 24.3971 47.8132Z" fill="#F2D0D5"/>
<path d="M14.7654 53.7047C10.9006 53.1478 10.7776 45.4374 11.8652 43.5536C12.9529 41.6697 24.2178 41.6696 25.6422 45.0036C27.3852 49.0836 18.6303 54.2615 14.7654 53.7047Z" fill="#F4F2EE"/>
<path fill-rule="evenodd" clip-rule="evenodd" d="M13.0317 42.8183C12.2887 45.4384 12.7322 51.7526 16.2159 52.2545C18.3982 52.5689 22.1398 51.0548 24.67 48.9424C22.3904 51.7601 17.4226 54.0875 14.7657 53.7047C10.9008 53.1478 10.7779 45.4374 11.8655 43.5536C12.0342 43.2613 12.4478 43.0144 13.0317 42.8183Z" fill="#F2D0D5"/>
<path fill-rule="evenodd" clip-rule="evenodd" d="M13.9888 53.4788C14.2288 53.5879 14.4872 53.6648 14.7649 53.7048C18.4262 54.2323 26.4759 49.6133 25.8319 45.6566C22.103 45.5028 13.8591 51.3461 13.9888 53.4788Z" fill="#F2D0D5"/>
<path d="M24.9473 59.7589C22.1808 62.5145 16.344 57.156 15.491 55.1549C14.6381 53.1539 22.1211 45.5902 25.6423 46.4539C29.9513 47.5108 27.7139 57.0032 24.9473 59.7589Z" fill="#F4F2EE"/>
<path fill-rule="evenodd" clip-rule="evenodd" d="M16.4667 56.5863C18.6449 58.4845 21.7111 60.0879 23.4973 58.3087C25.3226 56.4905 27.2332 51.1082 27.0843 47.3529C29.3141 50.038 27.3263 57.3893 24.9473 59.7589C22.7083 61.9891 18.4582 58.9045 16.4667 56.5863Z" fill="#F2D0D5"/>
<path fill-rule="evenodd" clip-rule="evenodd" d="M32.5993 44.2592C36.6136 44.8493 41.6918 51.7537 42.2661 55.8785C40.1564 55.7413 32.0168 47.7073 32.5993 44.2592Z" fill="#F2D0D5"/>
<path d="M24.5077 43.7729C27.3024 45.5731 30.0978 43.5272 32.8938 42.8283C32.8938 42.8283 32.168 44.2785 35.7942 46.4538C35.7949 47.1789 26.368 47.904 26.368 47.904C26.9017 47.2709 26.3673 46.4538 24.9178 45.7287C25.6054 45.7287 26.2928 45.0768 24.5077 43.7729C24.4027 43.7052 24.2977 43.6322 24.1927 43.5534C24.3054 43.6285 24.4102 43.7017 24.5077 43.7729Z" fill="#F2D0D5"/>
<path d="M40.8696 56.605C40.8696 60.9556 26.3676 63.131 24.1925 60.2304C22.0174 57.3298 25.6427 45.1486 29.9932 44.2785C34.3438 43.4084 40.8696 52.2544 40.8696 56.605Z" fill="#F4F2EE"/>
<path fill-rule="evenodd" clip-rule="evenodd" d="M40.6004 57.6139C36.6936 60.2025 27.3537 61.0621 25.6426 58.7802C23.9529 56.527 25.7635 48.6731 28.6954 44.872C24.966 47.5271 22.2382 57.6244 24.1924 60.2304C26.192 62.897 38.61 61.2735 40.6004 57.6139Z" fill="#F2D0D5"/>
<path opacity="0.6" d="M83.0203 40.6531C84.4308 42.0626 84.7336 46.0041 83.9403 49.4612M82.8822 52.4559C82.9942 52.2383 83.0999 52.0125 83.1993 51.7798" stroke="white" stroke-linecap="round"/>
<path opacity="0.6" d="M73.4982 25.4263C75.5801 24.9058 77.662 25.5061 79.2075 26.4227M80.7491 27.6016C80.6387 27.4912 80.5199 27.3808 80.3933 27.2713" stroke="white" stroke-width="0.5" stroke-linecap="round"/>
<path opacity="0.6" d="M56.2046 23.047C56.1307 23.0295 56.0548 23.0131 55.9774 22.9984M53.9208 23.2509C54.2037 23.0764 54.5166 22.9824 54.8355 22.9434" stroke="white" stroke-width="0.5" stroke-linecap="round"/>
<path opacity="0.6" d="M68.4226 27.6014C69.3297 28.055 69.9531 28.5086 70.4703 29.1396M71.323 30.5018C71.2759 30.4076 71.2288 30.3164 71.1814 30.2281" stroke="white" stroke-width="0.5" stroke-linecap="round"/>
<path opacity="0.6" d="M71.2761 21.1907C71.6271 21.1364 71.8764 21.1537 72.1023 21.2346M72.8201 21.6857C72.8029 21.6722 72.786 21.6591 72.7694 21.6461" stroke="white" stroke-width="0.5" stroke-linecap="round"/>
<path opacity="0.6" d="M32.8932 28.3265C33.8633 28.3265 35.4825 28.3265 36.8823 28.7607M38.6939 29.7767C38.5664 29.6492 38.4276 29.5328 38.2796 29.4267" stroke="white" stroke-width="0.5" stroke-linecap="round"/>
</svg>
