<svg width="96" height="96" viewBox="0 0 96 96" fill="none" xmlns="http://www.w3.org/2000/svg">
<rect width="96" height="96" fill="#BBE289"/>
<ellipse cx="49" cy="75.5" rx="40" ry="5.5" fill="#A5CD71"/>
<path d="M40.588 18.2226L39.3769 18.4016L39.0043 21.1062L41.5242 20.9081L40.588 18.2226Z" fill="#9E9601"/>
<ellipse cx="41.7145" cy="45.4989" rx="23.3599" ry="25.5498" transform="rotate(7.84418 41.7145 45.4989)" fill="#FC8D00"/>
<path opacity="0.7" d="M44.236 21.2818C45.8587 21.3569 50.3142 22.7554 53.0479 24.5222M54.66 25.8496C54.4764 25.6382 54.4153 25.62 54.1675 25.4133" stroke="white" stroke-width="0.729995" stroke-linecap="round" stroke-linejoin="round"/>
<path fill-rule="evenodd" clip-rule="evenodd" d="M19.5903 53.7428C18.4987 50.1204 18.15 46.1532 18.7108 42.0826C19.4037 37.0531 21.3906 32.5511 24.2459 28.93C40.1614 27.7287 54.5841 41.9511 59.0919 53.9406C49.09 56.9661 31.1921 60.5662 19.5903 53.7428Z" fill="#E8870D"/>
<path fill-rule="evenodd" clip-rule="evenodd" d="M46.5316 70.3358C55.8192 67.9605 63.3586 59.5551 64.8559 48.687C65.5057 43.9702 64.9344 39.3922 63.401 35.3287C52.9039 35.6373 43.8569 43.4837 42.376 54.2329C41.5576 60.1733 43.2035 65.885 46.5316 70.3358Z" fill="#E8870D"/>
<path d="M62.1273 63.7526C51.1901 50.3776 20.9541 38.4167 3.7858 60.9612C15.7968 87.5129 47.883 72.451 62.1273 63.7526Z" fill="#339E03"/>
<path fill-rule="evenodd" clip-rule="evenodd" d="M13.57 52.2616C10.3502 54.2289 7.32755 56.9206 4.62802 60.4655C16.1164 85.8619 45.9712 73.1872 61.012 64.4244C46.2717 73.1867 15.4927 86.8409 3.78568 60.9612C6.7194 57.1088 10.0347 54.264 13.57 52.2616Z" fill="#339407"/>
<path opacity="0.6" d="M15.4601 53.6749C15.1607 53.6873 15.2185 53.6637 14.8052 53.7387M7.1309 59.2779C8.74514 56.9212 11.6 54.9196 13.5574 54.0839" stroke="white" stroke-width="0.729995" stroke-linecap="round" stroke-linejoin="round"/>
<path d="M61.0855 63.4889C56.8285 63.0831 51.152 62.6169 45.0669 62.1843M6.98002 61.1744C8.33561 60.7478 12.3419 60.652 17.705 60.7666M21.316 60.8677C20.4679 58.4967 19.8106 57.6361 18.4923 56.4748M21.316 60.8677C20.0588 60.8252 18.8509 60.7911 17.705 60.7666M21.316 60.8677C22.7642 60.9167 24.2778 60.9769 25.8376 61.0465M17.705 60.7666C16.4304 61.8457 13.6235 63.4892 12.6238 64.01M25.8376 61.0465C25.16 61.7151 22.3997 63.7455 20.7783 64.4344M25.8376 61.0465C26.8092 61.0898 27.7986 61.1368 28.8014 61.187M28.8014 61.187C27.9699 59.4057 26.0444 55.7723 24.9945 55.4885M28.8014 61.187C30.2662 61.2603 31.7594 61.3405 33.2662 61.4262M33.2662 61.4262C32.0873 62.3455 28.7766 65.2516 26.6367 66.3146M33.2662 61.4262C34.4373 61.4928 35.6167 61.5627 36.7976 61.6354M36.7976 61.6354C36.4638 59.4346 34.4544 56.9331 33.9888 56.7084M36.7976 61.6354C38.1628 61.7193 39.5299 61.8069 40.8884 61.897M40.8884 61.897C39.3834 63.8274 37.1968 66.0049 35.5489 66.9932M40.8884 61.897C42.2943 61.9903 43.6911 62.0865 45.0669 62.1843M45.0669 62.1843C44.2773 60.5339 42.43 57.1262 41.3583 56.6981" stroke="#46B115" stroke-width="0.364998" stroke-linejoin="round"/>
<path opacity="0.6" fill-rule="evenodd" clip-rule="evenodd" d="M55.0221 56.6122C44.3552 49.1761 28.3315 44.7052 15.1156 51.547C24.7372 61.8238 43.0176 59.6543 55.0221 56.6122Z" fill="#2F820A"/>
<path d="M58.9923 54.6638C53.0429 38.8398 29.8221 19.1261 8.69349 36.1163C12.0147 64.8915 44.1718 59.1469 58.9923 54.6638Z" fill="#339E03"/>
<path fill-rule="evenodd" clip-rule="evenodd" d="M9.1883 35.7254C12.6366 63.7721 43.769 58.6161 58.8069 54.1836C58.8704 54.344 58.9322 54.5041 58.9923 54.6638C44.1717 59.1469 12.0146 64.8915 8.69341 36.1163C8.85825 35.9838 9.02322 35.8535 9.1883 35.7254Z" fill="#339407"/>
<path opacity="0.6" d="M28.9321 31.4529C28.9321 31.4529 28.7399 31.3434 28.5908 31.3164M18.7073 32.288C21.9298 31.0213 25.4057 30.8984 27.5738 31.1784" stroke="white" stroke-width="0.729995" stroke-linecap="round" stroke-linejoin="round"/>
<path d="M57.9015 54.298C54.2861 52.7506 49.4448 50.759 44.2369 48.6885M11.1805 37.3607C12.4822 37.3195 16.0141 38.3169 20.6763 39.8855M23.8089 40.9646C23.7088 38.4561 23.3666 37.4506 22.5274 35.9763M23.8089 40.9646C22.7203 40.5819 21.6725 40.2207 20.6763 39.8855M23.8089 40.9646C25.0629 41.4055 26.3712 41.875 27.7174 42.366M20.6763 39.8855C19.2688 40.5756 16.3673 41.3913 15.3515 41.6197M27.7174 42.366C26.9433 42.8241 23.978 44.0241 22.3726 44.245M27.7174 42.366C28.5559 42.6719 29.409 42.9861 30.2729 43.307M30.2729 43.307C30.0276 41.3696 29.3265 37.3552 28.4846 36.7971M30.2729 43.307C31.535 43.7758 32.8199 44.2589 34.1153 44.751M34.1153 44.751C32.8347 45.3136 29.1507 47.2053 26.9902 47.6445M34.1153 44.751C35.1221 45.1335 36.1353 45.5214 37.149 45.9123M37.149 45.9123C37.4528 43.7072 36.3717 40.7575 36.0252 40.415M37.149 45.9123C38.3209 46.3642 39.4936 46.8201 40.658 47.2762M40.658 47.2762C38.8183 48.7214 36.3151 50.2188 34.6055 50.7201M40.658 47.2762C41.8631 47.7482 43.0594 48.2203 44.2369 48.6885M44.2369 48.6885C43.9927 46.8882 43.2989 43.112 42.477 42.4092" stroke="#46B115" stroke-width="0.364998" stroke-linejoin="round"/>
<path opacity="0.6" fill-rule="evenodd" clip-rule="evenodd" d="M47.197 71.1828C47.8781 70.9149 48.5521 70.6395 49.2179 70.3582C53.2895 67.6911 56.6308 63.729 58.6918 58.9291C54.5582 55.3926 49.1973 52.2512 43.3145 50.2258C42.8843 51.5067 42.567 52.8461 42.3758 54.2338C41.5046 60.5578 43.4262 66.6226 47.197 71.1828Z" fill="#348F0B"/>
<path opacity="0.6" fill-rule="evenodd" clip-rule="evenodd" d="M48.1998 42.1294C51.2648 45.7579 53.6245 49.7012 55.026 53.4286C51.5147 54.4908 47.0303 55.6237 42.1869 56.3516C42.2156 55.6498 42.2782 54.943 42.3761 54.2329C43.0274 49.5055 45.142 45.3396 48.1998 42.1294Z" fill="#348F0B"/>
<circle cx="64.7441" cy="57.6838" r="21.5349" transform="rotate(7.84418 64.7441 57.6838)" fill="#F9E675" stroke="#FC8D00" stroke-width="0.729995"/>
<circle cx="64.744" cy="57.6838" r="19.5274" transform="rotate(7.84418 64.744 57.6838)" fill="#FFA403" stroke="#FFF3B6" stroke-width="0.364998"/>
<path opacity="0.4" d="M83.9942 59.5992C82.2019 69.7956 72.6449 76.8261 62.3032 75.4014C51.9614 73.9766 44.6615 64.6234 45.6933 54.3221C45.6514 54.5609 45.6136 54.8015 45.5803 55.0437C44.1221 65.6276 51.52 75.3896 62.104 76.8477C72.6879 78.3058 82.4499 70.9079 83.908 60.324C83.9414 60.082 83.9701 59.8403 83.9942 59.5992Z" fill="#E09207"/>
<circle cx="64.7443" cy="57.6838" r="2.18999" transform="rotate(7.84418 64.7443 57.6838)" fill="#FFF3B6"/>
<g opacity="0.6">
<path d="M67.2285 38.3143C67.3843 38.52 64.8364 57.7365 64.925 57.7087C64.925 57.7087 67.2189 38.6814 67.59 38.3641C67.9611 38.0468 67.0727 38.1085 67.2285 38.3143Z" fill="#FFF3B6"/>
<path fill-rule="evenodd" clip-rule="evenodd" d="M62.4407 77.0783C62.7985 75.838 65.0572 58.1777 65.0572 58.1777L65.3942 58.4549C65.3942 58.4549 72.0032 74.5271 72.0346 75.6367C72.2154 75.6616 72.7578 75.7363 72.446 75.3249C72.1342 74.9136 65.5323 58.5687 65.5323 58.5687C65.5323 58.5687 79.8511 69.7132 79.8013 70.0747C79.7515 70.4363 80.6347 69.4527 80.0568 69.5573C79.479 69.6619 65.4571 58.3977 65.4571 58.3977L65.2622 57.955C65.2622 57.955 84.1262 60.0777 84.0888 60.3489C84.0514 60.6202 84.3692 59.6507 83.9578 59.9625C83.5464 60.2742 65.241 57.9069 65.241 57.9069L65.1341 57.6641L65.1464 57.6586L65.1337 57.663L65.0862 57.5553L65.1683 57.4556C65.1683 57.4556 83.1398 51.1913 82.9839 50.9856C82.8279 50.7799 83.3454 51.0354 83.1647 51.0105C82.9839 50.9856 65.1804 57.4408 65.1804 57.4408C65.1804 57.4408 76.9044 42.9633 77.2909 42.8324C77.6774 42.7014 76.928 42.209 77.135 42.6267C77.342 43.0444 65.6708 56.7719 65.1106 57.4739L65.0776 57.4896L65.1076 57.4783L64.9322 57.7321L64.6391 57.8328L64.6322 57.828L64.6383 57.833L64.4391 57.9014C64.4391 57.9014 50.4101 45.3926 49.9176 44.9563C49.435 44.8964 49.3254 45.2432 49.4812 45.4488C51.4949 45.542 64.4287 57.905 64.4287 57.905L64.2644 57.9614C64.2644 57.9614 45.6301 54.6821 45.4493 54.6572C45.5738 53.7532 45.2435 54.813 45.3497 55.3803C46.7997 54.892 64.1826 57.9895 64.1826 57.9895C64.1826 57.9895 48.0319 65.3294 46.7913 64.9743C46.1991 65.2611 47.0283 65.9281 47.0781 65.5665C47.1279 65.2049 64.3527 58.0081 64.3527 58.0081L64.6944 58.0454L64.3989 57.9877L64.488 57.9485L64.5203 57.9721L64.4914 57.947L64.6774 57.8651L64.9058 58.0531C64.9058 58.0531 53.5376 72.1673 52.8707 72.9965C52.9916 73.5041 52.7861 73.3836 53.3882 73.2521C53.7706 71.6467 64.9183 58.0634 64.9183 58.0634L65.0243 58.1506C65.0243 58.1506 62.6961 76.5608 62.079 77.0285C62.3944 77.2562 62.0541 77.2093 62.4407 77.0783ZM64.6826 57.8628L64.9255 58.0305L64.6832 58.1262L64.7193 57.8646L65.0746 57.8934L65.1058 57.7336L65.0882 57.8945L65.205 57.904L65.1241 57.6684L64.9186 57.7589L64.8883 57.7958L64.9116 57.762L64.6826 57.8628ZM64.9439 57.7281L65.1235 57.6665L65.0856 57.556L64.9439 57.7281ZM64.9367 58.0383L65.0332 58.105L65.0688 57.9228L65.0265 57.9158L64.9367 58.0383ZM65.0848 57.9255L65.2201 57.948L65.3488 58.323L65.0629 58.1255L65.0848 57.9255Z" fill="#FFF3B6"/>
<path d="M64.9132 57.615C64.9132 57.615 58.3039 40.7692 57.4537 39.731C57.7092 39.2135 57.9149 39.0576 57.8402 39.6C57.7654 40.1424 64.9132 57.615 64.9132 57.615Z" fill="#FFF3B6"/>
</g>
<path opacity="0.8" d="M69.6663 41C71.4821 41.5658 74.8946 43.2979 77.243 46.1771M78.3202 47.7189C78.1946 47.5052 78.1462 47.5114 78.0084 47.3075" stroke="white" stroke-width="0.729995" stroke-linecap="round" stroke-linejoin="round"/>
<path opacity="0.54" d="M84.7851 66.2824C80.5064 73.8997 71.8236 78.8806 62.6445 77.616C50.6627 75.9653 42.4569 66.3606 43.9883 52.5706C44.2636 50.5724 44.8004 48.6744 45.5593 46.9065C44.2529 49.2324 43.3524 51.8378 42.9662 54.6405C41.3155 66.6223 49.6905 77.6736 61.6723 79.3243C71.6558 80.6997 80.9933 75.1147 84.7851 66.2824Z" fill="#BE7F0E"/>
<path d="M48.6399 31.7135C48.907 31.9571 49.163 31.9461 49.4081 31.6803M49.9531 32.4223C50.2201 32.6659 50.4762 32.6549 50.7212 32.3891M47.9597 33.7841C48.2268 34.0277 48.4828 34.0166 48.7278 33.7509M57.0892 31.3489C57.3562 31.5926 57.6122 31.5815 57.8573 31.3158M55.9079 33.6963C56.1749 33.9399 56.4309 33.9289 56.676 33.6632M54.1046 33.5189C54.3716 33.7626 54.6277 33.7515 54.8727 33.4858M53.1574 35.3459C53.4244 35.5895 53.6805 35.5785 53.9255 35.3128M59.2583 34.0621C59.5253 34.3057 59.7814 34.2946 60.0264 34.0289M51.6668 29.9975C51.9338 30.2412 52.1899 30.2301 52.4349 29.9644M45.3907 30.2835C45.6577 30.5272 45.9137 30.5161 46.1588 30.2504" stroke="#E8870D" stroke-width="0.182499" stroke-linecap="round" stroke-linejoin="round"/>
</svg>
