<svg width="96" height="96" viewBox="0 0 96 96" fill="none" xmlns="http://www.w3.org/2000/svg">
<rect width="96" height="96" fill="#F2CEEC"/>
<ellipse cx="48" cy="60" rx="40" ry="17" fill="#DEADD6"/>
<path d="M47.1978 60.3879C35.6123 63.6981 20.2615 60.3879 15.4439 48.1728C15.4439 46.2487 10.9548 27.329 35.9677 22.5189C52.6426 19.3123 68.3621 26.3967 69.3175 33.4217C70.4851 42.0076 60.6658 56.5399 47.1978 60.3879Z" fill="#EB3E81"/>
<path d="M39.5804 53.1818C39.2679 51.4497 37.4676 49.9854 38.489 47.1189C39.5104 44.2523 51.2866 45.1154 50.7194 46.7054C49.6965 49.5722 39.8929 54.9138 39.5804 53.1818Z" fill="#9CBC20"/>
<path d="M25.3926 30.8857C23.4689 29.6025 23.4686 28.9621 24.1096 27.038C24.7506 25.1138 31.8058 22.5484 36.2954 21.9069C34.371 23.19 27.3163 32.1688 25.3926 30.8857Z" fill="#9CBC20"/>
<path d="M29.8822 37.9407C29.882 36.658 29.4549 34.0928 29.8825 32.8102C30.3101 31.5277 38.2192 32.8101 40.7844 33.4515L40.7844 36.6582C37.8985 39.6609 29.8823 39.2233 29.8822 37.9407Z" fill="#9CBC20"/>
<path d="M60.6702 37.5806C60.4265 36.3213 59.5202 33.8838 59.6966 32.5434C59.873 31.203 68.2913 31.0244 70.9316 31.1672C71.0534 31.7969 70.6554 33.0562 70.8988 34.3156C68.6354 37.8116 60.9138 38.8399 60.6702 37.5806Z" fill="#9CBC20"/>
<path d="M46.5565 25.114C46.3809 24.4725 45.4519 22.9395 47.1977 21.9073C48.9435 20.8752 67.0795 21.2658 69.6448 25.1141C69.6449 26.3967 46.7321 25.7556 46.5565 25.114Z" fill="#9CBC20"/>
<path d="M64.5145 30.8162C63.2319 30.8163 63.2319 28.2508 63.8731 26.9682C66.4385 26.968 72.2103 25.7551 77.3409 28.3208C77.3409 29.6034 65.7972 30.8161 64.5145 30.8162Z" fill="#9CBC20"/>
<path d="M64.8163 43.5274C63.5337 43.5275 63.5338 40.962 64.175 39.6794C64.8163 39.0382 77.0022 35.1903 85.9809 26.8528C85.9808 33.2663 66.099 43.5273 64.8163 43.5274Z" fill="#9CBC20"/>
<path d="M23.8318 51.2884C23.0807 50.6983 22.1425 48.6904 22.6038 46.6962C23.065 44.7019 29.6794 45.6649 29.8011 46.6808C30.0411 48.6856 24.5829 51.8785 23.8318 51.2884Z" fill="#9CBC20"/>
<path d="M16.136 50.0058C15.3849 49.4157 14.4467 47.4078 14.908 45.4135C15.3692 43.4192 15.6505 43.9798 15.7721 44.9956C16.0122 47.0005 16.887 50.5959 16.136 50.0058Z" fill="#9CBC20"/>
<path opacity="0.4" fill-rule="evenodd" clip-rule="evenodd" d="M45.3345 60.8563C45.9647 60.7188 46.5865 60.5626 47.1978 60.3879C56.5935 57.7034 64.2134 49.8189 67.566 42.3812C69.7233 41.3148 72.8399 39.5911 75.8975 37.5833C75.1951 36.767 74.4253 36.0102 73.5967 35.3217C71.9836 36.1598 70.4754 36.8706 69.1584 37.4617C69.2599 36.9158 69.3316 36.3805 69.3722 35.8587C69.9927 35.4123 70.5216 34.8982 70.8988 34.3156C70.839 34.0064 70.8179 33.6972 70.8183 33.3974C68.0131 31.7992 64.7669 30.8861 61.3074 30.8861C50.6813 30.8861 42.0671 39.5003 42.0671 50.1264C42.0671 54.0993 43.2713 57.7909 45.3345 60.8563Z" fill="#CD2C6B"/>
<path opacity="0.4" fill-rule="evenodd" clip-rule="evenodd" d="M16.6753 50.7298H45.9152L47.8392 52.0125L47.8384 52.0125C47.8384 54.9335 47.1918 58.0393 45.7231 60.7689C35.2201 63.2023 22.2406 60.3827 16.6753 50.7298Z" fill="#CD2C6B"/>
<path d="M76.0582 71.2907C72.21 71.2906 80.5479 61.0291 82.4718 61.6705C84.3957 62.3119 85.2284 67.8726 88.5653 68.7129C88.5653 69.9956 87.797 72.6689 87.2823 73.8438C83.4342 75.1265 79.9065 71.2907 76.0582 71.2907Z" fill="#9CBC20"/>
<path d="M57.2114 70.6493C64.2655 76.4214 74.5262 70.008 79.0164 71.932C84.3026 66.6458 83.7544 66.8013 83.1131 50.7677C83.1131 44.9957 82.8647 43.0716 77.0926 39.8649C63.4106 44.9957 45.9732 61.4536 57.2114 70.6493Z" fill="#EB3E81"/>
<path d="M81.8304 51.4091C81.8304 60.2584 75.8561 67.7123 67.7209 69.9577C66.4382 70.6493 66.4382 71.932 62.5901 71.932C58.7421 71.932 58.1007 70.6493 56.818 69.7685C49.0121 67.3168 43.3499 60.0242 43.3499 51.4091C43.3499 40.783 51.964 32.1688 62.5901 32.1688C73.2162 32.1688 81.8304 40.783 81.8304 51.4091Z" fill="#FE5496"/>
<circle cx="62.59" cy="51.4091" r="17.9576" fill="#F6FCFC"/>
<path fill-rule="evenodd" clip-rule="evenodd" d="M63.1533 36.5665C63.0838 36.5003 63.0194 36.5037 62.9535 36.5071C62.8842 36.5108 62.8132 36.5145 62.7325 36.4377C62.7325 36.4377 62.6507 36.2382 62.7256 36.1594C62.8006 36.0807 63.0039 36.1526 63.0039 36.1526C63.1477 36.2895 63.1477 36.2895 63.1518 36.5006L63.1533 36.5665ZM71.7464 39.1998C71.7877 39.1132 71.7644 39.0531 71.7407 38.9915C71.7157 38.9268 71.69 38.8604 71.7379 38.7598C71.7379 38.7598 71.902 38.62 72.0002 38.6667C72.0983 38.7134 72.0933 38.929 72.0933 38.929C72.0079 39.1083 72.0079 39.1083 71.8086 39.1779L71.7464 39.1998ZM77.3176 47.875C77.2237 47.8553 77.1707 47.8919 77.1164 47.9295C77.0594 47.969 77.0009 48.0095 76.8919 47.9866C76.8919 47.9866 76.7175 47.8599 76.7398 47.7535C76.7622 47.6472 76.9729 47.6014 76.9729 47.6014C77.0675 47.6213 77.116 47.6315 77.1541 47.6572C77.1943 47.6843 77.2229 47.7286 77.2817 47.8197L77.3176 47.875ZM71.8001 58.3776C71.7062 58.3578 71.6532 58.3945 71.599 58.4321C71.5419 58.4716 71.4834 58.5121 71.3744 58.4892C71.3744 58.4892 71.2 58.3625 71.2223 58.2561C71.2447 58.1498 71.4554 58.104 71.4554 58.104C71.55 58.1239 71.5985 58.1341 71.6366 58.1598C71.6768 58.1869 71.7054 58.2312 71.7642 58.3222L71.8001 58.3776ZM67.827 57.6391C67.8813 57.6015 67.9342 57.5649 68.0281 57.5846L67.9923 57.5293C67.9335 57.4382 67.9049 57.3939 67.8647 57.3668C67.8266 57.3411 67.778 57.3309 67.6834 57.311C67.6834 57.311 67.4727 57.3568 67.4504 57.4631C67.428 57.5695 67.6025 57.6962 67.6025 57.6962C67.7115 57.7191 67.77 57.6786 67.827 57.6391ZM72.1871 61.9846C72.0932 61.9648 72.0403 62.0015 71.986 62.0391C71.929 62.0786 71.8705 62.1191 71.7615 62.0962C71.7615 62.0962 71.587 61.9695 71.6094 61.8631C71.6318 61.7568 71.8425 61.711 71.8425 61.711C71.937 61.7309 71.9856 61.7411 72.0237 61.7668C72.0639 61.7939 72.0925 61.8382 72.1513 61.9292L72.1871 61.9846ZM53.9021 53.7272C53.9563 53.6897 54.0093 53.653 54.1032 53.6727L54.0673 53.6174C54.0086 53.5263 53.98 53.482 53.9398 53.4549C53.9016 53.4292 53.8531 53.419 53.7585 53.3992C53.7585 53.3992 53.5478 53.4449 53.5255 53.5512C53.5031 53.6576 53.6775 53.7843 53.6775 53.7843C53.7865 53.8072 53.845 53.7667 53.9021 53.7272ZM51.664 54.2885C51.5701 54.2688 51.5172 54.3055 51.4629 54.3431C51.4059 54.3826 51.3474 54.4231 51.2384 54.4001C51.2384 54.4001 51.0639 54.2734 51.0863 54.1671C51.1086 54.0607 51.3194 54.015 51.3194 54.015C51.4139 54.0349 51.4625 54.0451 51.5006 54.0707C51.5408 54.0978 51.5694 54.1422 51.6282 54.2332L51.664 54.2885ZM50.1802 53.0604C50.2345 53.0228 50.2875 52.9861 50.3814 53.0059L50.3455 52.9505C50.2867 52.8595 50.2581 52.8152 50.2179 52.7881C50.1798 52.7624 50.1312 52.7522 50.0367 52.7323C50.0367 52.7323 49.826 52.778 49.8036 52.8844C49.7812 52.9907 49.9557 53.1175 49.9557 53.1175C50.0647 53.1404 50.1232 53.0999 50.1802 53.0604ZM67.2832 48.3058C67.2137 48.2397 67.1493 48.243 67.0834 48.2465C67.0141 48.2501 66.9431 48.2538 66.8624 48.177C66.8624 48.177 66.7806 47.9775 66.8555 47.8988C66.9305 47.82 67.1338 47.8919 67.1338 47.8919C67.2038 47.9585 67.2397 47.9927 67.2586 48.0346C67.2786 48.0788 67.2796 48.1315 67.2817 48.2399L67.2832 48.3058ZM70.5428 47.726C70.5666 47.7876 70.5898 47.8477 70.5486 47.9343L70.6108 47.9125C70.8101 47.8428 70.8101 47.8428 70.8955 47.6635C70.8955 47.6635 70.9005 47.448 70.8024 47.4013C70.7042 47.3545 70.5401 47.4944 70.5401 47.4944C70.4922 47.5949 70.5178 47.6613 70.5428 47.726ZM73.023 44.1222C73.0468 44.1837 73.07 44.2438 73.0288 44.3305L73.091 44.3086C73.2903 44.239 73.2903 44.239 73.3756 44.0597C73.3756 44.0597 73.3807 43.8441 73.2825 43.7974C73.1844 43.7507 73.0203 43.8905 73.0203 43.8905C72.9724 43.9911 72.998 44.0574 73.023 44.1222ZM65.8932 47.0648C65.9345 46.9782 65.9113 46.9181 65.8875 46.8565C65.8625 46.7918 65.8368 46.7254 65.8847 46.6249C65.8847 46.6249 66.0488 46.4851 66.147 46.5318C66.2451 46.5785 66.2401 46.794 66.2401 46.794C66.1547 46.9733 66.1547 46.9733 65.9554 47.043L65.8932 47.0648ZM59.2877 46.1838C59.3527 46.1953 59.4161 46.2065 59.4689 46.2866L59.4824 46.2221C59.5047 46.116 59.5156 46.0644 59.5061 46.0169C59.4972 45.9718 59.4699 45.9304 59.4167 45.8497L59.4167 45.8497C59.4167 45.8497 59.2349 45.7338 59.1441 45.7936C59.0533 45.8534 59.088 46.0662 59.088 46.0662C59.1493 46.1592 59.2194 46.1717 59.2877 46.1838ZM61.7966 41.7489C61.7438 41.6687 61.6804 41.6575 61.6154 41.646C61.547 41.6339 61.477 41.6215 61.4157 41.5284C61.4157 41.5284 61.381 41.3156 61.4718 41.2558C61.5625 41.196 61.7444 41.3119 61.7444 41.3119C61.7975 41.3926 61.8248 41.434 61.8338 41.4791C61.8433 41.5267 61.8324 41.5783 61.8101 41.6843L61.7966 41.7489ZM55.2015 44.2113C55.2665 44.2229 55.3299 44.2341 55.3827 44.3142L55.3962 44.2497C55.4185 44.1436 55.4294 44.092 55.4199 44.0445C55.4109 43.9994 55.3837 43.958 55.3305 43.8773L55.3305 43.8773C55.3305 43.8773 55.1486 43.7614 55.0579 43.8212C54.9671 43.881 55.0018 44.0938 55.0018 44.0938C55.0631 44.1868 55.1331 44.1992 55.2015 44.2113ZM59.3244 49.1803C59.2289 49.1901 59.1896 49.2411 59.1494 49.2934C59.107 49.3484 59.0636 49.4048 58.9528 49.4161C58.9528 49.4161 58.7481 49.3484 58.737 49.2403C58.726 49.1322 58.9128 49.0245 58.9128 49.0245L58.9128 49.0245L58.9128 49.0245C59.009 49.0147 59.0583 49.0097 59.1024 49.0225C59.149 49.0361 59.1897 49.0696 59.2734 49.1385L59.2734 49.1385L59.3244 49.1803ZM63.0849 48.9373C63.1508 48.9339 63.2151 48.9305 63.2846 48.9967L63.2832 48.9308L63.2832 48.9307C63.2811 48.8224 63.28 48.7697 63.2601 48.7255C63.2412 48.6836 63.2052 48.6494 63.1352 48.5828C63.1352 48.5828 62.932 48.5109 62.857 48.5896C62.7821 48.6683 62.8639 48.8678 62.8639 48.8678C62.9445 48.9446 63.0156 48.9409 63.0849 48.9373ZM55.4573 40.4145C55.3878 40.3483 55.3235 40.3517 55.2576 40.3551C55.1883 40.3587 55.1172 40.3625 55.0365 40.2857C55.0365 40.2857 54.9548 40.0862 55.0297 40.0074C55.1046 39.9287 55.3079 40.0006 55.3079 40.0006C55.3779 40.0672 55.4138 40.1014 55.4328 40.1433C55.4527 40.1875 55.4538 40.2402 55.4559 40.3486L55.4573 40.4145ZM60.3878 39.0725C60.4538 39.0691 60.5181 39.0657 60.5876 39.1319L60.5862 39.0659C60.582 38.8549 60.582 38.8549 60.4382 38.718C60.4382 38.718 60.2349 38.6461 60.16 38.7248C60.085 38.8035 60.1668 39.003 60.1668 39.003C60.2475 39.0798 60.3185 39.0761 60.3878 39.0725ZM67.5717 50.671C67.5661 50.7368 67.5607 50.8009 67.4857 50.8608L67.5512 50.8684C67.6589 50.881 67.7113 50.8871 67.7578 50.8733C67.8018 50.8603 67.8406 50.8293 67.9161 50.769C67.9161 50.769 68.0149 50.5774 67.9471 50.4924C67.8793 50.4075 67.6705 50.4614 67.6705 50.4614C67.5835 50.5309 67.5775 50.6018 67.5717 50.671ZM71.6914 51.9312C71.7664 51.8713 71.7718 51.8071 71.7773 51.7413C71.7832 51.6722 71.7891 51.6013 71.8762 51.5318C71.8762 51.5318 72.0849 51.4779 72.1528 51.5628C72.2206 51.6477 72.1218 51.8394 72.1218 51.8394C72.0463 51.8997 72.0075 51.9306 71.9634 51.9437C71.917 51.9575 71.8646 51.9513 71.7569 51.9387L71.6914 51.9312ZM62.7982 53.024C62.7927 53.0898 62.7873 53.154 62.7123 53.2139L62.7778 53.2214C62.8855 53.234 62.9379 53.2402 62.9843 53.2264C63.0284 53.2133 63.0672 53.1824 63.1427 53.1221L63.1427 53.1221L63.1427 53.1221C63.1427 53.1221 63.2415 52.9304 63.1737 52.8455C63.1058 52.7605 62.8971 52.8145 62.8971 52.8145C62.81 52.884 62.8041 52.9549 62.7982 53.024ZM74.2568 49.3658C74.3318 49.3059 74.3372 49.2418 74.3427 49.176C74.3485 49.1068 74.3545 49.0359 74.4416 48.9664C74.4416 48.9664 74.6503 48.9125 74.7181 48.9974C74.786 49.0824 74.6872 49.274 74.6872 49.274C74.6116 49.3343 74.5729 49.3653 74.5288 49.3783C74.4823 49.3921 74.4299 49.386 74.3223 49.3734L74.2568 49.3658ZM65.9776 59.7723C65.9116 59.7721 65.8472 59.7719 65.7814 59.702L65.7792 59.768C65.7754 59.8763 65.7736 59.929 65.7911 59.9742C65.8077 60.017 65.8417 60.0532 65.9079 60.1235C65.9079 60.1235 66.107 60.2064 66.1861 60.1319C66.2653 60.0574 66.1945 59.8537 66.1945 59.8537C66.1182 59.7726 66.047 59.7724 65.9776 59.7723ZM67.8639 64.3707C67.9297 64.4406 67.9941 64.4408 68.0601 64.4409C68.1295 64.4411 68.2007 64.4413 68.277 64.5224C68.277 64.5224 68.3477 64.7261 68.2686 64.8006C68.1895 64.8751 67.9904 64.7922 67.9904 64.7922C67.9242 64.7218 67.8902 64.6857 67.8736 64.6429C67.8561 64.5976 67.8579 64.5449 67.8617 64.4366L67.8639 64.3707ZM50.1022 43.918C50.0362 43.9178 49.9718 43.9176 49.906 43.8478L49.9038 43.9137C49.9 44.022 49.8982 44.0747 49.9157 44.1199C49.9323 44.1627 49.9663 44.1989 50.0325 44.2692L50.0325 44.2692C50.0325 44.2692 50.2316 44.3521 50.3107 44.2776C50.3898 44.2031 50.3191 43.9994 50.3191 43.9994C50.2428 43.9183 50.1716 43.9181 50.1022 43.918ZM56.781 48.7434C56.6911 48.7098 56.6332 48.7381 56.5739 48.7671C56.5116 48.7976 56.4477 48.8288 56.3434 48.7898C56.3434 48.7898 56.1899 48.6383 56.228 48.5365C56.2661 48.4347 56.4813 48.4212 56.4813 48.4212C56.6673 48.4908 56.6673 48.4908 56.7538 48.6833L56.781 48.7434ZM52.6444 48.7033C52.6727 48.6437 52.7003 48.5855 52.7916 48.5558L52.7329 48.5257C52.5452 48.429 52.5452 48.429 52.3564 48.4905C52.3564 48.4905 52.1965 48.6352 52.2302 48.7386C52.2639 48.8419 52.4783 48.8648 52.4783 48.8648C52.5842 48.8303 52.6147 48.766 52.6444 48.7033ZM54.5531 57.3513C54.4618 57.381 54.4342 57.4392 54.4059 57.4988C54.3762 57.5615 54.3457 57.6258 54.2397 57.6603C54.2397 57.6603 54.0253 57.6374 53.9917 57.5341C53.958 57.4307 54.1179 57.286 54.1179 57.286C54.2098 57.2561 54.257 57.2407 54.3028 57.244C54.3512 57.2474 54.3981 57.2716 54.4944 57.3212L54.5531 57.3513ZM50.2378 56.8744C50.2661 56.8148 50.2937 56.7566 50.385 56.7269L50.3263 56.6968C50.1386 56.6001 50.1386 56.6001 49.9498 56.6616C49.9498 56.6616 49.7899 56.8063 49.8236 56.9096C49.8573 57.013 50.0717 57.0358 50.0717 57.0358C50.1776 57.0014 50.2081 56.9371 50.2378 56.8744ZM54.6154 50.9205C54.5242 50.9503 54.4965 51.0084 54.4682 51.0681C54.4385 51.1308 54.408 51.195 54.3021 51.2295C54.3021 51.2295 54.0877 51.2067 54.054 51.1033C54.0204 51 54.1802 50.8553 54.1802 50.8553C54.2721 50.8254 54.3193 50.81 54.3651 50.8133C54.4135 50.8167 54.4604 50.8408 54.5567 50.8905L54.6154 50.9205ZM48.9554 49.1783C48.9838 49.1187 49.0114 49.0605 49.1026 49.0308L49.0439 49.0007C48.8562 48.9041 48.8562 48.9041 48.6674 48.9655C48.6674 48.9655 48.5076 49.1102 48.5412 49.2136C48.5749 49.3169 48.7893 49.3398 48.7893 49.3398C48.8952 49.3053 48.9257 49.241 48.9554 49.1783ZM60.4563 62.0611C60.4218 62.1506 60.4495 62.2087 60.4779 62.2683C60.5078 62.3309 60.5384 62.3952 60.4983 62.4991C60.4983 62.4991 60.3454 62.651 60.2439 62.6119C60.1425 62.5729 60.1311 62.3576 60.1311 62.3576C60.1658 62.2674 60.1837 62.2211 60.2151 62.1876C60.2483 62.1522 60.2966 62.1311 60.3959 62.0876L60.4563 62.0611ZM66.8553 65.7965C66.8269 65.7369 66.7992 65.6788 66.8337 65.5892L66.7733 65.6158C66.674 65.6592 66.6257 65.6804 66.5925 65.7157C66.5611 65.7493 66.5432 65.7955 66.5085 65.8857C66.5085 65.8857 66.5199 66.101 66.6214 66.1401C66.7228 66.1792 66.8758 66.0273 66.8758 66.0273C66.9158 65.9233 66.8852 65.8591 66.8553 65.7965ZM57.483 59.0288C57.4485 59.1183 57.4762 59.1764 57.5046 59.236C57.5345 59.2986 57.5652 59.3629 57.5251 59.4668C57.5251 59.4668 57.3721 59.6187 57.2707 59.5796C57.1693 59.5406 57.1578 59.3252 57.1578 59.3252C57.1926 59.2351 57.2104 59.1888 57.2419 59.1553C57.275 59.1199 57.3234 59.0988 57.4226 59.0553L57.483 59.0288ZM55.3113 63.2312C55.2829 63.1717 55.2552 63.1135 55.2897 63.024L55.2293 63.0505C55.13 63.094 55.0817 63.1151 55.0485 63.1505C55.0171 63.184 54.9992 63.2303 54.9645 63.3205C54.9645 63.3205 54.9759 63.5358 55.0774 63.5749C55.1788 63.614 55.3318 63.462 55.3318 63.462C55.3718 63.3581 55.3412 63.2939 55.3113 63.2312ZM59.6939 58.2892C59.6594 58.3787 59.6871 58.4369 59.7155 58.4965C59.7454 58.5591 59.776 58.6233 59.736 58.7272C59.736 58.7272 59.583 58.8792 59.4816 58.8401C59.3802 58.801 59.3687 58.5857 59.3687 58.5857C59.4035 58.4955 59.4213 58.4492 59.4528 58.4157C59.4859 58.3804 59.5342 58.3592 59.6335 58.3158L59.6939 58.2892ZM60.973 58.7609C60.9446 58.7013 60.9169 58.6432 60.9514 58.5536L60.891 58.5802C60.7917 58.6236 60.7434 58.6448 60.7102 58.6801C60.6788 58.7136 60.6609 58.7599 60.6262 58.8501C60.6262 58.8501 60.6376 59.0654 60.739 59.1045C60.8405 59.1436 60.9934 58.9917 60.9934 58.9917C61.0335 58.8877 61.0029 58.8235 60.973 58.7609ZM66.8335 42.501C66.799 42.5906 66.8267 42.6487 66.8552 42.7083C66.885 42.7709 66.9157 42.8351 66.8756 42.9391C66.8756 42.9391 66.7226 43.091 66.6212 43.0519C66.5198 43.0128 66.5083 42.7975 66.5083 42.7975C66.5797 42.6122 66.5797 42.6122 66.7732 42.5276L66.8335 42.501ZM72.0943 52.631C72.0283 52.6328 71.964 52.6346 71.8961 52.5667L71.8959 52.6327C71.8949 52.8438 71.8949 52.8438 72.0353 52.9842C72.0353 52.9842 72.2367 53.0611 72.3136 52.9842C72.3904 52.9074 72.3136 52.7059 72.3136 52.7059C72.2348 52.6271 72.1637 52.6291 72.0943 52.631ZM65.2942 55.3962C65.362 55.4641 65.4264 55.4623 65.4924 55.4605C65.5617 55.4586 65.6329 55.4566 65.7116 55.5354C65.7116 55.5354 65.7885 55.7368 65.7116 55.8137C65.6348 55.8906 65.4333 55.8137 65.4333 55.8137C65.365 55.7454 65.3299 55.7103 65.312 55.668C65.2932 55.6233 65.2934 55.5705 65.294 55.4622L65.2942 55.3962ZM70.4568 54.6939C70.3909 54.6957 70.3265 54.6975 70.2586 54.6297L70.2584 54.6956C70.2579 54.804 70.2576 54.8567 70.2765 54.9014C70.2944 54.9437 70.3294 54.9788 70.3978 55.0471C70.3978 55.0471 70.5992 55.124 70.6761 55.0471C70.7529 54.9703 70.6761 54.7688 70.6761 54.7688C70.5973 54.69 70.5262 54.692 70.4568 54.6939ZM78.121 51.5482C78.1889 51.616 78.2533 51.6143 78.3192 51.6124C78.3886 51.6105 78.4597 51.6086 78.5385 51.6873C78.5385 51.6873 78.6153 51.8888 78.5385 51.9656C78.4616 52.0425 78.2602 51.9657 78.2602 51.9657C78.1198 51.8252 78.1198 51.8252 78.1208 51.6141L78.121 51.5482ZM67.3985 58.823C67.3522 58.8701 67.307 58.916 67.2111 58.9141L67.2566 58.9618C67.4022 59.1147 67.4022 59.1147 67.6007 59.1186C67.6007 59.1186 67.7992 59.0344 67.8013 58.9258C67.8035 58.8171 67.6085 58.7251 67.6085 58.7251C67.4971 58.7229 67.4472 58.7736 67.3985 58.823ZM72.8554 60.5846C72.9513 60.5865 72.9965 60.5406 73.0428 60.4936C73.0915 60.4441 73.1414 60.3934 73.2528 60.3956C73.2528 60.3956 73.4478 60.4876 73.4457 60.5963C73.4435 60.705 73.245 60.7892 73.245 60.7892C73.0465 60.7852 73.0465 60.7852 72.9009 60.6323L72.8554 60.5846ZM78.1733 56.6455C78.1269 56.6925 78.0817 56.7384 77.9858 56.7365L78.0314 56.7842C78.1769 56.9371 78.1769 56.9371 78.3754 56.9411C78.3754 56.9411 78.5739 56.8569 78.5761 56.7482C78.5782 56.6395 78.3832 56.5475 78.3832 56.5475C78.2719 56.5453 78.2219 56.596 78.1733 56.6455ZM62.9969 60.4327C63.0647 60.5006 63.1291 60.4988 63.1951 60.497C63.2644 60.4951 63.3356 60.4931 63.4143 60.5719C63.4143 60.5719 63.4912 60.7733 63.4143 60.8502C63.3375 60.927 63.136 60.8502 63.136 60.8502C63.0677 60.7818 63.0326 60.7468 63.0147 60.7044C62.9959 60.6598 62.9961 60.607 62.9967 60.4987L62.9969 60.4327ZM60.3617 65.722C60.2957 65.7238 60.2313 65.7256 60.1634 65.6577L60.1632 65.7237C60.1627 65.832 60.1624 65.8848 60.1813 65.9294C60.1992 65.9718 60.2343 66.0069 60.3026 66.0752C60.3026 66.0752 60.504 66.1521 60.5809 66.0752C60.6577 65.9983 60.5809 65.7969 60.5809 65.7969C60.5021 65.7181 60.431 65.7201 60.3617 65.722ZM67.1792 49.9365C67.2471 50.0044 67.3114 50.0026 67.3774 50.0008C67.4468 49.9989 67.5179 49.9969 67.5967 50.0757C67.5967 50.0757 67.6735 50.2772 67.5967 50.354C67.5198 50.4309 67.3184 50.354 67.3184 50.354C67.1779 50.2136 67.1779 50.2136 67.179 50.0025L67.1792 49.9365ZM56.1599 53.053C56.1887 52.9936 56.2167 52.9356 56.3081 52.9065C56.1708 52.8355 56.1158 52.802 56.0586 52.7975C56.0127 52.7939 55.9655 52.809 55.8734 52.8383C55.8734 52.8383 55.7126 52.9819 55.7455 53.0854C55.7784 53.189 55.9927 53.2133 55.9927 53.2133C56.0988 53.1796 56.1298 53.1155 56.1599 53.053Z" fill="#36491D"/>
<path opacity="0.3" fill-rule="evenodd" clip-rule="evenodd" d="M43.4391 49.5444C43.38 50.158 43.3499 50.78 43.3499 51.4091C43.3499 59.7083 48.6045 66.7803 55.9684 69.4795C56.3357 69.8809 56.7493 70.2712 57.2114 70.6493C61.552 74.2011 67.1069 73.1389 71.7842 72.2445C74.7081 71.6854 77.2891 71.1919 79.0163 71.932L79.0287 71.9196C79.6565 72.1548 80.28 72.4324 80.9022 72.7094C83.0039 73.645 85.0912 74.5742 87.2823 73.8438C87.797 72.6689 88.5653 69.9956 88.5653 68.7129C88.5539 68.71 88.5425 68.7071 88.5312 68.7041C88.0796 69.3731 87.6212 69.8828 87.2823 69.9958C85.0912 70.7261 83.0039 69.7969 80.9022 68.8613C80.28 68.5843 79.6566 68.3068 79.0287 68.0716L79.0164 68.084C77.2892 67.3439 74.7082 67.8374 71.7843 68.3965C67.1069 69.2909 62.1967 69.3666 57.4594 67.4426C51.092 65.6312 44.2906 58.9413 43.4391 49.5444Z" fill="#CE2768"/>
<path opacity="0.4" fill-rule="evenodd" clip-rule="evenodd" d="M46.6347 62.1652C48.3255 59.3066 49.1216 56.1534 49.1216 53.2952H49.1217L47.1977 52.0125H45.915L47.839 53.2952H43.4409C43.7585 56.5597 44.892 59.5852 46.6347 62.1652Z" fill="#CD2C6B"/>
<path d="M10 52.0125L10.0001 53.2952C10.6413 69.3288 23.4682 71.932 29.2404 71.2528C25.2773 70.7574 14.1016 66.5961 13.2067 53.2952C13.1748 52.8204 11.2827 52.6539 10 52.0125Z" fill="#EB3E81"/>
<path d="M12.5654 53.2952L11.2827 52.0125H10L11.2827 53.2952H12.5654Z" fill="#F54288"/>
<path d="M47.8391 53.2952H11.2827C11.2827 57.1926 14.4894 71.7836 29.8817 71.2528C43.3498 70.7884 47.8391 60.9913 47.8391 53.2952Z" fill="#FE5496"/>
<path d="M46.5558 53.2952H12.6399C12.6399 57.1926 15.1235 69.9701 29.8811 69.9701C42.0671 69.9701 46.5558 60.9913 46.5558 53.2952Z" fill="#F6FCFC"/>
<path d="M44.6325 52.0125H11.2827L12.5654 53.2952H46.5565L44.6325 52.0125Z" fill="#ECFAFA"/>
<path fill-rule="evenodd" clip-rule="evenodd" d="M42.2082 54.9136C42.2278 54.9641 42.2468 55.0134 42.213 55.0845L42.264 55.0666C42.3479 55.0372 42.3888 55.023 42.4181 54.9961C42.446 54.9707 42.4635 54.9339 42.4975 54.8624L42.4975 54.8623L42.4975 54.8623L42.4975 54.8623C42.4975 54.8623 42.5017 54.6855 42.4212 54.6472C42.3406 54.6088 42.206 54.7235 42.206 54.7235C42.1667 54.806 42.1877 54.8605 42.2082 54.9136ZM31.7221 53.1874C31.7416 53.2379 31.7606 53.2872 31.7268 53.3583L31.7778 53.3404C31.8618 53.311 31.9026 53.2968 31.932 53.2699C31.9598 53.2445 31.9773 53.2077 32.0114 53.1361C32.0114 53.1361 32.0155 52.9593 31.935 52.9209C31.8545 52.8826 31.7198 52.9973 31.7198 52.9973C31.6805 53.0798 31.7016 53.1343 31.7221 53.1874ZM29.048 53.663C28.9909 53.6087 28.9382 53.6115 28.8841 53.6143C28.8272 53.6172 28.7689 53.6203 28.7028 53.5573C28.7028 53.5573 28.6357 53.3936 28.6971 53.329C28.7586 53.2644 28.9254 53.3234 28.9254 53.3234C29.0434 53.4357 29.0434 53.4357 29.0468 53.6089L29.048 53.663ZM38.7263 57.4009C38.6492 57.3847 38.6058 57.4147 38.5613 57.4456C38.5145 57.478 38.4665 57.5112 38.377 57.4924C38.377 57.4924 38.2339 57.3885 38.2523 57.3012C38.2706 57.2139 38.4435 57.1764 38.4435 57.1764C38.5211 57.1927 38.5609 57.2011 38.5922 57.2222C38.6252 57.2444 38.6486 57.2808 38.6968 57.3555L38.7263 57.4009ZM32.7538 61.9262C32.6767 61.91 32.6333 61.9401 32.5888 61.9709C32.542 62.0033 32.494 62.0366 32.4045 62.0177C32.4045 62.0177 32.2614 61.9138 32.2798 61.8265C32.2981 61.7393 32.471 61.7017 32.471 61.7017C32.5486 61.7181 32.5884 61.7264 32.6197 61.7475C32.6527 61.7697 32.6761 61.8061 32.7243 61.8808L32.7538 61.9262ZM29.494 61.3203C29.5385 61.2894 29.582 61.2594 29.659 61.2755L29.6296 61.2301C29.5814 61.1554 29.5579 61.1191 29.5249 61.0969C29.4936 61.0758 29.4538 61.0674 29.3762 61.0511C29.3762 61.0511 29.2033 61.0886 29.185 61.1759C29.1667 61.2631 29.3098 61.3671 29.3098 61.3671C29.3992 61.3859 29.4472 61.3527 29.494 61.3203ZM33.0715 64.8853C32.9944 64.8691 32.951 64.8992 32.9065 64.9301C32.8597 64.9625 32.8117 64.9957 32.7222 64.9769C32.7222 64.9769 32.5791 64.8729 32.5975 64.7857C32.6158 64.6984 32.7887 64.6609 32.7887 64.6609C32.8663 64.6772 32.9061 64.6856 32.9374 64.7066C32.9704 64.7289 32.9938 64.7652 33.042 64.8399L33.0715 64.8853ZM18.0699 58.1109C18.1145 58.08 18.1579 58.05 18.2349 58.0662L18.2055 58.0208L18.2055 58.0208L18.2055 58.0207C18.1573 57.946 18.1338 57.9097 18.1008 57.8875C18.0696 57.8664 18.0297 57.858 17.9522 57.8417C17.9522 57.8417 17.7793 57.8792 17.7609 57.9665C17.7426 58.0538 17.8857 58.1577 17.8857 58.1577C17.9751 58.1765 18.0231 58.1433 18.0699 58.1109ZM16.2337 58.5714C16.1567 58.5552 16.1132 58.5853 16.0687 58.6161C16.0219 58.6485 15.9739 58.6818 15.8845 58.663C15.8845 58.663 15.7414 58.559 15.7597 58.4717C15.7781 58.3845 15.9509 58.3469 15.9509 58.3469C16.0285 58.3633 16.0684 58.3716 16.0996 58.3927C16.1326 58.4149 16.1561 58.4513 16.2043 58.526L16.2337 58.5714ZM15.0165 57.5637C15.061 57.5328 15.1045 57.5027 15.1815 57.5189L15.1521 57.4735C15.1039 57.3988 15.0804 57.3625 15.0474 57.3403C15.0162 57.3192 14.9763 57.3108 14.8987 57.2945C14.8987 57.2945 14.7259 57.332 14.7075 57.4193C14.6892 57.5065 14.8323 57.6105 14.8323 57.6105C14.9217 57.6293 14.9697 57.5961 15.0165 57.5637ZM40.9303 61.4979C40.9641 61.4268 40.9451 61.3775 40.9256 61.327C40.9051 61.2739 40.884 61.2195 40.9233 61.137C40.9233 61.137 41.058 61.0222 41.1385 61.0606C41.219 61.0989 41.2149 61.2758 41.2149 61.2758C41.1808 61.3473 41.1633 61.3841 41.1355 61.4095C41.1061 61.4364 41.0653 61.4507 40.9813 61.48L40.9303 61.4979ZM27.9077 52.6449C27.9416 52.5738 27.9225 52.5245 27.903 52.474C27.8825 52.4209 27.8615 52.3665 27.9007 52.284C27.9007 52.284 28.0354 52.1692 28.1159 52.2076C28.1964 52.2459 28.1923 52.4228 28.1923 52.4228C28.1582 52.4943 28.1407 52.5311 28.1129 52.5565C28.0835 52.5834 28.0427 52.5977 27.9588 52.627L27.9077 52.6449ZM43.6024 58.8349C43.6558 58.8443 43.7078 58.8535 43.7511 58.9193L43.7622 58.8663L43.7668 58.8443C43.7816 58.8518 43.7967 58.8623 43.812 58.8769L43.8108 58.8228C43.8074 58.6496 43.8074 58.6496 43.6894 58.5373C43.6894 58.5373 43.6637 58.5282 43.6287 58.521C43.5812 58.5025 43.523 58.4895 43.4846 58.5148C43.4708 58.5239 43.4605 58.5374 43.4529 58.5532C43.4401 58.5724 43.4354 58.5975 43.4352 58.6238C43.4294 58.6817 43.4386 58.7384 43.4386 58.7384C43.4889 58.8147 43.5464 58.8249 43.6024 58.8349ZM41.1859 57.6365C41.1426 57.5707 41.0905 57.5615 41.0372 57.5521C40.9812 57.5421 40.9237 57.532 40.8734 57.4556C40.8734 57.4556 40.845 57.2811 40.9194 57.232C40.9939 57.1829 41.1431 57.278 41.1431 57.278C41.2327 57.414 41.2327 57.414 41.197 57.5835L41.1859 57.6365ZM42.3197 65.2483C42.3731 65.2577 42.4251 65.2669 42.4684 65.3327L42.4795 65.2797C42.5152 65.1102 42.5152 65.1102 42.4256 64.9742C42.4256 64.9742 42.2764 64.8791 42.2019 64.9282C42.1275 64.9773 42.1559 65.1519 42.1559 65.1519C42.2062 65.2282 42.2637 65.2383 42.3197 65.2483ZM22.5181 54.3805C22.4398 54.3885 22.4076 54.4303 22.3746 54.4733C22.3398 54.5184 22.3042 54.5646 22.2133 54.5739C22.2133 54.5739 22.0454 54.5184 22.0363 54.4297C22.0272 54.341 22.1805 54.2527 22.1805 54.2527C22.2594 54.2446 22.2999 54.2405 22.3361 54.251C22.3742 54.2622 22.4077 54.2897 22.4763 54.3462L22.5181 54.3805ZM25.6035 54.1811C25.6576 54.1783 25.7103 54.1755 25.7673 54.2298L25.7662 54.1757C25.7628 54.0026 25.7628 54.0026 25.6448 53.8902C25.6448 53.8902 25.478 53.8313 25.4165 53.8959C25.355 53.9604 25.4221 54.1241 25.4221 54.1241C25.4883 54.1871 25.5466 54.1841 25.6035 54.1811ZM15.5931 52.4633C15.5361 52.4091 15.4833 52.4118 15.4292 52.4146C15.3724 52.4176 15.3141 52.4207 15.2479 52.3576C15.2479 52.3576 15.1808 52.194 15.2423 52.1294C15.3037 52.0648 15.4705 52.1238 15.4705 52.1238C15.5279 52.1784 15.5574 52.2065 15.573 52.2408C15.5893 52.2771 15.5902 52.3204 15.5919 52.4093L15.5931 52.4633ZM43.8121 64.0075C43.7551 63.9532 43.7024 63.956 43.6483 63.9588C43.5914 63.9618 43.5331 63.9648 43.4669 63.9018C43.4669 63.9018 43.3998 63.7381 43.4613 63.6735C43.5228 63.609 43.6896 63.6679 43.6896 63.6679C43.8076 63.7802 43.8076 63.7802 43.811 63.9534L43.8121 64.0075ZM29.2848 55.6035C29.2803 55.6574 29.2759 55.7101 29.2144 55.7592L29.2681 55.7654C29.3564 55.7758 29.3994 55.7808 29.4375 55.7695C29.4737 55.7588 29.5055 55.7334 29.5674 55.6839L29.5674 55.6839C29.5674 55.6839 29.6485 55.5267 29.5928 55.457C29.5372 55.3873 29.3659 55.4316 29.3659 55.4316C29.2945 55.4886 29.2896 55.5468 29.2848 55.6035ZM32.6645 56.6373C32.7261 56.5882 32.7305 56.5355 32.735 56.4815C32.7398 56.4248 32.7447 56.3666 32.8161 56.3096C32.8161 56.3096 32.9874 56.2654 33.043 56.335C33.0987 56.4047 33.0176 56.5619 33.0176 56.5619C32.9557 56.6114 32.9239 56.6368 32.8877 56.6475C32.8496 56.6588 32.8066 56.6538 32.7183 56.6435L32.6645 56.6373ZM25.3684 57.534C25.3638 57.588 25.3594 57.6406 25.2979 57.6897L25.3516 57.6959C25.4399 57.7063 25.4829 57.7113 25.521 57.7C25.5572 57.6893 25.589 57.6639 25.651 57.6144C25.651 57.6144 25.732 57.4572 25.6764 57.3875C25.6207 57.3178 25.4495 57.3621 25.4495 57.3621C25.378 57.4191 25.3731 57.4773 25.3684 57.534ZM34.7691 54.5327C34.8306 54.4836 34.835 54.4309 34.8396 54.3769C34.8444 54.3202 34.8493 54.262 34.9207 54.205C34.9207 54.205 35.092 54.1608 35.1476 54.2304C35.2032 54.3001 35.1222 54.4573 35.1222 54.4573C35.0602 54.5068 35.0284 54.5322 34.9923 54.5429C34.9541 54.5542 34.9112 54.5492 34.8228 54.5389L34.7691 54.5327ZM27.9769 63.0704C27.9228 63.0703 27.8699 63.0701 27.816 63.0128L27.8142 63.0669C27.811 63.1557 27.8095 63.199 27.8239 63.2361C27.8375 63.2712 27.8654 63.3009 27.9198 63.3586C27.9198 63.3586 28.0831 63.4266 28.148 63.3655C28.2129 63.3044 28.1549 63.1373 28.1549 63.1373C28.0922 63.0707 28.0339 63.0706 27.9769 63.0704ZM29.5245 66.843C29.5785 66.9004 29.6313 66.9005 29.6855 66.9006C29.7424 66.9008 29.8008 66.9009 29.8634 66.9675C29.8634 66.9675 29.9215 67.1346 29.8566 67.1957C29.7916 67.2568 29.6283 67.1888 29.6283 67.1888C29.574 67.1311 29.5461 67.1015 29.5325 67.0663C29.5181 67.0292 29.5196 66.986 29.5227 66.8971L29.5227 66.8971L29.5245 66.843ZM39.7802 65.0076C39.7261 65.0074 39.6732 65.0073 39.6193 64.95L39.6175 65.004L39.6175 65.0041C39.6143 65.0929 39.6128 65.1361 39.6272 65.1732C39.6408 65.2084 39.6687 65.238 39.7231 65.2958C39.7231 65.2958 39.8864 65.3638 39.9513 65.3026C40.0162 65.2415 39.9582 65.0744 39.9582 65.0744C39.8955 65.0079 39.8372 65.0077 39.7802 65.0076ZM20.432 54.022C20.3583 53.9945 20.3108 54.0177 20.2622 54.0415C20.211 54.0665 20.1586 54.0921 20.073 54.0601C20.073 54.0601 19.9471 53.9358 19.9784 53.8523C20.0096 53.7688 20.1862 53.7577 20.1862 53.7577C20.2604 53.7855 20.2985 53.7997 20.3263 53.8252C20.3556 53.8522 20.3733 53.8916 20.4098 53.9727L20.432 54.022ZM17.038 53.9891C17.0612 53.9402 17.0839 53.8924 17.1587 53.8681L17.1106 53.8434L17.1106 53.8434C17.0315 53.8027 16.9931 53.7829 16.9534 53.78C16.9158 53.7774 16.8771 53.79 16.8017 53.8145L16.8017 53.8145C16.8017 53.8145 16.6705 53.9332 16.6982 54.018C16.7258 54.1028 16.9017 54.1216 16.9017 54.1216C16.9886 54.0933 17.0136 54.0405 17.038 53.9891ZM18.6039 61.0842C18.5291 61.1085 18.5064 61.1563 18.4832 61.2052C18.4588 61.2566 18.4338 61.3094 18.3469 61.3377C18.3469 61.3377 18.171 61.3189 18.1434 61.2341C18.1158 61.1493 18.2469 61.0306 18.2469 61.0306L18.2469 61.0306C18.3223 61.0061 18.361 60.9935 18.3986 60.9962C18.4383 60.999 18.4768 61.0188 18.5558 61.0595L18.6039 61.0842ZM15.0637 60.6929C15.0869 60.6439 15.1096 60.5962 15.1844 60.5718L15.1363 60.5471C15.0573 60.5064 15.0188 60.4866 14.9791 60.4838C14.9415 60.4811 14.9028 60.4937 14.8274 60.5183L14.8274 60.5183C14.8274 60.5183 14.6963 60.637 14.7239 60.7218C14.7515 60.8066 14.9274 60.8253 14.9274 60.8253C15.0143 60.797 15.0393 60.7443 15.0637 60.6929ZM18.6548 55.8081C18.58 55.8325 18.5573 55.8802 18.5341 55.9292C18.5097 55.9806 18.4847 56.0333 18.3978 56.0616C18.3978 56.0616 18.2219 56.0429 18.1943 55.9581C18.1666 55.8733 18.2978 55.7546 18.2978 55.7546C18.3732 55.73 18.4119 55.7174 18.4495 55.7201C18.4892 55.7229 18.5276 55.7427 18.6067 55.7834L18.6067 55.7834L18.6067 55.7834L18.6067 55.7834L18.6548 55.8081ZM14.0113 54.3788C14.0346 54.3298 14.0572 54.2821 14.1321 54.2577L14.0839 54.233L14.0839 54.233C14.0049 54.1923 13.9664 54.1725 13.9267 54.1697C13.8891 54.167 13.8504 54.1796 13.775 54.2042L13.775 54.2042C13.775 54.2042 13.6439 54.3229 13.6715 54.4077C13.6991 54.4925 13.875 54.5112 13.875 54.5112C13.9619 54.4829 13.9869 54.4302 14.0113 54.3788ZM23.4469 64.9482C23.4186 65.0217 23.4413 65.0694 23.4646 65.1183C23.4891 65.1697 23.5143 65.2223 23.4814 65.3076C23.4814 65.3076 23.3559 65.4323 23.2727 65.4002C23.1895 65.3681 23.1801 65.1915 23.1801 65.1915C23.2086 65.1175 23.2232 65.0795 23.249 65.052C23.2763 65.023 23.3159 65.0057 23.3974 64.97L23.4469 64.9482ZM28.697 68.0127C28.6737 67.9639 28.6509 67.9162 28.6792 67.8427L28.6297 67.8645C28.5483 67.9001 28.5086 67.9175 28.4814 67.9465C28.4556 67.974 28.441 68.012 28.4125 68.0859L28.4124 68.086C28.4124 68.086 28.4218 68.2626 28.505 68.2947C28.5882 68.3267 28.7138 68.2021 28.7138 68.2021C28.7466 68.1168 28.7215 68.0641 28.697 68.0127ZM21.0077 62.4603C20.9794 62.5338 21.0021 62.5815 21.0255 62.6304C21.05 62.6817 21.0751 62.7344 21.0422 62.8197C21.0422 62.8197 20.9167 62.9444 20.8335 62.9123C20.7503 62.8802 20.7409 62.7036 20.7409 62.7036C20.7694 62.6296 20.7841 62.5916 20.8099 62.5641C20.8371 62.5351 20.8767 62.5178 20.9582 62.4821L21.0077 62.4603ZM19.2259 65.9082C19.2026 65.8593 19.1798 65.8116 19.2082 65.7381L19.1586 65.7599L19.1586 65.7599C19.0772 65.7956 19.0375 65.8129 19.0103 65.8419C18.9845 65.8694 18.9699 65.9074 18.9414 65.9814C18.9414 65.9814 18.9508 66.158 19.034 66.1901C19.1172 66.2222 19.2427 66.0975 19.2427 66.0975C19.2755 66.0122 19.2504 65.9595 19.2259 65.9082ZM22.8215 61.8536C22.7932 61.9271 22.8159 61.9748 22.8393 62.0236C22.8638 62.075 22.8889 62.1277 22.856 62.213C22.856 62.213 22.7305 62.3376 22.6473 62.3056C22.5641 62.2735 22.5547 62.0969 22.5547 62.0969C22.5832 62.0229 22.5979 61.9849 22.6237 61.9574C22.6509 61.9284 22.6905 61.911 22.772 61.8754L22.8215 61.8536ZM23.8708 62.2405C23.8475 62.1916 23.8247 62.1439 23.853 62.0705L23.8035 62.0923C23.7221 62.1279 23.6824 62.1453 23.6552 62.1743C23.6294 62.2018 23.6148 62.2398 23.5863 62.3137C23.5863 62.3137 23.5956 62.4904 23.6788 62.5225C23.7621 62.5545 23.8876 62.4299 23.8876 62.4299C23.9204 62.3446 23.8953 62.2919 23.8708 62.2405ZM35.9786 59.7667C35.9503 59.8402 35.973 59.8879 35.9963 59.9367C36.0208 59.9881 36.046 60.0408 36.0131 60.1261C36.0131 60.1261 35.8876 60.2507 35.8044 60.2187C35.7212 60.1866 35.7118 60.01 35.7118 60.01C35.7704 59.8579 35.7704 59.8579 35.929 59.7885L35.9786 59.7667ZM32.9951 57.2115C32.941 57.213 32.8881 57.2145 32.8325 57.1588L32.8323 57.2129C32.8314 57.3861 32.8314 57.3861 32.9466 57.5013C32.9466 57.5013 33.1119 57.5643 33.175 57.5013C33.238 57.4382 33.175 57.273 33.175 57.273C33.1103 57.2083 33.052 57.2099 32.9951 57.2115ZM27.4161 59.4802C27.4718 59.5359 27.5246 59.5345 27.5788 59.533C27.6357 59.5314 27.694 59.5298 27.7586 59.5944C27.7586 59.5944 27.8217 59.7597 27.7586 59.8227C27.6956 59.8858 27.5303 59.8227 27.5303 59.8227C27.4151 59.7075 27.4151 59.7075 27.416 59.5343L27.4161 59.4802ZM31.6517 58.9041C31.5975 58.9055 31.5447 58.907 31.489 58.8513L31.4889 58.9054C31.488 59.0786 31.488 59.0786 31.6032 59.1938C31.6032 59.1938 31.7685 59.2569 31.8315 59.1938C31.8946 59.1308 31.8315 58.9655 31.8315 58.9655C31.7669 58.9009 31.7086 58.9025 31.6517 58.9041ZM42.1814 55.9747C42.2371 56.0304 42.2899 56.0289 42.344 56.0274C42.4009 56.0259 42.4593 56.0243 42.5239 56.0889C42.5239 56.0889 42.587 56.2542 42.5239 56.3172C42.4609 56.3803 42.2956 56.3172 42.2956 56.3172C42.1804 56.202 42.1804 56.202 42.1812 56.0288L42.1814 55.9747ZM29.1426 62.2916C29.1046 62.3302 29.0675 62.3679 28.9888 62.3663L29.0261 62.4054C29.0874 62.4698 29.1173 62.5012 29.1538 62.5169C29.1885 62.5318 29.2292 62.5326 29.3084 62.5341C29.3084 62.5341 29.4713 62.4651 29.473 62.3759C29.4748 62.2868 29.3148 62.2113 29.3148 62.2113C29.2235 62.2095 29.1825 62.2511 29.1426 62.2916ZM35.6568 66.2834C35.7355 66.2849 35.7726 66.2473 35.8106 66.2087C35.8505 66.1681 35.8915 66.1265 35.9828 66.1283C35.9828 66.1283 36.1428 66.2038 36.1411 66.293C36.1393 66.3821 35.9764 66.4512 35.9764 66.4512C35.8972 66.4496 35.8565 66.4488 35.8218 66.4339C35.7853 66.4183 35.7554 66.3869 35.6942 66.3225L35.6568 66.2834ZM42.224 61.078C42.186 61.1165 42.1489 61.1542 42.0702 61.1526L42.1076 61.1918C42.1689 61.2562 42.1987 61.2875 42.2352 61.3032C42.2699 61.3181 42.3106 61.3189 42.3899 61.3205C42.3899 61.3205 42.5527 61.2514 42.5545 61.1622C42.5562 61.0731 42.3963 60.9976 42.3963 60.9976C42.3049 60.9958 42.2639 61.0374 42.224 61.078ZM25.5312 63.6123C25.5869 63.6679 25.6397 63.6665 25.6939 63.665C25.7508 63.6634 25.8091 63.6618 25.8738 63.7264C25.8738 63.7264 25.9368 63.8917 25.8737 63.9548C25.8107 64.0178 25.6454 63.9548 25.6454 63.9548C25.5302 63.8396 25.5302 63.8396 25.5311 63.6664L25.5312 63.6123ZM23.3695 67.9516C23.3153 67.9531 23.2625 67.9546 23.2069 67.8989L23.2067 67.953C23.2062 68.0419 23.206 68.0852 23.2215 68.1218C23.2362 68.1566 23.265 68.1854 23.321 68.2414C23.321 68.2414 23.4863 68.3045 23.5494 68.2414C23.6124 68.1784 23.5494 68.0131 23.5494 68.0131C23.4847 67.9485 23.4264 67.9501 23.3695 67.9516ZM28.9628 55.001C29.0185 55.0567 29.0713 55.0552 29.1254 55.0537C29.1823 55.0522 29.2407 55.0506 29.3053 55.1152C29.3053 55.1152 29.3684 55.2805 29.3053 55.3435C29.2423 55.4066 29.077 55.3435 29.077 55.3435C29.0209 55.2875 28.9921 55.2587 28.9775 55.2239C28.962 55.1873 28.9622 55.144 28.9626 55.0551C28.9627 55.0387 28.9628 55.0208 28.9628 55.001ZM19.9224 57.5578C19.9459 57.509 19.9689 57.4614 20.0439 57.4375C20.0264 57.4285 20.0105 57.4201 19.996 57.4125C19.8425 57.3322 19.8425 57.3322 19.6873 57.3816C19.6873 57.3816 19.5553 57.4994 19.5824 57.5844C19.6094 57.6693 19.7852 57.6893 19.7852 57.6893C19.8722 57.6616 19.8976 57.609 19.9224 57.5578Z" fill="#36491D"/>
<path d="M47.8392 53.2952L45.9151 52.0125H44.6324L46.5565 53.2952H47.8392Z" fill="#FE5496"/>
<path opacity="0.3" fill-rule="evenodd" clip-rule="evenodd" d="M12.7024 52.0125C14.2246 66.2588 26.0889 68.6996 31.6808 68.098C31.9328 68.0975 32.1882 68.0929 32.4471 68.084C38.1685 67.8867 42.2696 66.0051 45.0945 63.3159C42.4406 67.6055 37.6577 70.9847 29.8817 71.2528C29.6228 71.2617 29.3674 71.2664 29.1154 71.2669C23.2853 71.8941 10.6368 69.2141 10.0001 53.2952L10 52.0125H11.2827H12.7024Z" fill="#B81856"/>
</svg>
