<svg width="96" height="96" viewBox="0 0 96 96" fill="none" xmlns="http://www.w3.org/2000/svg">
<g clip-path="url(#clip0)">
<rect width="96" height="96" fill="#B5E4B1"/>
<ellipse cx="48" cy="67.5" rx="42" ry="11.5" fill="#86C980"/>
<path d="M67.5324 38.9171C68.2133 39.1304 68.6605 38.8965 68.681 40.0246C68.6897 40.5015 68.0204 40.9396 66.913 42.0884C68.0411 42.0677 68.7427 43.4091 67.8485 43.8768C66.9543 44.3446 65.8262 44.3652 64.6981 44.3859C66.5072 44.5785 66.3146 46.3876 64.7394 46.6421C63.1641 46.8966 58.3212 49.908 56.9048 50.1709C56.4582 49.6687 50.0568 44.429 50.2253 42.8451C50.3938 41.2612 52.0138 41.9096 52.9288 42.5699C50.865 40.8022 50.2766 39.0994 50.3767 38.7798C50.5899 38.0988 51.0371 37.8649 51.952 38.5252L51.8844 38.4416C50.3055 36.4867 49.2577 35.1895 49.6132 34.0541C49.6735 33.8613 50.5075 33.5864 51.6356 33.5657C49.8058 32.245 50.3713 29.9614 50.6587 29.521C52.0001 28.8194 52.4377 29.9702 53.6166 30.8211C52.915 29.4798 50.8513 27.7119 52.6191 25.6483C53.3532 24.7914 54.0018 27.2029 54.9167 27.8632C54.6828 27.4161 53.9398 23.8186 55.2812 23.1169C56.2809 22.594 56.877 23.9905 57.7919 24.6509C57.3241 23.7566 56.3886 21.9682 57.4961 20.8194C57.8463 20.4561 58.8581 21.2459 60.0068 22.3533C60.2698 21.6179 59.2845 19.8839 59.7111 18.5219C60.09 17.5494 61.2863 18.2673 62.2011 18.9277C61.4788 16.4583 64.5894 12.1132 65.4615 12.0972C67.7178 12.0558 69.6301 17.889 68.3095 19.7187C68.9905 19.9319 69.864 18.3361 70.5657 19.6774C70.8202 21.2526 69.6893 23.6703 69.5202 24.2105C70.1805 23.2956 71.5218 22.594 72.2235 23.9353C72.885 25.1999 69.8366 29.17 68.9424 29.6378C69.3895 29.4039 72.0928 29.1287 72.1135 30.2568C72.1341 31.3849 68.1102 33.4898 68.1308 34.618C69.706 34.3634 70.6002 33.8957 70.4076 35.7048C70.215 37.5139 67.9794 38.6833 67.5324 38.9171Z" fill="#358D1F"/>
<path fill-rule="evenodd" clip-rule="evenodd" d="M67.3218 38.8006C67.1742 38.7788 67.015 38.7553 66.8512 38.704C66.8618 38.6985 66.8735 38.6924 66.8863 38.6857C67.4106 38.4127 69.6929 37.224 69.8809 35.4579C69.9678 34.6409 69.8494 34.3864 69.5482 34.3763C70.209 34.3216 70.5309 34.5468 70.4076 35.7047C70.2275 37.3969 68.2598 38.5294 67.6404 38.8601C67.5433 38.8332 67.436 38.8174 67.3218 38.8006ZM67.9227 39.008C68.0614 39.1389 68.1468 39.3648 68.1543 39.7778C68.1599 40.0839 67.8225 40.3879 67.2872 40.8703C66.9887 41.1394 66.6286 41.4639 66.2321 41.8751C66.493 41.8704 66.7393 41.9366 66.9528 42.0471C67.2645 41.7255 67.5406 41.4606 67.7755 41.2351C68.3575 40.6766 68.6872 40.3602 68.6811 40.0246C68.665 39.1438 68.3889 39.0933 67.9445 39.0119C67.9373 39.0106 67.93 39.0093 67.9227 39.008ZM67.0324 42.0912C67.6874 42.479 67.983 43.2841 67.3217 43.63C66.4275 44.0977 65.2994 44.1184 64.1713 44.139C64.4963 44.1736 64.7566 44.2604 64.956 44.3809C65.9969 44.3594 67.0225 44.3088 67.8485 43.8768C68.7107 43.4257 68.0893 42.1625 67.0324 42.0912ZM65.0623 44.4525C65.8352 45.0332 65.4515 46.195 64.2126 46.3952C63.3903 46.5281 61.6776 47.4122 60.0267 48.2644C58.6571 48.9714 57.3301 49.6564 56.5891 49.8724C56.7488 50.0163 56.8586 50.1189 56.9048 50.1708C57.5818 50.0452 59.0417 49.2916 60.5534 48.5112C62.2044 47.659 63.9171 46.7749 64.7394 46.642C66.1997 46.4061 66.4717 44.8341 65.0623 44.4525ZM51.924 42.0197C52.0953 42.1147 52.2574 42.2187 52.402 42.3231C52.3261 42.258 52.2521 42.193 52.1801 42.1282C52.0955 42.0887 52.0098 42.0522 51.924 42.0197ZM51.254 38.1616C51.3092 38.1969 51.3662 38.2358 51.4253 38.2784L51.3577 38.1947C51.3572 38.1941 51.3567 38.1935 51.3562 38.1928C51.3211 38.1805 51.287 38.1701 51.254 38.1616ZM52.5991 29.2568C52.6971 29.3239 52.8017 29.3982 52.9148 29.4798C52.7286 29.1237 52.4587 28.8148 52.1957 28.5143C52.3091 28.7698 52.4491 29.0175 52.5991 29.2568ZM69.308 34.4051C69.1424 34.4298 68.9603 34.465 68.763 34.503C68.5669 34.5408 68.3558 34.5815 68.1308 34.6179C68.1205 34.0538 69.1213 33.2456 70.1221 32.4373C71.123 31.6291 72.1238 30.8208 72.1135 30.2568C72.1063 29.863 71.7722 29.6402 71.3214 29.527C71.4837 29.6446 71.5829 29.8023 71.5867 30.01C71.596 30.5152 70.7667 31.2306 69.8694 32.0048C68.7632 32.9591 67.5536 34.0026 67.6834 34.852C68.125 34.7806 68.5069 34.6547 68.8235 34.5503C69.0073 34.4897 69.1692 34.4363 69.308 34.4051ZM69.4413 29.2401C70.6329 28.0894 72.7904 25.019 72.2235 23.9353C71.5218 22.5939 70.1805 23.2956 69.5202 24.2104C69.5504 24.1137 69.6115 23.9569 69.69 23.7555C70.0498 22.8318 70.7746 20.9706 70.5657 19.6774C70.3372 19.2406 70.0905 19.1152 69.8381 19.1375C69.9058 19.208 69.9727 19.3041 70.0389 19.4306C70.2686 20.852 69.2613 23.9053 68.9381 24.885C68.9031 24.991 68.8761 25.0727 68.8596 25.1255C69.52 24.2106 70.9951 22.3471 71.6967 23.6885C72.3582 24.9531 69.1747 28.9938 68.2805 29.4616C68.4406 29.3778 68.9072 29.2797 69.4413 29.2401ZM68.4326 19.7385C68.391 19.7376 68.3499 19.7313 68.3095 19.7187C69.5643 17.9801 67.9004 12.6272 65.7959 12.1335C67.6536 13.3772 69.0109 18.3612 67.8621 19.9527C68.0455 20.0101 68.237 19.9016 68.4326 19.7385ZM61.6391 18.5459C61.3747 18.3803 61.1056 18.2353 60.853 18.1449C61.1327 18.3016 61.4148 18.4936 61.6743 18.6809C61.6613 18.6365 61.6496 18.5915 61.6391 18.5459ZM59.5217 21.8981C58.8483 21.2858 58.2547 20.8379 57.8617 20.7469C58.3131 21.0325 58.8778 21.5258 59.4801 22.1065C59.5024 22.0439 59.5158 21.9742 59.5217 21.8981Z" fill="#287A13"/>
<path d="M63.4528 25.6758C62.7841 33.1065 58.1839 46.085 56.0516 52.8949L56.5193 53.7891C58.4178 46.532 63.7693 30.6354 63.4528 25.6758Z" fill="#61C248"/>
<path opacity="0.5" d="M65.1435 13.3553C65.0688 13.4186 64.9932 13.4879 64.917 13.5625M62.7641 19.2444C62.8742 18.5422 63.1276 15.8081 64.1482 14.455" stroke="white" stroke-width="0.5" stroke-linecap="round"/>
<path opacity="0.6" d="M66.8666 40.3884C66.7418 40.3655 66.6038 40.3403 66.4545 40.2935C66.9015 40.0597 69.1372 38.8902 69.3297 37.0811C69.4948 35.5305 68.8614 35.6526 67.6851 35.8794C67.489 35.9173 67.2779 35.958 67.0529 35.9943C67.0426 35.4303 68.0434 34.622 69.0443 33.8138C70.0451 33.0055 71.0459 32.1973 71.0356 31.6332C71.015 30.5051 68.3116 30.7803 67.8645 31.0141C68.6867 30.5841 71.3297 27.1936 71.2363 25.667C71.024 25.3145 70.8114 25.1308 70.6031 25.1953C69.728 25.4661 69.5556 26.6555 69.5337 27.6645C69.3818 27.3434 69.2747 27.4985 69.1888 27.1417C69.0019 26.3655 68.4119 26.1155 67.8965 26.609C66.3612 27.5852 66.1406 29.362 66.1297 29.8665C65.9408 29.4673 65.9171 28.8528 65.8949 28.2765C65.8603 27.3805 64.9863 27.3003 64.3433 27.5415C62.3315 28.2961 62.6896 29.7919 62.7643 30.5355C62.8028 30.9185 63.2429 31.7432 63.236 32.0599C63.0678 31.7044 62.554 30.893 62.4529 30.573C62.1802 29.7101 61.8614 30.0113 60.7574 29.9873C60.2931 30.2343 58.3537 31.4911 59.319 33.5309C58.3209 33.0046 57.9173 33.4298 57.7714 33.5695C56.9122 34.3924 56.7444 35.4473 57.1839 37.9215L57.2027 38.0274C56.5468 37.9714 56.5468 37.9714 56.1861 38.3574C55.8255 38.7434 55.5159 38.9585 56.4703 41.5027C55.621 41.1414 54.4633 40.9545 53.937 41.9525C53.2062 42.999 54.7059 47.1619 55.5391 49.4997C55.7457 50.0795 55.8909 50.4871 55.9205 50.6173C56.2582 50.7292 56.8596 50.7952 57.5967 50.8392C58.1734 50.5598 58.8196 50.2262 59.4756 49.8876C61.1265 49.0354 62.8392 48.1513 63.6615 48.0184C65.2367 47.7639 65.4293 45.9548 63.6202 45.7622C64.7483 45.7416 65.8764 45.7209 66.7706 45.2532C67.6649 44.7854 66.9632 43.4441 65.8351 43.4647C66.1631 43.1245 66.4527 42.8466 66.6976 42.6115C67.2796 42.053 67.6093 41.7366 67.6032 41.401C67.5871 40.5202 67.311 40.4697 66.8666 40.3884Z" fill="#287A13"/>
<path d="M70.1498 47.4589C70.4467 48.1078 70.9197 48.2837 70.0948 49.0536C69.7462 49.379 68.9728 49.1746 67.3781 49.1197C68.148 49.9445 67.6202 51.3632 66.6744 51.0114C65.7285 50.6595 64.9586 49.8347 64.1887 49.0099C65.2556 50.4836 63.7819 51.5505 62.5391 50.5498C61.2963 49.5491 55.8183 47.9633 54.6755 47.0861C54.7501 46.4183 54.3633 38.155 55.6535 37.2208C56.9436 36.2866 57.5451 37.9245 57.6664 39.0464C57.6 36.3298 58.4722 34.7535 58.7767 34.6141C59.4256 34.3171 59.8986 34.493 60.0197 35.6148L60.0367 35.5087C60.4337 33.0273 60.6972 31.3807 61.779 30.8856C61.9627 30.8015 62.7249 31.2375 63.4948 32.0623C63.2526 29.8187 65.3285 28.7116 65.8481 28.6307C67.2669 29.1585 66.7041 30.2536 66.8601 31.6991C67.3879 30.2803 67.3217 27.5638 70.0382 27.4977C71.1662 27.4702 69.8074 29.5653 69.9285 30.6871C70.1044 30.2141 72.2818 27.2555 73.7006 27.7833C74.758 28.1767 74.1186 29.5539 74.2397 30.6757C74.5915 29.7299 75.2953 27.8382 76.89 27.893C77.3943 27.9104 77.484 29.1908 77.4291 30.7855C78.1517 30.4891 78.7817 28.5968 80.0795 28.0028C81.0558 27.6341 81.3223 29.0035 81.4433 30.1253C82.7959 27.9366 88.1065 27.3426 88.7018 27.9802C90.2417 29.6298 87.1846 34.953 84.9411 35.1951C85.2381 35.844 87.0087 35.4259 86.4809 36.8447C85.4802 38.0876 82.9266 38.864 82.4118 39.0996C83.5336 38.9785 84.9524 39.5063 84.4246 40.9251C83.927 42.2627 78.9368 42.6522 77.9909 42.3003C78.4638 42.4763 80.4766 44.3018 79.6518 45.0717C78.827 45.8416 74.5708 44.2582 73.7459 45.0281C74.9888 46.0289 75.9346 46.3807 74.4609 47.4476C72.9873 48.5145 70.6226 47.6348 70.1498 47.4589Z" fill="#358D1F"/>
<path fill-rule="evenodd" clip-rule="evenodd" d="M70.0954 47.2244C70.0129 47.1001 69.9238 46.966 69.8524 46.81C69.8636 46.8142 69.876 46.8188 69.8895 46.8238C70.4432 47.0309 72.8534 47.9324 74.292 46.8909C74.9572 46.4093 75.0674 46.1509 74.8738 45.9204C75.3561 46.3749 75.4039 46.7649 74.4609 47.4476C73.0825 48.4456 70.9245 47.7404 70.2643 47.5011C70.2193 47.4109 70.1593 47.3206 70.0954 47.2244ZM70.3432 47.8099C70.3386 48.0005 70.2278 48.2151 69.9258 48.4969C69.702 48.7058 69.2504 48.6584 68.5337 48.5831C68.134 48.5411 67.652 48.4905 67.081 48.4709C67.2591 48.6616 67.3746 48.8891 67.4353 49.1217C67.8828 49.1383 68.2644 49.1663 68.5892 49.1901C69.3936 49.2492 69.8494 49.2826 70.0947 49.0536C70.7387 48.4525 70.5916 48.2135 70.3548 47.8287C70.351 47.8225 70.3471 47.8162 70.3432 47.8099ZM67.4557 49.2104C67.6055 49.9566 67.2047 50.7148 66.5054 50.4546C65.5595 50.1028 64.7896 49.278 64.0197 48.4532C64.2114 48.7179 64.321 48.9695 64.3648 49.1984C65.0769 49.9577 65.8005 50.6863 66.6743 51.0114C67.5863 51.3506 68.1096 50.0437 67.4557 49.2104ZM64.3826 49.3253C64.4678 50.2882 63.3476 50.7801 62.3701 49.993C61.7213 49.4706 59.9185 48.7888 58.1807 48.1316C56.7391 47.5864 55.3423 47.0581 54.6861 46.6518C54.6859 46.8668 54.6831 47.017 54.6754 47.0861C55.2217 47.5054 56.7584 48.0865 58.3496 48.6883C60.0874 49.3456 61.8902 50.0274 62.539 50.5498C63.6912 51.4775 65.0417 50.6282 64.3826 49.3253ZM57.4031 37.9314C57.4471 38.1223 57.4782 38.3124 57.4974 38.4896C57.4949 38.3897 57.4938 38.2912 57.4938 38.1944C57.4666 38.105 57.4364 38.017 57.4031 37.9314ZM59.8229 34.8527C59.8336 34.9173 59.8429 34.9858 59.8507 35.0581L59.8677 34.9519C59.8678 34.9511 59.868 34.9503 59.8681 34.9495C59.8538 34.9152 59.8388 34.883 59.8229 34.8527ZM67.3422 29.8965C67.3579 30.0141 67.3727 30.1416 67.3877 30.2802C67.5277 29.9036 67.5769 29.4964 67.6244 29.1C67.5103 29.3552 67.4198 29.6249 67.3422 29.8965ZM74.6909 45.7604C74.5619 45.654 74.4142 45.5423 74.2541 45.4212C74.0948 45.3008 73.9234 45.1711 73.7458 45.0281C74.1582 44.6432 75.4285 44.8465 76.6988 45.0499C77.9691 45.2533 79.2393 45.4566 79.6517 45.0717C79.9396 44.8029 79.8818 44.4056 79.6644 43.9947C79.6855 44.194 79.6346 44.3732 79.4828 44.5149C79.1134 44.8598 78.0269 44.7219 76.8512 44.5726C75.402 44.3886 73.8171 44.1875 73.2726 44.8521C73.621 45.1326 73.97 45.3323 74.2594 45.4978C74.4272 45.5938 74.5749 45.6783 74.6909 45.7604ZM78.6202 42.4052C80.2726 42.5213 83.9981 42.0713 84.4245 40.9251C84.9523 39.5063 83.5335 38.9785 82.4118 39.0996C82.5039 39.0574 82.6613 38.9979 82.8635 38.9215C83.7909 38.5711 85.6592 37.8651 86.4808 36.8447C86.6527 36.3827 86.5808 36.1154 86.3955 35.9427C86.3883 36.0401 86.3617 36.1542 86.3119 36.288C85.4089 37.4095 82.4654 38.703 81.5209 39.118C81.4187 39.1629 81.3399 39.1975 81.2897 39.2205C82.4115 39.0995 84.7834 38.9496 84.2556 40.3684C83.758 41.706 78.6249 42.0423 77.679 41.6904C77.8484 41.7534 78.2334 42.0347 78.6202 42.4052ZM85.0086 35.2999C84.9814 35.2683 84.9586 35.2336 84.941 35.1951C87.0728 34.9651 89.9389 30.1477 88.8983 28.2531C89.2163 30.4659 86.4192 34.8085 84.4678 35.0191C84.5477 35.1937 84.7565 35.2635 85.0086 35.2999ZM81.351 29.4521C81.2973 29.1448 81.2251 28.8478 81.1234 28.5996C81.194 28.9123 81.24 29.2504 81.2743 29.5685C81.2986 29.5292 81.3242 29.4904 81.351 29.4521ZM77.4429 30.1203C77.4477 29.2102 77.3835 28.4694 77.1883 28.1164C77.2779 28.643 77.2889 29.3927 77.2601 30.2287C77.3216 30.2035 77.3823 30.1668 77.4429 30.1203Z" fill="#287A13"/>
<path d="M77.2643 35.5695C71.2933 40.0426 58.5686 45.304 52.08 48.274L51.7282 49.2198C58.3926 45.7769 73.7893 39.1221 77.2643 35.5695Z" fill="#61C248"/>
<path opacity="0.5" d="M87.5538 28.5854C87.4568 28.5722 87.3547 28.5624 87.2483 28.5556M81.5845 30.7557C82.1801 30.3679 84.3821 28.7274 86.0706 28.5811" stroke="white" stroke-width="0.5" stroke-linecap="round"/>
<path opacity="0.4" fill-rule="evenodd" clip-rule="evenodd" d="M77.1027 45.1141C76.9687 45.0932 76.8336 45.0715 76.6986 45.0499C75.4284 44.8466 74.1581 44.6432 73.7457 45.0281C73.9232 45.1711 74.0947 45.3008 74.2539 45.4212L74.2539 45.4213C75.2094 46.144 75.7239 46.5331 74.4607 47.4476C72.9871 48.5145 70.6224 47.6349 70.1495 47.459C70.2146 47.6012 70.2882 47.7207 70.3547 47.8288C70.5915 48.2135 70.7386 48.4525 70.0946 49.0536C69.8492 49.2827 69.3934 49.2492 68.5891 49.1902L68.589 49.1902L68.589 49.1902C68.2505 49.1653 67.8502 49.1359 67.3778 49.1197C68.1478 49.9445 67.62 51.3633 66.6741 51.0114C65.7283 50.6595 64.9584 49.8347 64.1884 49.01C65.2553 50.4836 63.7817 51.5505 62.5389 50.5498C62.0232 50.1346 60.7783 49.6186 59.4166 49.0943C58.3465 49.6358 57.4086 50.0773 56.9046 50.1709C56.8159 50.0711 56.4919 49.7842 56.0312 49.3761C54.1733 47.7306 50.0902 44.1143 50.2252 42.8452C50.3937 41.2613 52.0136 41.9097 52.9286 42.5699C50.8649 40.8022 50.2764 39.0994 50.3765 38.7798C50.5897 38.0988 51.0369 37.8649 51.9518 38.5252L51.8843 38.4416C50.3053 36.4867 49.2575 35.1895 49.613 34.0541C49.6734 33.8613 50.5073 33.5864 51.6354 33.5657C49.8056 32.245 50.3711 29.9614 50.6586 29.521C51.6371 29.0092 52.1347 29.4832 52.79 30.1074L52.79 30.1074L52.79 30.1074C53.0329 30.3389 53.2976 30.591 53.6164 30.8211C53.4696 30.5404 53.2632 30.2411 53.0447 29.9243C52.8528 29.646 52.6516 29.3543 52.4733 29.0499C52.6418 29.1759 52.8086 29.3065 52.9738 29.4415C53.2044 29.5755 53.5438 29.7806 54.0546 30.093C54.368 30.3317 56.3846 31.3173 56.8924 31.4241C56.3159 31.5997 56.0045 33.081 57.5897 32.8987C57.4858 33.3925 57.382 33.8863 58.4687 34.0128C57.8331 35.038 58.3653 35.1058 58.7813 35.1587C58.9572 35.1811 59.1123 35.2008 59.1495 35.2892C59.13 36.0012 59.1993 36.7514 59.2628 37.4386L59.2628 37.4386C59.33 38.1652 59.3906 38.8213 59.3328 39.2873C59.584 40.371 59.6854 41.4425 59.6428 42.5053C64.4332 39.793 71.5563 40.0396 77.1027 45.1141Z" fill="#236B11"/>
<path d="M54.7172 33.3002C62.0063 42.7831 58.2608 50.9421 46.7785 59.768C35.2963 68.5938 26.4484 70.1147 19.1594 60.6318C12.5992 52.0971 13.8416 44.6996 26.0646 35.3044C39.7692 24.7704 48.5215 25.2397 54.7172 33.3002Z" fill="#BD8F54"/>
<path d="M51.7158 35.5184C50.5562 33.4688 49.7909 30.615 50.9881 29.9638C51.4819 30.0676 50.8687 29.6557 52.8595 30.8729C53.1728 31.1117 55.1895 32.0973 55.6972 32.204C55.1208 32.3796 54.8093 33.861 56.3945 33.6786C56.2907 34.1724 56.1869 34.6662 57.2736 34.7927C56.3692 36.2514 57.8289 35.7718 57.9544 36.0691C57.9117 37.6247 58.2932 39.3624 58.1114 40.2271C55.9896 40.2324 53.2716 38.2682 51.7158 35.5184Z" fill="#BD8F54"/>
<path d="M22.4848 50.2674L23.3686 50.9689M25.3438 51.3842L24.7461 51.7741M22.5633 52.3464L21.9657 52.7364M22.9533 52.944L23.3433 53.5416M23.1609 51.9564L23.5509 52.5541M21.8872 50.6574L22.2772 51.255M24.5638 50.1889L24.3562 51.1765M24.5385 52.7617L24.9285 53.3593M17.8584 42.8433L18.2483 43.4409M24.3536 36.4747L24.146 37.4622M21.3656 38.4245L21.7555 39.0221M29.2384 32.8611L29.6284 33.4587M33.5255 29.6376L34.4093 30.339M37.5012 27.8954L37.2935 28.883M31.135 31.1974L32.0188 31.8989L31.6288 31.3012M42.3606 26.8546L42.6467 27.946M44.9334 26.88L44.7257 27.8675M16.9493 44.7146L17.3392 45.3122M16.3262 47.6774L15.7286 48.0673M14.8703 49.6976L15.2602 50.2953M17.4202 57.1886L17.2126 58.1762M14.9488 51.7766L15.8325 52.4781M15.9642 54.3043L15.3665 54.6943M57.7744 39.3767L58.6582 40.0781M57.9314 43.5347L58.529 43.1447M57.5161 45.5099L58.3999 46.2113M57.8529 41.4557L58.8405 41.6633M57.1008 47.485L57.387 48.5764M57.2047 46.9912L58.0884 47.6927M55.4903 50.2401L55.7764 51.3315M56.1917 49.3564L57.0755 50.0578M33.5608 66.2541L33.3532 67.2417M32.9632 66.6441L32.2618 67.5278M31.378 66.8264L31.768 67.424M30.8842 66.7226L30.1828 67.6063M26.8301 66.3858L26.2325 66.7758M24.5688 64.8791L24.3611 65.8667M28.3115 66.6973L27.7138 67.0872M20.15 61.3719L20.4361 62.4633M22.3075 63.3724L21.7098 63.7623M23.1913 64.0738L22.5936 64.4638M35.8121 28.5715L36.6959 29.2729M41.7629 27.2446L42.153 27.8422M45.9209 27.0876L45.2195 27.9714M48.8837 27.7105L48.1822 28.5943L48.7799 28.2043M51.145 29.2172L51.4311 30.3086M20.7982 55.8363L21.1882 56.434M25.4247 58.356L24.8271 58.7459M28.7774 59.5765L28.1798 59.9665M32.1555 58.2243L31.5578 58.6143M26.4908 60.6426L27.3745 61.344M29.3497 61.7593L29.7397 62.357M19.0561 51.8607L18.4585 52.2507M30.3094 54.7424L31.0079 54.6376M33.379 54.0927L33.4567 53.7229M29.5578 50.1955L29.7625 49.9868M34.8042 50.5313L34.7004 51.0251M29.7123 44.5561L30.4108 44.4513M28.8568 45.4075L29.3193 44.7374M36.1286 46.6848L36.2324 46.191M37.6129 46.2173L38.3114 46.1125M37.3268 45.1259L37.5315 44.9173M35.5563 44.502L35.9463 45.0996M34.3611 45.2819L33.7635 45.6719M31.2667 37.9282L30.6691 38.3182M31.059 38.9158L31.449 39.5134M29.63 40.2006L30.0925 39.5306M28.139 39.1198L28.8375 39.015M27.9845 39.8547L28.3745 40.4523M30.8448 41.6219L31.2348 42.2195M36.9597 37.0627L37.3496 37.6603M46.9895 39.1716L47.3795 39.7692M47.7694 40.3668L48.4679 40.262M48.0556 41.4582L48.4456 42.0558M44.0722 43.2372L43.4746 43.6272M45.9513 44.1095L46.0551 43.6157M46.678 40.6529L46.0804 41.0429M47.5618 41.3544L46.9642 41.7443M44.1306 38.0548L43.533 38.4448M43.4013 31.714L42.8037 32.104M43.6875 32.8054L44.0774 33.4031M43.1937 32.7016L43.5836 33.2992M42.8822 34.183L42.2846 34.573M47.4326 44.421L46.835 44.8109M50.7854 45.6415L50.1878 46.0315M44.0293 48.346L43.4317 48.7359" stroke="#A87B42" stroke-width="0.2" stroke-linecap="round"/>
<path opacity="0.4" fill-rule="evenodd" clip-rule="evenodd" d="M54.1477 52.9363C52.3727 54.904 50.1559 56.8827 47.5365 58.8961C36.0543 67.7219 27.2064 69.2428 19.9173 59.7599C14.9138 53.2504 14.4493 47.4024 19.934 40.8249C13.6592 47.7613 13.9358 53.8361 19.1594 60.6318C26.4484 70.1147 35.2963 68.5938 46.7785 59.7679C49.7851 57.4569 52.2612 55.1916 54.1477 52.9363Z" fill="#A37336"/>
<path opacity="0.4" fill-rule="evenodd" clip-rule="evenodd" d="M58.4566 42.9128C58.4089 48.6121 54.2173 54.0501 46.7785 59.7679C42.0451 63.4062 37.7595 65.8031 33.8461 66.6996C33.2476 64.964 33.1078 63.0516 33.533 61.0295C34.4358 56.7353 38.123 53.6078 42.8091 52.5774C45.1065 50.043 48.8269 48.5208 52.9744 48.5025C53.9967 46.5325 55.6479 44.6656 58.1611 43.0919C58.2585 43.0309 58.357 42.9712 58.4566 42.9128Z" fill="#9E6925"/>
<path d="M29.9947 56.0254C30.0141 55.3121 29.667 54.9458 30.7467 54.6181C31.2031 54.4796 31.8072 55.0039 33.2146 55.7558C32.8869 54.6762 33.9858 53.6351 34.6799 54.3677C35.3739 55.1004 35.7016 56.18 36.0293 57.2597C35.7209 55.4667 37.5139 55.1583 38.1886 56.6042C38.8634 58.0502 43.0822 61.8875 43.7216 63.1784C43.3604 63.7451 40.0665 71.3334 38.4968 71.6035C36.927 71.8736 37.1087 70.1383 37.4942 69.0778C36.3567 71.5456 34.8792 72.5764 34.5444 72.5673C33.8311 72.5481 33.4841 72.1817 33.8696 71.1213L33.8076 71.2091C32.3578 73.2617 31.3957 74.6237 30.2065 74.5915C30.0045 74.5861 29.5124 73.8588 29.1847 72.7792C28.4135 74.8999 26.0622 74.9792 25.5601 74.8228C24.5191 73.7238 25.5067 72.9887 26.0036 71.6224C24.9047 72.6634 23.7671 75.1312 21.2994 73.9936C20.2747 73.5213 22.4177 72.2392 22.8033 71.1789C22.437 71.5259 19.1787 73.2224 18.1376 72.1235C17.3617 71.3044 18.5425 70.3498 18.9282 69.2894C18.1955 69.9835 16.7303 71.3715 15.3229 70.6196C14.8778 70.3819 15.3615 69.1929 16.1134 67.7856C15.3341 67.7333 13.9348 69.1544 12.5081 69.1157C11.4691 69.0166 11.8333 67.6698 12.219 66.6095C10.0404 67.9782 5.01131 66.1715 4.75793 65.3368C4.1024 63.1775 9.19224 59.7459 11.313 60.5171C11.3322 59.8038 9.55856 59.3989 10.6575 58.3578C12.1035 57.6831 14.738 58.1112 15.3038 58.1265C14.2435 57.7409 13.2024 56.642 14.3014 55.6009C15.3374 54.6194 19.9887 56.4686 20.6828 57.2012C20.3358 56.8349 19.3333 54.3093 20.4129 53.9816C21.4926 53.6539 24.6157 56.9506 25.6954 56.623C25.0206 55.177 24.3266 54.4444 26.1196 54.1359C27.9126 53.8275 29.6477 55.6591 29.9947 56.0254Z" fill="#358D1F"/>
<path fill-rule="evenodd" clip-rule="evenodd" d="M29.9401 56.2598C29.9594 56.4078 29.9803 56.5674 29.9756 56.739C29.9674 56.7303 29.9583 56.7206 29.9484 56.7102C29.5426 56.2803 27.7763 54.409 26.0259 54.7101C25.2161 54.8495 25.0035 55.0329 25.0761 55.3255C24.8431 54.7046 24.9718 54.3334 26.1195 54.1359C27.7967 53.8474 29.4233 55.4315 29.9104 55.9371C29.911 56.0378 29.9251 56.1454 29.9401 56.2598ZM29.9755 55.6252C30.0637 55.4561 30.2577 55.3122 30.653 55.1923C30.946 55.1034 31.3305 55.3449 31.9407 55.7283C32.281 55.9421 32.6914 56.1999 33.1953 56.4691C33.1195 56.2194 33.116 55.9643 33.1641 55.7288C32.7696 55.5167 32.4393 55.3234 32.1583 55.1589C31.4622 54.7514 31.0678 54.5206 30.7466 54.6181C29.9036 54.8739 29.9304 55.1533 29.9734 55.603C29.9741 55.6104 29.9748 55.6178 29.9755 55.6252ZM33.1848 55.6403C33.379 54.9043 34.0729 54.4002 34.5861 54.9419C35.2802 55.6746 35.6079 56.7542 35.9356 57.8339C35.8802 57.5118 35.8926 57.2377 35.9542 57.013C35.6494 56.0175 35.3209 55.0445 34.6798 54.3677C34.0105 53.6613 32.9648 54.604 33.1848 55.6403ZM35.9941 56.8912C36.3417 55.9892 37.5642 56.0411 38.0949 57.1784C38.4471 57.9332 39.7651 59.3397 41.0355 60.6953C42.0894 61.8199 43.1105 62.9096 43.5205 63.5635C43.6154 63.3706 43.6841 63.237 43.7215 63.1784C43.4158 62.5613 42.2924 61.3625 41.1291 60.1211C39.8587 58.7654 38.5408 57.359 38.1886 56.6042C37.563 55.2637 35.9763 55.431 35.9941 56.8912ZM37.239 70.1951C37.2836 70.0042 37.3395 69.8197 37.4005 69.652C37.3586 69.7429 37.3162 69.8318 37.2735 69.9188C37.2585 70.0111 37.2468 70.1036 37.239 70.1951ZM33.7103 71.8923C33.7291 71.8295 33.751 71.764 33.7759 71.6955L33.7138 71.7833C33.7133 71.784 33.7129 71.7847 33.7124 71.7854C33.7101 71.8226 33.7094 71.8582 33.7103 71.8923ZM24.7765 73.028C24.8142 72.9155 24.8572 72.7946 24.9048 72.6636C24.6131 72.9399 24.3896 73.2838 24.1724 73.6186C24.3872 73.4398 24.5872 73.2376 24.7765 73.028ZM25.1693 55.5485C25.2383 55.7011 25.3218 55.8666 25.4123 56.0461C25.5021 56.2244 25.5989 56.4164 25.6953 56.623C25.1555 56.7868 24.1048 56.0445 23.0541 55.3023C22.0034 54.56 20.9527 53.8177 20.4128 53.9816C20.0359 54.096 19.9128 54.4782 19.9269 54.943C19.9958 54.7547 20.1204 54.6161 20.3192 54.5558C20.8028 54.409 21.7173 55.0115 22.707 55.6636C23.9269 56.4673 25.261 57.3462 26.0426 56.9895C25.8535 56.5841 25.6281 56.2512 25.4413 55.9751C25.3328 55.8147 25.2373 55.6735 25.1693 55.5485ZM20.164 56.8298C18.7318 55.9975 15.1891 54.7598 14.3013 55.6009C13.2023 56.642 14.2434 57.7409 15.3037 58.1265C15.2024 58.1238 15.0349 58.1078 14.8197 58.0873C13.8328 57.9933 11.8446 57.8038 10.6574 58.3578C10.2995 58.6969 10.2463 58.9684 10.3366 59.2052C10.386 59.1209 10.4601 59.0302 10.5638 58.932C11.8685 58.3231 15.0809 58.459 16.1116 58.5025C16.2231 58.5072 16.3091 58.5109 16.3644 58.5124C15.304 58.1268 13.1087 57.2162 14.2076 56.1751C15.2437 55.1936 19.9999 57.1535 20.6939 57.8862C20.5697 57.755 20.3479 57.3328 20.164 56.8298ZM11.2983 60.3932C11.3088 60.4336 11.314 60.4748 11.3129 60.5171C9.29776 59.7843 4.60192 62.8461 4.70156 65.0054C5.39098 62.8789 9.81555 60.2128 11.6602 60.8836C11.6654 60.6916 11.5087 60.537 11.2983 60.3932ZM12.005 67.2545C11.9178 67.5541 11.8517 67.8527 11.8337 68.1204C11.9081 67.8085 12.0158 67.4845 12.1253 67.1837C12.0861 67.2083 12.046 67.2319 12.005 67.2545ZM15.8077 68.3766C15.4024 69.1916 15.1335 69.885 15.1533 70.2878C15.3049 69.7756 15.6254 69.0977 16.0197 68.3598C15.9534 68.3553 15.8826 68.3616 15.8077 68.3766Z" fill="#287A13"/>
<path d="M18.3694 63.5637C25.7005 62.1791 39.4417 63.0628 46.5751 63.2558L47.3076 62.5618C39.808 62.7158 23.0543 61.9057 18.3694 63.5637Z" fill="#61C248"/>
<path opacity="0.5" d="M6.05508 65.2994C6.13635 65.3539 6.22365 65.4078 6.3162 65.4607M12.3699 65.9814C11.6644 66.067 8.96487 66.5694 7.38466 65.9567" stroke="white" stroke-width="0.5" stroke-linecap="round"/>
<path opacity="0.6" d="M33.1394 57.709C33.1515 57.8353 33.1648 57.975 33.1606 58.1314C32.8136 57.7651 31.0785 55.9335 29.2855 56.242C27.7486 56.5063 28.039 57.0823 28.5782 58.1521C28.6681 58.3304 28.7649 58.5224 28.8613 58.729C28.3214 58.8928 27.2707 58.1506 26.22 57.4083C25.1693 56.666 24.1186 55.9237 23.5788 56.0876C22.4991 56.4153 23.5016 58.9409 23.8486 59.3073C23.2105 58.6337 20.0588 55.9022 18.6156 56.4086C17.994 55.9267 17.7274 56.714 17.9142 57.2924C18.1957 58.1641 19.6926 59.1572 20.6693 58.9029C20.2476 59.2715 20.1137 60.2536 20.2966 60.6752C20.6439 61.4757 22.2207 62.5469 23.5029 62.5924C23.0353 63.0012 22.75 63.3387 23.6979 64.117C24.6458 64.8952 27.2767 64.6349 27.7393 64.5144C27.1417 64.9044 27.087 65.3588 27.4279 65.9958C27.7687 66.6328 28.8054 66.801 30.9882 66.2288C30.3012 67.0441 30.3606 67.0462 30.6768 67.7101C31.3225 69.0661 33.5734 68.536 34.1002 68.5384C34.6271 68.5407 34.8614 69.0191 37.0486 67.4066C36.9328 68.3223 37.0689 69.487 38.1727 69.721C39.3788 70.1384 42.9745 67.5596 44.9962 66.1201C45.4976 65.7631 45.85 65.5121 45.9672 65.4481C45.9828 65.0928 45.8821 64.4961 45.7233 63.775C45.2971 63.2964 44.7999 62.7658 44.2951 62.2272C43.0247 60.8715 41.7067 59.465 41.3545 58.7102C40.6798 57.2643 38.8868 57.5727 39.1952 59.3657C38.8675 58.286 38.5398 57.2064 37.8457 56.4738C37.1517 55.7411 36.0527 56.7822 36.3805 57.8618C35.9636 57.6391 35.6172 57.4364 35.3242 57.2649C34.6282 56.8575 34.2338 56.6266 33.9126 56.7241C33.0696 56.9799 33.0963 57.2593 33.1394 57.709Z" fill="#287A13"/>
<path d="M37.4706 51.3065C38.0138 50.8437 38.054 50.3407 39.0197 50.9241C39.428 51.1707 39.4423 51.9706 39.8247 53.5197C40.4081 52.5539 41.917 52.6745 41.8366 53.6805C41.7563 54.6865 41.1729 55.6522 40.5895 56.618C41.7161 55.1894 43.1446 56.316 42.5211 57.7847C41.8975 59.2535 41.8669 64.9563 41.3349 66.2951C40.6721 66.4056 32.828 69.0327 31.5772 68.0465C30.3264 67.0603 31.7379 66.0346 32.7841 65.6118C30.1888 66.417 28.4342 66.0081 28.217 65.7532C27.7542 65.21 27.7944 64.707 28.8406 64.2843L28.7338 64.2969C26.2383 64.5921 24.5823 64.788 23.8107 63.8824C23.6797 63.7287 23.8912 62.8764 24.4745 61.9106C22.3822 62.7558 20.7506 61.061 20.531 60.5831C20.6516 59.0742 21.8586 59.3167 23.2067 58.7721C21.6978 58.6516 19.1025 59.4566 18.2974 56.8613C17.9632 55.7836 20.3496 56.519 21.3957 56.0964C20.8928 56.0562 17.4522 54.7689 17.5728 53.26C17.6627 52.1353 19.1621 52.3746 20.2083 51.952C19.2023 51.8716 17.1904 51.7108 16.8079 50.1617C16.687 49.6718 17.8943 49.2361 19.4435 48.8537C18.9611 48.2394 16.9687 48.1497 16.0432 47.0633C15.4219 46.2246 16.6667 45.5945 17.7129 45.172C15.2382 44.4681 13.2174 39.5211 13.6683 38.7745C14.835 36.8428 20.7905 38.3311 21.6357 40.4234C22.1789 39.9606 21.2935 38.3713 22.8025 38.4919C24.2712 39.1154 25.7151 41.3602 26.0822 41.7911C25.6596 40.745 25.7802 39.236 27.2891 39.3566C28.7118 39.4703 30.4483 44.1648 30.3679 45.1708C30.4081 44.6678 31.615 42.2332 32.5808 42.8166C33.5466 43.4 33.1849 47.9268 34.1507 48.5102C34.7742 47.0414 34.8546 46.0355 36.2832 47.162C37.7117 48.2886 37.5108 50.8036 37.4706 51.3065Z" fill="#358D1F"/>
<path fill-rule="evenodd" clip-rule="evenodd" d="M37.2873 51.2925C37.1902 51.4058 37.0855 51.5281 36.9549 51.6394C36.9558 51.6274 36.9569 51.6142 36.9581 51.5999C37.0062 51.0107 37.2158 48.446 35.8212 47.3462C35.1758 46.8373 34.8973 46.8021 34.7283 47.0519C35.0341 46.4633 35.3961 46.3106 36.3106 47.0318C37.6469 48.0856 37.5574 50.3543 37.5073 51.0545C37.4328 51.1224 37.3623 51.2048 37.2873 51.2925ZM37.7827 50.8943C37.9674 50.8467 38.2041 50.8947 38.5577 51.1083C38.8198 51.2667 38.8974 51.7141 39.0206 52.4241C39.0893 52.8201 39.1721 53.2976 39.3091 53.8523C39.444 53.6289 39.6312 53.4557 39.8385 53.3339C39.7323 52.8988 39.6551 52.524 39.5894 52.205C39.4267 51.415 39.3345 50.9674 39.0472 50.7939C38.2931 50.3384 38.1033 50.5451 37.7978 50.8779C37.7928 50.8834 37.7878 50.8888 37.7827 50.8943ZM39.9181 53.2901C40.5951 52.9422 41.4341 53.1208 41.3746 53.8647C41.2942 54.8707 40.7109 55.8364 40.1275 56.8022C40.3298 56.5456 40.5419 56.3715 40.7501 56.2669C41.2863 55.3745 41.7898 54.4795 41.8641 53.5502C41.9416 52.5802 40.5413 52.4334 39.9181 53.2901ZM40.8673 56.2152C41.7704 55.8702 42.5495 56.8137 42.0591 57.969C41.7335 58.7357 41.5696 60.6561 41.4116 62.5073C41.2805 64.0429 41.1535 65.5309 40.9417 66.273C41.1485 66.2146 41.2938 66.1763 41.3623 66.1648C41.6166 65.5249 41.7563 63.8879 41.901 62.1928C42.059 60.3417 42.223 58.4212 42.5485 57.6545C43.1266 56.2928 41.9409 55.2253 40.8673 56.2152ZM31.8103 66.0393C31.9821 65.9448 32.1566 65.8629 32.3221 65.796C32.2265 65.8257 32.132 65.8537 32.0388 65.8801C31.9602 65.9308 31.8836 65.9839 31.8103 66.0393ZM28.1884 64.5514C28.2477 64.5234 28.311 64.4958 28.3786 64.4685L28.2718 64.4811C28.2709 64.4812 28.2701 64.4813 28.2693 64.4814C28.2401 64.5046 28.2131 64.5279 28.1884 64.5514ZM21.3685 58.6699C21.4774 58.6227 21.596 58.5738 21.7252 58.5216C21.3247 58.4896 20.9195 58.5534 20.5253 58.6159C20.8019 58.656 21.086 58.6694 21.3685 58.6699ZM34.6251 47.2699C34.5578 47.4233 34.4905 47.5963 34.4176 47.7837C34.3451 47.9698 34.2671 48.1701 34.1781 48.38C33.6952 48.0882 33.5442 46.8107 33.3932 45.5331C33.2421 44.2556 33.0911 42.978 32.6082 42.6863C32.2711 42.4827 31.9046 42.6468 31.5686 42.9682C31.7546 42.8934 31.941 42.8934 32.1188 43.0008C32.5514 43.2621 32.7152 44.345 32.8925 45.5168C33.111 46.9612 33.3499 48.5408 34.1379 48.8833C34.3127 48.4715 34.4096 48.0813 34.4898 47.7577C34.5365 47.5697 34.5776 47.4041 34.6251 47.2699ZM30.3245 44.4066C29.9853 42.7852 28.5357 39.3237 27.3166 39.2263C25.8076 39.1058 25.687 40.6147 26.1096 41.6609C26.0439 41.5838 25.9437 41.4485 25.815 41.2749C25.2248 40.4783 24.0357 38.8736 22.8299 38.3616C22.3384 38.3224 22.101 38.4645 21.9854 38.6899C22.0811 38.6702 22.1981 38.6647 22.3404 38.6761C23.6658 39.2387 25.7135 41.7176 26.3705 42.5129C26.4416 42.599 26.4964 42.6653 26.5323 42.7074C26.1097 41.6612 25.3182 39.4202 26.8271 39.5408C28.2498 39.6545 29.9741 44.501 29.8937 45.507C29.9081 45.3269 30.0736 44.8797 30.3245 44.4066ZM21.7455 40.1995C21.7226 40.2343 21.6954 40.2657 21.6631 40.2932C20.86 38.3051 15.443 36.8623 13.9045 38.3807C15.9464 37.4708 20.8878 38.9766 21.623 40.7965C21.7692 40.6719 21.7794 40.452 21.7455 40.1995ZM17.1177 45.3142C16.8367 45.4498 16.5705 45.6004 16.3595 45.7661C16.6411 45.6127 16.954 45.4761 17.2508 45.3562C17.2063 45.3436 17.162 45.3295 17.1177 45.3142ZM18.8272 48.8916C17.9502 49.1354 17.2549 49.3993 16.9687 49.6835C17.4508 49.4536 18.1691 49.2384 18.9814 49.0379C18.9404 48.9856 18.8885 48.9372 18.8272 48.8916Z" fill="#287A13"/>
<path d="M24.1182 47.5765C30.0511 52.1002 38.5854 62.906 43.2133 68.3378L44.2193 68.4182C39.0883 62.9462 28.4843 49.9502 24.1182 47.5765Z" fill="#61C248"/>
<path opacity="0.5" d="M14.5912 39.5835C14.605 39.6804 14.6234 39.7813 14.6459 39.8855M18.3081 44.7339C17.7725 44.2667 15.5934 42.596 14.9918 41.0115" stroke="white" stroke-width="0.5" stroke-linecap="round"/>
<path d="M83.8243 58.5985C83.8243 65.1776 77.8115 70.1937 70.5872 70.7484C63.3628 71.3031 55.5586 68.5441 53.097 60.4518C51.5926 55.5066 51.6671 48.4159 58.9045 43.8116C66.1419 39.2072 79.4932 41.7246 83.8243 58.5985Z" fill="#BD8F54"/>
<path d="M83.6166 59.586C83.6167 66.1651 77.6039 71.1813 70.3795 71.736C63.1552 72.2907 55.351 69.5317 52.8893 61.4394C51.385 56.4941 51.4595 49.4035 58.6969 44.7991C65.9342 40.1948 79.2856 42.7122 83.6166 59.586Z" fill="#BD8F54"/>
<path d="M56.7436 51.5082L57.0996 52.1371M58.1709 52.8688L57.7234 52.9489M56.2928 52.7434L55.8453 52.8235M56.381 53.1893L56.4692 53.6353M56.7403 52.6632L56.8285 53.1092M56.2961 51.5884L56.3843 52.0343M57.9946 51.9768L57.6353 52.5029M57.3641 53.475L57.4523 53.921M55.8899 45.9572L55.978 46.4031M59.8061 43.8811L59.4468 44.4072M57.5687 44.2818L57.6568 44.7278M62.1881 42.0946L62.2763 42.5405M65.5001 41.2705L65.8561 41.8993M68.2732 41.2356L67.9139 41.7617M63.7102 41.591L64.0662 42.2199L63.978 41.7739M73.0164 43.0957L72.9249 43.8047M74.5352 43.7472L74.1759 44.2733M54.9034 46.8265L54.9916 47.2725M54.1096 48.7186L53.6621 48.7988M53.2008 49.7452L53.289 50.1912M52.9204 54.7567L52.5611 55.2828M52.7501 50.9803L53.1061 51.6092M52.7473 52.7097L52.2998 52.7899M79.1722 48.1639L79.0348 48.8935M80.5007 50.8302L80.9482 50.7501M81.0552 52.1437L81.9387 52.5286M79.5973 49.6928L80.11 49.7599M69.4088 44.5738L69.3174 45.2828M80.9621 52.8986L81.3182 53.5275M67.7953 45.7863L67.7038 46.4953M68.4224 45.4431L68.7784 46.072M57.7965 65.3755L57.4372 65.9017M57.3491 65.4557L56.7219 65.7989M56.3659 65.17L56.4541 65.616M56.0981 64.9871L55.4709 65.3303M55.291 62.9885L54.8435 63.0686M54.3111 61.5478L53.9518 62.0739M52.531 58.4034L52.4395 59.1124M53.3312 60.1071L52.8837 60.1873M53.6873 60.736L53.2398 60.8162M67.1104 41.2129L67.4664 41.8418M72.5689 43.1758L72.6571 43.6218M75.0709 44.113L74.4437 44.4562M76.8136 45.4449L76.1864 45.7881L76.8598 46.0462M78.2694 46.5997L77.8876 47.5453M54.4119 54.3474L54.5 54.7933M55.0511 56.7641L54.6036 56.8443M56.7463 58.3076L56.2988 58.3877M60.5721 58.5543L60.1246 58.6345M55.136 58.3651L55.492 58.994M56.5633 59.7256L56.6515 60.1716M54.3303 51.5914L53.8828 51.6716M60.3108 56.0614L60.7499 56.173M62.2855 56.4411L62.4201 56.2441M60.9529 53.2165L61.1241 53.1452M63.9822 54.7112L63.8025 54.9743M62.3934 49.957L62.8325 50.0686M61.6827 50.2432L62.1171 49.9658M65.6872 52.7897L65.8668 52.5266M66.6788 52.8836L67.1178 52.9952M66.7702 52.1746L66.9415 52.1032M65.8701 51.3716L65.9583 51.8176M64.9751 51.5319L64.5277 51.612M64.9001 46.4659L64.4526 46.5461M64.5408 46.992L64.629 47.438M63.3864 47.3897L63.8208 47.1124M62.7612 46.3887L63.2003 46.5003M62.4939 46.7802L62.5821 47.2262M63.7665 48.5215L63.8547 48.9674M68.4813 47.3687L68.5695 47.8146M73.9216 51.084L74.0098 51.5299M74.098 51.9759L74.537 52.0874M74.0065 52.6849L74.0947 53.1309M71.22 52.7395L70.7725 52.8196M72.1251 53.7145L72.3047 53.4515M73.3826 51.8731L72.9351 51.9533M73.7387 52.502L73.2912 52.5822M72.4942 49.7234L72.0467 49.8036M74.3634 47.2093L73.9159 47.2894M74.2719 47.9183L74.3601 48.3643M74.0041 47.7354L74.0922 48.1814M73.4651 48.5246L73.0176 48.6047M72.9286 54.2633L72.4811 54.3434M74.6238 55.8067L74.1763 55.8869M69.9726 55.7162L69.5251 55.7964M66.8581 71.3579L66.9574 71.9328M64.4443 70.8504L64.2256 71.3584M65.6852 71.2855L66.0412 71.9144M64.8052 71.5863L64.8934 72.0323M71.3329 71.3735L72.0298 71.5584M63.2284 70.5947L62.6723 71.0318M69.9508 71.6369L69.876 71.9924M74.2126 70.9861L74.1378 71.3417M74.8102 70.5962L75.304 70.7M73.2507 71.1551L73.1688 71.5451M77.6654 69.2784L77.5906 69.6339" stroke="#A87B42" stroke-width="0.2" stroke-linecap="round"/>
<path d="M83.8629 59.1015C84.3322 65.2144 78.4058 70.6542 70.6257 71.2516C62.8457 71.8489 56.2115 68.0713 55.6888 61.2648C55.2195 55.1519 61.146 49.7122 68.926 49.1148C76.706 48.5174 83.2878 51.6114 83.8629 59.1015Z" fill="#86CC29"/>
<path opacity="0.4" fill-rule="evenodd" clip-rule="evenodd" d="M70.5957 70.5666C78.1967 69.9829 83.978 64.5543 83.5086 58.4415C83.3981 57.002 83.0711 55.7245 82.5609 54.604C83.2762 55.8742 83.7299 57.3705 83.8629 59.1016C84.3322 65.2144 78.4057 70.6542 70.6257 71.2516C62.8457 71.8489 56.2114 68.0713 55.6888 61.2648C55.5729 59.7556 55.8469 58.2873 56.4425 56.9229C56.0528 58.0811 55.8869 59.3037 55.983 60.5549C56.5056 67.3614 62.9947 71.1502 70.5957 70.5666Z" fill="#659A1E"/>
<path d="M76.0541 55.3602L70.7903 59.3069L70.4812 55.282L70.2485 58.8424L68.7778 59.4614L67.4626 55.5138L68.2747 59.5L67.7716 59.5386L65.4502 55.6683L67.3072 60.0804L63.5536 57.3321L66.8813 61.1252L62.7792 60.428L66.4168 61.667L63.4368 62.4018L66.9586 62.1314L63.1269 64.956L67.5003 62.5959L65.7583 66.2722L68.5452 63.0218L68.2738 66.079L69.5514 62.9445L70.2476 65.4214L70.5576 62.8672L71.0607 62.8286L72.3373 66.2731L71.5252 62.2869L73.2276 64.6865L72.5314 62.2096L75.2401 64.532L72.9959 61.6679L77.2525 64.3775L73.4603 61.1261L78.4528 60.2367L73.3831 60.1199L76.7503 57.8371L72.8027 59.1523L76.0541 55.3602Z" fill="#75B620"/>
<path fill-rule="evenodd" clip-rule="evenodd" d="M76.257 55.4199C76.2756 55.4679 76.2937 55.5148 76.2615 55.5823L76.31 55.5653C76.3898 55.5374 76.4286 55.5239 76.4565 55.4983C76.4829 55.4742 76.4995 55.4392 76.5319 55.3712C76.5319 55.3712 76.5358 55.2032 76.4593 55.1667C76.3828 55.1303 76.2549 55.2393 76.2549 55.2393C76.2175 55.3177 76.2375 55.3695 76.257 55.4199ZM73.7158 55.872C73.6616 55.8204 73.6114 55.823 73.56 55.8257C73.506 55.8285 73.4506 55.8314 73.3877 55.7715C73.3877 55.7715 73.324 55.616 73.3824 55.5546C73.4408 55.4932 73.5993 55.5493 73.5993 55.5493C73.7114 55.656 73.7114 55.656 73.7147 55.8206L73.7158 55.872ZM63.2836 60.0985C63.3259 60.0692 63.3672 60.0406 63.4404 60.056L63.4124 60.0129C63.3666 59.9419 63.3443 59.9074 63.313 59.8862C63.2832 59.8662 63.2454 59.8583 63.1717 59.8428C63.1717 59.8428 63.0074 59.8784 62.99 59.9613C62.9725 60.0443 63.1085 60.143 63.1085 60.143C63.1935 60.1609 63.2391 60.1293 63.2836 60.0985ZM74.2966 63.1058C74.2233 63.0904 74.1821 63.119 74.1397 63.1483C74.0953 63.1791 74.0497 63.2107 73.9647 63.1928C73.9647 63.1928 73.8287 63.094 73.8461 63.0111C73.8636 62.9282 74.0278 62.8925 74.0278 62.8925C74.1016 62.908 74.1394 62.916 74.1691 62.936C74.2005 62.9571 74.2228 62.9917 74.2686 63.0627L74.2966 63.1058ZM77.2372 63.7241C77.164 63.7087 77.1227 63.7373 77.0804 63.7666C77.036 63.7974 76.9904 63.829 76.9054 63.8111C76.9054 63.8111 76.7694 63.7123 76.7868 63.6294C76.8042 63.5465 76.9685 63.5109 76.9685 63.5109C77.0422 63.5264 77.0801 63.5343 77.1098 63.5543C77.1412 63.5755 77.1635 63.61 77.2093 63.681L77.2372 63.7241ZM72.6322 54.9045C72.6643 54.837 72.6462 54.7901 72.6277 54.7421C72.6082 54.6917 72.5882 54.6399 72.6255 54.5615C72.6255 54.5615 72.7535 54.4525 72.83 54.4889C72.9065 54.5253 72.9026 54.6934 72.9026 54.6934C72.8702 54.7614 72.8536 54.7963 72.8272 54.8205C72.7993 54.846 72.7604 54.8596 72.6807 54.8875L72.6322 54.9045ZM67.4822 54.2176C67.5329 54.2265 67.5823 54.2353 67.6235 54.2978L67.634 54.2474C67.668 54.0864 67.668 54.0864 67.5828 53.9571C67.5828 53.9571 67.441 53.8668 67.3703 53.9134C67.2995 53.96 67.3266 54.1259 67.3266 54.1259C67.3743 54.1984 67.429 54.2081 67.4822 54.2176ZM67.5109 56.5537C67.4365 56.5613 67.4058 56.6011 67.3745 56.6419C67.3415 56.6848 67.3076 56.7287 67.2212 56.7376C67.2212 56.7376 67.0616 56.6848 67.053 56.6005C67.0444 56.5162 67.19 56.4323 67.19 56.4323C67.265 56.4246 67.3035 56.4207 67.3379 56.4307C67.3742 56.4413 67.4059 56.4675 67.4711 56.5211L67.5109 56.5537ZM70.4427 56.3643C70.4941 56.3617 70.5442 56.359 70.5984 56.4106L70.5973 56.3592C70.5957 56.2747 70.5949 56.2336 70.5793 56.1992C70.5645 56.1665 70.5365 56.1399 70.482 56.0879C70.482 56.0879 70.3235 56.0319 70.265 56.0933C70.2066 56.1546 70.2704 56.3102 70.2704 56.3102C70.3333 56.37 70.3887 56.3672 70.4427 56.3643ZM73.8738 57.8639C73.9322 57.8172 73.9365 57.7671 73.9408 57.7159C73.9453 57.662 73.95 57.6067 74.0178 57.5525C74.0178 57.5525 74.1806 57.5104 74.2335 57.5767C74.2863 57.6429 74.2093 57.7923 74.2093 57.7923C74.1504 57.8393 74.1202 57.8634 74.0858 57.8736C74.0496 57.8843 74.0088 57.8796 73.9249 57.8697L73.8738 57.8639ZM72.6981 64.8113C72.6466 64.8112 72.5964 64.8111 72.5451 64.7566L72.5434 64.808L72.5434 64.808C72.5404 64.8924 72.539 64.9335 72.5526 64.9688C72.5656 65.0022 72.5921 65.0303 72.6437 65.0852L72.6437 65.0852C72.6437 65.0852 72.7989 65.1498 72.8606 65.0917C72.9223 65.0336 72.8672 64.8749 72.8672 64.8749C72.8076 64.8116 72.7522 64.8115 72.6981 64.8113ZM65.5281 56.2131C65.458 56.1869 65.4129 56.209 65.3667 56.2316C65.3181 56.2554 65.2683 56.2797 65.1869 56.2493C65.1869 56.2493 65.0673 56.1312 65.097 56.0519C65.1267 55.9725 65.2944 55.9619 65.2944 55.9619C65.4394 56.0162 65.4394 56.0162 65.5069 56.1663L65.5281 56.2131ZM62.3032 56.1819C62.3253 56.1354 62.3468 56.09 62.4179 56.0668L62.3722 56.0434C62.2971 56.0047 62.2605 55.9859 62.2228 55.9832C62.1871 55.9807 62.1503 55.9926 62.0787 56.016C62.0787 56.016 61.954 56.1288 61.9803 56.2093C62.0065 56.2899 62.1737 56.3077 62.1737 56.3077C62.2562 56.2808 62.28 56.2307 62.3032 56.1819ZM63.7913 62.9239C63.7201 62.9471 63.6986 62.9925 63.6765 63.0389C63.6533 63.0878 63.6296 63.1379 63.547 63.1648C63.547 63.1648 63.3798 63.147 63.3536 63.0664C63.3274 62.9859 63.452 62.873 63.452 62.873C63.5992 62.8251 63.5992 62.8251 63.7455 62.9005L63.7913 62.9239ZM63.7249 58.0255C63.747 57.979 63.7685 57.9337 63.8397 57.9105L63.7939 57.8871C63.6476 57.8117 63.6476 57.8117 63.5004 57.8596C63.5004 57.8596 63.3758 57.9725 63.402 58.053C63.4282 58.1336 63.5954 58.1514 63.5954 58.1514C63.678 58.1245 63.7018 58.0744 63.7249 58.0255ZM68.3933 66.5958C68.3664 66.6656 68.3881 66.7109 68.4102 66.7574C68.4335 66.8062 68.4574 66.8562 68.4262 66.9373C68.4262 66.9373 68.3069 67.0557 68.2278 67.0253C68.1488 66.9948 68.1398 66.8269 68.1398 66.8269C68.1955 66.6825 68.1955 66.6825 68.3463 66.6165L68.3933 66.5958ZM66.0923 64.3933C66.0701 64.3469 66.0485 64.3015 66.0754 64.2317L66.0283 64.2524L66.0283 64.2524C65.9509 64.2863 65.9133 64.3028 65.8874 64.3304C65.8629 64.3565 65.849 64.3926 65.8219 64.4629C65.8219 64.4629 65.8308 64.6307 65.9099 64.6612C65.9889 64.6917 66.1082 64.5732 66.1082 64.5732C66.1394 64.4922 66.1156 64.4421 66.0923 64.3933ZM67.7991 63.6552C67.7722 63.725 67.7938 63.7703 67.8159 63.8168C67.8392 63.8656 67.8631 63.9156 67.8319 63.9967C67.8319 63.9967 67.7126 64.1151 67.6335 64.0847C67.5545 64.0542 67.5456 63.8863 67.5456 63.8863C67.5727 63.816 67.5866 63.7799 67.6111 63.7538C67.6369 63.7262 67.6746 63.7098 67.752 63.6759L67.752 63.6759L67.7991 63.6552ZM68.7963 64.0229C68.7741 63.9764 68.7525 63.9311 68.7794 63.8613L68.7324 63.882C68.5816 63.948 68.5816 63.948 68.5259 64.0924C68.5259 64.0924 68.5348 64.2603 68.6139 64.2908C68.693 64.3212 68.8122 64.2028 68.8122 64.2028C68.8435 64.1217 68.8196 64.0717 68.7963 64.0229ZM77.3121 59.1938C77.365 59.2467 77.4152 59.2453 77.4666 59.2439C77.5207 59.2424 77.5761 59.2409 77.6376 59.3023C77.6376 59.3023 77.6975 59.4594 77.6376 59.5193C77.5776 59.5792 77.4206 59.5193 77.4206 59.5193C77.3673 59.466 77.34 59.4387 77.326 59.4057C77.3113 59.3708 77.3115 59.3297 77.3119 59.2452L77.3121 59.1938ZM76.1901 60.8522C76.1387 60.8536 76.0885 60.855 76.0356 60.8021L76.0354 60.8535C76.035 60.938 76.0348 60.9791 76.0495 61.0139C76.0635 61.047 76.0908 61.0743 76.1441 61.1276C76.1441 61.1276 76.3011 61.1875 76.3611 61.1276C76.421 61.0677 76.3611 60.9106 76.3611 60.9106C76.2996 60.8492 76.2442 60.8507 76.1901 60.8522ZM73.6597 64.1423C73.7345 64.1438 73.7697 64.108 73.8058 64.0713C73.8438 64.0328 73.8827 63.9933 73.9695 63.995C73.9695 63.995 74.1215 64.0667 74.1198 64.1514C74.1182 64.2361 73.9634 64.3018 73.9634 64.3018C73.8881 64.3003 73.8494 64.2995 73.8165 64.2854C73.7818 64.2705 73.7534 64.2407 73.6952 64.1795L73.6597 64.1423ZM70.5287 65.3764C70.4772 65.3779 70.427 65.3792 70.3741 65.3263L70.374 65.3778C70.3731 65.5423 70.3731 65.5423 70.4826 65.6518C70.4826 65.6518 70.6397 65.7117 70.6996 65.6518C70.7595 65.5919 70.6996 65.4348 70.6996 65.4348C70.6382 65.3734 70.5827 65.375 70.5287 65.3764ZM73.6347 57.1433C73.6876 57.1962 73.7378 57.1948 73.7893 57.1934C73.8433 57.1919 73.8988 57.1904 73.9602 57.2518C73.9602 57.2518 74.0201 57.4089 73.9602 57.4688C73.9003 57.5287 73.7432 57.4688 73.7432 57.4688C73.6899 57.4155 73.6626 57.3882 73.6487 57.3552C73.6339 57.3203 73.6341 57.2792 73.6346 57.1947L73.6347 57.1433ZM65.0439 59.573C65.0662 59.5266 65.0881 59.4814 65.1594 59.4587C65.0523 59.4034 65.0095 59.3772 64.9648 59.3738C64.9291 59.371 64.8923 59.3827 64.8205 59.4055C64.8205 59.4055 64.6951 59.5175 64.7208 59.5983C64.7464 59.679 64.9135 59.698 64.9135 59.698C64.9962 59.6716 65.0203 59.6217 65.0439 59.573Z" fill="#36491D"/>
<path d="M74.9521 60.7812C73.4604 61.1261 73.778 62.62 74.118 63.0999C72.7717 62.6972 71.0607 62.8286 70.8752 64.3611C69.5514 62.9445 68.0421 63.0604 67.1131 64.1438C67.0359 63.1376 66.4169 61.667 64.9075 61.7828C66.8814 61.1252 66.2834 59.9286 65.703 58.961C66.8041 60.119 69.2424 58.9196 69.6296 57.3717C70.21 58.3393 71.7965 59.2296 73.2286 58.1075C72.8028 59.1523 73.8862 60.0813 74.9521 60.7812Z" fill="#D0F79D"/>
<path opacity="0.4" fill-rule="evenodd" clip-rule="evenodd" d="M53.8438 49.0811C54.8901 49.113 55.9797 49.2436 57.102 49.4795C62.1182 50.5342 66.8496 52.392 68.6162 56.0255C70.117 58.1721 70.9504 62.0901 70.3065 65.1522C69.7569 67.7665 67.9218 69.9831 65.3716 71.5148C59.6513 70.922 55.1866 67.3207 53.0971 60.4518C52.0949 57.1573 51.7934 52.9106 53.8438 49.0811Z" fill="#487312"/>
<path d="M69.9166 64.5545C68.7125 70.2815 61.3251 73.5761 53.4164 71.9132C45.5077 70.2504 39.9359 64.9095 41.2767 58.5327C42.4809 52.8057 49.8683 49.5111 57.777 51.174C65.6857 52.8369 71.3921 57.5372 69.9166 64.5545Z" fill="#BD8F54"/>
<path d="M48.1243 70.1077L48.0204 70.6015" stroke="#A87B42" stroke-width="0.2" stroke-linecap="round"/>
<path d="M49.1799 69.9912L49.4694 70.4046" stroke="#A87B42" stroke-width="0.2" stroke-linecap="round"/>
<path d="M42.9255 65.4053L43.215 65.8186" stroke="#A87B42" stroke-width="0.2" stroke-linecap="round"/>
<path d="M47.222 69.9106L47.2405 69.4063" stroke="#A87B42" stroke-width="0.2" stroke-linecap="round"/>
<path d="M46.1805 69.5428L46.607 69.2731" stroke="#A87B42" stroke-width="0.2" stroke-linecap="round"/>
<path d="M46.9606 70.738L47.387 70.4683" stroke="#A87B42" stroke-width="0.2" stroke-linecap="round"/>
<path d="M50.9108 71.5686L51.3372 71.2989" stroke="#A87B42" stroke-width="0.2" stroke-linecap="round"/>
<path d="M44.6207 67.1523L45.0472 66.8826" stroke="#A87B42" stroke-width="0.2" stroke-linecap="round"/>
<path d="M44.4131 68.1399L44.8396 67.8702" stroke="#A87B42" stroke-width="0.2" stroke-linecap="round"/>
<path d="M58.0316 72.0345L58.4581 71.7649" stroke="#A87B42" stroke-width="0.2" stroke-linecap="round"/>
<path d="M59.3745 72.1347L59.131 72.5991" stroke="#A87B42" stroke-width="0.2" stroke-linecap="round"/>
<path d="M55.9987 71.8938L56.2986 71.488" stroke="#A87B42" stroke-width="0.2" stroke-linecap="round"/>
<path d="M43.611 67.0495L43.9109 66.6438" stroke="#A87B42" stroke-width="0.2" stroke-linecap="round"/>
<path d="M67.3638 66.8875L67.6637 66.4818" stroke="#A87B42" stroke-width="0.2" stroke-linecap="round"/>
<path d="M63.3628 71.2025L63.6627 70.7967" stroke="#A87B42" stroke-width="0.2" stroke-linecap="round"/>
<path d="M56.2313 72.659L55.8927 72.2849" stroke="#A87B42" stroke-width="0.2" stroke-linecap="round"/>
<path d="M57.8531 72.8837L58.1147 73.3151" stroke="#A87B42" stroke-width="0.2" stroke-linecap="round"/>
<path d="M54.8611 72.3992L55.2876 72.1295" stroke="#A87B42" stroke-width="0.2" stroke-linecap="round"/>
<path d="M54.9678 72.7245L54.8978 72.2248" stroke="#A87B42" stroke-width="0.2" stroke-linecap="round"/>
<path d="M67.1781 67.7702L67.6046 67.5005" stroke="#A87B42" stroke-width="0.2" stroke-linecap="round"/>
<path d="M68.347 68.0749L68.0252 67.6863" stroke="#A87B42" stroke-width="0.2" stroke-linecap="round"/>
<path d="M57.0254 72.9612L56.9086 72.4703" stroke="#A87B42" stroke-width="0.2" stroke-linecap="round"/>
<path d="M68.5624 67.137L68.4456 66.6461" stroke="#A87B42" stroke-width="0.2" stroke-linecap="round"/>
<path d="M68.9232 66.0418L69.347 66.1309" stroke="#A87B42" stroke-width="0.2" stroke-linecap="round"/>
<path d="M67.6405 68.0237L68.1342 68.1275" stroke="#A87B42" stroke-width="0.2" stroke-linecap="round"/>
<path d="M63.7815 70.2568L63.6647 69.7659" stroke="#A87B42" stroke-width="0.2" stroke-linecap="round"/>
<path d="M64.7002 71.364L64.3058 71.0492" stroke="#A87B42" stroke-width="0.2" stroke-linecap="round"/>
<path d="M63.9509 70.8573L64.0547 70.3635" stroke="#A87B42" stroke-width="0.2" stroke-linecap="round"/>
<path d="M63.5439 71.2874L63.7433 71.8449" stroke="#A87B42" stroke-width="0.2" stroke-linecap="round"/>
<path d="M64.5228 70.3875L64.8983 70.0505" stroke="#A87B42" stroke-width="0.2" stroke-linecap="round"/>
<path d="M48.4103 70.7484L47.92 70.868" stroke="#A87B42" stroke-width="0.2" stroke-linecap="round"/>
<path d="M69.1367 63.3593C67.9325 69.0863 60.7662 72.4274 53.1302 70.8218C45.4942 69.2163 40.1436 63.9219 41.4844 57.5451C42.6885 51.8182 49.8549 48.4771 57.4908 50.0826C65.1268 51.6881 70.6121 56.342 69.1367 63.3593Z" fill="#86CC29"/>
<path d="M62.5605 57.8516L56.402 60.1661L57.2326 56.2157L56.012 59.5685L54.4268 59.7508L54.2698 55.5928L53.933 59.647L53.4392 59.5431L52.2947 55.1775L52.8416 59.9331L50.008 56.2436L52.1402 60.8169L48.3975 58.9987L51.5426 61.2068L48.476 61.0777L51.9325 61.8044L47.4631 63.4428L52.3225 62.4021L49.6206 65.4433L53.2063 63.1035L52.0895 65.9624L54.1938 63.3111L54.1685 65.8839L55.1814 63.5188L55.6752 63.6226L55.936 67.2868L56.2728 63.2326L57.2351 66.0131L57.2604 63.4403L59.2103 66.4284L57.858 63.0503L61.1854 66.8437L58.4556 62.6604L63.4974 63.2048L58.6633 61.6728L62.5351 60.4244L58.3771 60.5814L62.5605 57.8516Z" fill="#75B620"/>
<path fill-rule="evenodd" clip-rule="evenodd" d="M62.076 56.5007C62.0945 56.5487 62.1126 56.5955 62.0805 56.6631L62.129 56.646C62.2087 56.6181 62.2475 56.6046 62.2754 56.5791C62.3019 56.5549 62.3185 56.52 62.3509 56.4519C62.3509 56.4519 62.3548 56.2839 62.2783 56.2475C62.2018 56.211 62.0738 56.32 62.0738 56.32C62.0365 56.3985 62.0565 56.4502 62.076 56.5007ZM59.5347 56.9527C59.4805 56.9011 59.4304 56.9037 59.379 56.9064C59.325 56.9092 59.2696 56.9121 59.2067 56.8522C59.2067 56.8522 59.1429 56.6967 59.2014 56.6353C59.2598 56.574 59.4183 56.63 59.4183 56.63C59.5304 56.7367 59.5304 56.7367 59.5336 56.9013L59.5347 56.9527ZM49.1026 61.1793C49.1449 61.15 49.1861 61.1214 49.2594 61.1368L49.2314 61.0936C49.1856 61.0226 49.1633 60.9881 49.1319 60.967C49.1022 60.9469 49.0644 60.939 48.9906 60.9235C48.9906 60.9235 48.8264 60.9591 48.8089 61.0421C48.7915 61.125 48.9275 61.2238 48.9275 61.2238C49.0125 61.2416 49.0581 61.2101 49.1026 61.1793ZM60.1155 64.1865C60.0423 64.1711 60.001 64.1997 59.9587 64.229C59.9142 64.2598 59.8686 64.2914 59.7837 64.2735C59.7837 64.2735 59.6477 64.1748 59.6651 64.0918C59.6825 64.0089 59.8468 63.9733 59.8468 63.9733C59.9205 63.9888 59.9584 63.9967 59.9881 64.0167C60.0194 64.0379 60.0417 64.0724 60.0876 64.1434L60.1155 64.1865ZM63.0562 64.8049C62.983 64.7895 62.9417 64.8181 62.8994 64.8474C62.8549 64.8781 62.8093 64.9097 62.7243 64.8919C62.7243 64.8919 62.5883 64.7931 62.6058 64.7101C62.6232 64.6272 62.7875 64.5916 62.7875 64.5916C62.8612 64.6071 62.8991 64.615 62.9288 64.6351C62.9601 64.6562 62.9824 64.6907 63.0282 64.7617L63.0562 64.8049ZM58.4512 55.9852C58.4833 55.9177 58.4652 55.8708 58.4467 55.8228C58.4272 55.7724 58.4072 55.7206 58.4445 55.6422C58.4445 55.6422 58.5725 55.5332 58.649 55.5696C58.7255 55.6061 58.7216 55.7741 58.7216 55.7741C58.6892 55.8421 58.6726 55.8771 58.6461 55.9012C58.6182 55.9268 58.5794 55.9403 58.4996 55.9682L58.4512 55.9852ZM53.3012 55.2983C53.3519 55.3073 53.4013 55.316 53.4425 55.3785L53.453 55.3282C53.4869 55.1671 53.4869 55.1671 53.4018 55.0378C53.4018 55.0378 53.26 54.9475 53.1892 54.9941C53.1185 55.0407 53.1455 55.2066 53.1455 55.2066C53.1933 55.2792 53.2479 55.2888 53.3012 55.2983ZM53.3299 57.6345C53.2555 57.6421 53.2248 57.6819 53.1934 57.7226C53.1604 57.7655 53.1266 57.8094 53.0402 57.8183C53.0402 57.8183 52.8806 57.7655 52.872 57.6812C52.8634 57.5969 53.009 57.513 53.009 57.513C53.084 57.5054 53.1224 57.5014 53.1568 57.5115C53.1931 57.522 53.2249 57.5482 53.2901 57.6019L53.3299 57.6345ZM56.2617 57.4451C56.3131 57.4424 56.3632 57.4398 56.4174 57.4913L56.4163 57.4399C56.4146 57.3555 56.4138 57.3144 56.3983 57.2799C56.3835 57.2473 56.3555 57.2206 56.3009 57.1686C56.3009 57.1686 56.1424 57.1126 56.084 57.174C56.0256 57.2354 56.0894 57.3909 56.0894 57.3909C56.1523 57.4508 56.2076 57.4479 56.2617 57.4451ZM59.6928 58.9446C59.7512 58.8979 59.7554 58.8479 59.7597 58.7966C59.7643 58.7427 59.7689 58.6874 59.8368 58.6332C59.8368 58.6332 59.9995 58.5912 60.0524 58.6574C60.1053 58.7236 60.0283 58.873 60.0283 58.873C59.9694 58.92 59.9392 58.9441 59.9048 58.9543C59.8686 58.9651 59.8277 58.9603 59.7438 58.9505L59.6928 58.9446ZM58.517 65.8921C58.4656 65.8919 58.4154 65.8918 58.3641 65.8373L58.3624 65.8887L58.3624 65.8887C58.3594 65.9731 58.358 66.0142 58.3716 66.0495C58.3845 66.0829 58.4111 66.1111 58.4627 66.1659L58.4627 66.1659C58.4627 66.1659 58.6179 66.2305 58.6796 66.1724C58.7413 66.1144 58.6861 65.9556 58.6861 65.9556C58.6266 65.8923 58.5711 65.8922 58.517 65.8921ZM51.3471 57.2938C51.277 57.2676 51.2319 57.2897 51.1857 57.3123C51.1371 57.3361 51.0872 57.3605 51.0059 57.33C51.0059 57.33 50.8863 57.2119 50.916 57.1326C50.9457 57.0532 51.1134 57.0426 51.1134 57.0426C51.2584 57.0969 51.2584 57.0969 51.3259 57.247L51.3471 57.2938ZM48.1222 57.2626C48.1442 57.2161 48.1658 57.1707 48.2369 57.1476L48.1912 57.1241C48.116 57.0854 48.0795 57.0666 48.0418 57.0639C48.006 57.0614 47.9693 57.0734 47.8976 57.0967C47.8976 57.0967 47.773 57.2095 47.7992 57.2901C47.8255 57.3706 47.9926 57.3885 47.9926 57.3885C48.0752 57.3616 48.099 57.3115 48.1222 57.2626ZM49.6102 64.0046C49.5391 64.0278 49.5176 64.0732 49.4955 64.1197C49.4723 64.1685 49.4485 64.2186 49.366 64.2455C49.366 64.2455 49.1988 64.2277 49.1726 64.1471C49.1463 64.0666 49.2709 63.9538 49.2709 63.9538C49.4182 63.9058 49.4182 63.9058 49.5645 63.9812L49.6102 64.0046ZM49.5439 59.1063C49.566 59.0598 49.5875 59.0144 49.6586 58.9912L49.6129 58.9678C49.4666 58.8924 49.4666 58.8924 49.3194 58.9404C49.3194 58.9404 49.1947 59.0532 49.221 59.1337C49.2472 59.2143 49.4144 59.2321 49.4144 59.2321C49.4969 59.2052 49.5207 59.1551 49.5439 59.1063ZM54.2123 67.6765C54.1854 67.7463 54.207 67.7916 54.2292 67.8381C54.2525 67.8869 54.2764 67.937 54.2451 68.018C54.2451 68.018 54.1259 68.1365 54.0468 68.106C53.9677 68.0755 53.9588 67.9077 53.9588 67.9077C54.0145 67.7632 54.0145 67.7632 54.1653 67.6972L54.2123 67.6765ZM51.9112 65.474C51.8891 65.4276 51.8675 65.3823 51.8944 65.3125L51.8473 65.3332L51.8473 65.3332C51.7699 65.367 51.7322 65.3835 51.7064 65.4111C51.6818 65.4372 51.6679 65.4733 51.6408 65.5436C51.6408 65.5436 51.6498 65.7115 51.7288 65.7419C51.8079 65.7724 51.9272 65.654 51.9272 65.654C51.9584 65.5729 51.9345 65.5229 51.9112 65.474ZM53.618 64.7359C53.5911 64.8057 53.6128 64.851 53.6349 64.8975C53.6582 64.9463 53.6821 64.9964 53.6509 65.0774C53.6509 65.0774 53.5316 65.1958 53.4525 65.1654C53.3735 65.1349 53.3645 64.967 53.3645 64.967C53.3916 64.8967 53.4055 64.8607 53.4301 64.8345C53.4559 64.807 53.4936 64.7905 53.571 64.7566L53.571 64.7566L53.618 64.7359ZM54.6153 65.1036C54.5931 65.0571 54.5715 65.0118 54.5984 64.942L54.5513 64.9627C54.4006 65.0287 54.4006 65.0287 54.3449 65.1732C54.3449 65.1732 54.3538 65.341 54.4329 65.3715C54.5119 65.402 54.6312 65.2835 54.6312 65.2835C54.6624 65.2025 54.6386 65.1524 54.6153 65.1036ZM63.1311 60.2746C63.184 60.3274 63.2342 60.3261 63.2856 60.3247C63.3397 60.3232 63.3951 60.3216 63.4565 60.383C63.4565 60.383 63.5164 60.5401 63.4565 60.6C63.3966 60.6599 63.2395 60.6 63.2395 60.6C63.1863 60.5467 63.1589 60.5194 63.145 60.4864C63.1303 60.4516 63.1305 60.4104 63.1309 60.326L63.1311 60.2746ZM62.0091 61.9329C61.9577 61.9343 61.9075 61.9357 61.8546 61.8828L61.8544 61.9342C61.854 62.0187 61.8538 62.0598 61.8685 62.0947C61.8824 62.1277 61.9098 62.155 61.963 62.2083C61.963 62.2083 62.1201 62.2682 62.18 62.2083C62.2399 62.1484 62.18 61.9913 62.18 61.9913C62.1186 61.9299 62.0632 61.9314 62.0091 61.9329ZM59.4786 65.223C59.5534 65.2245 59.5887 65.1887 59.6248 65.152C59.6627 65.1135 59.7016 65.074 59.7885 65.0757C59.7885 65.0757 59.9405 65.1474 59.9388 65.2321C59.9371 65.3169 59.7824 65.3825 59.7824 65.3825C59.7071 65.381 59.6684 65.3802 59.6355 65.3661C59.6007 65.3512 59.5724 65.3214 59.5141 65.2602L59.4786 65.223ZM56.3476 66.4572C56.2962 66.4586 56.246 66.46 56.1931 66.4071L56.1929 66.4585C56.1921 66.6231 56.1921 66.6231 56.3016 66.7325C56.3016 66.7325 56.4586 66.7924 56.5186 66.7325C56.5785 66.6726 56.5186 66.5156 56.5186 66.5156C56.4571 66.4541 56.4017 66.4557 56.3476 66.4572ZM59.4537 58.224C59.5066 58.2769 59.5568 58.2756 59.6082 58.2741C59.6623 58.2727 59.7178 58.2711 59.7792 58.3325C59.7792 58.3325 59.8391 58.4896 59.7792 58.5495C59.7192 58.6094 59.5622 58.5495 59.5622 58.5495C59.5089 58.4962 59.4816 58.4689 59.4676 58.4359C59.4529 58.4011 59.4531 58.3599 59.4535 58.2755L59.4537 58.224ZM50.8628 60.6537C50.8852 60.6074 50.9071 60.5621 50.9783 60.5395C50.8713 60.4841 50.8284 60.458 50.7838 60.4545C50.7481 60.4517 50.7112 60.4634 50.6394 60.4863C50.6394 60.4863 50.514 60.5982 50.5397 60.679C50.5654 60.7597 50.7324 60.7787 50.7324 60.7787C50.8152 60.7524 50.8393 60.7024 50.8628 60.6537Z" fill="#36491D"/>
<path d="M59.9843 62.7471C58.4557 62.6604 58.3422 64.1834 58.5342 64.7393C57.3546 63.9757 55.6753 63.6226 55.068 65.0418C54.1939 63.3111 52.7125 62.9997 51.5173 63.7795C51.7249 62.792 51.5426 61.2068 50.0613 60.8953C52.1402 60.8169 51.9014 59.5007 51.6152 58.4093C52.3479 59.8293 55.0245 59.3608 55.8298 57.9833C56.1159 59.0747 57.3896 60.3737 59.0787 59.6976C58.3772 60.5814 59.1572 61.7766 59.9843 62.7471Z" fill="#D0F79D"/>
<path opacity="0.4" d="M69.1985 62.81C67.4216 68.2404 60.5695 71.3548 53.3378 69.8343C46.1231 68.3173 40.9842 63.3375 41.6239 57.158C41.5252 57.4443 41.4438 57.7381 41.3805 58.0389C40.1036 64.1121 45.4942 69.2163 53.1302 70.8218C60.7662 72.4274 67.886 69.3074 69.0328 63.8531C69.1072 63.4992 69.1622 63.1515 69.1985 62.81Z" fill="#659A1E"/>
<path opacity="0.4" fill-rule="evenodd" clip-rule="evenodd" d="M42.0598 54.4864C44.1055 53.0535 47.0168 52.5209 51.1248 53.3847C59.5789 55.1622 65.026 60.8393 63.5506 67.8566C63.1029 69.9859 61.8219 71.7123 59.9546 72.9495C57.5722 73.3211 54.9287 73.2625 52.2212 72.6932C43.7671 70.9156 37.7532 65.4818 39.0939 59.105C39.4769 57.2838 40.5298 55.7179 42.0598 54.4864Z" fill="#487312"/>
<path opacity="0.4" d="M39.381 53.5383C36.459 54.8859 34.3462 57.1624 33.7407 60.042C33.6659 60.3976 33.612 60.7498 33.5781 61.0982C33.4759 61.3969 33.3914 61.7034 33.3254 62.0171C32.5365 65.7694 34.1409 69.1629 37.2065 71.6595C37.3041 71.4752 37.4003 71.2814 37.4942 71.0778C37.4206 71.2802 37.3544 71.5072 37.3065 71.7402C37.9074 72.2208 38.563 72.6675 39.2664 73.0763C40.5613 71.7103 42.3123 68.071 43.1953 66.2356C43.4621 65.6811 43.6498 65.291 43.7215 65.1784C43.4927 64.7164 42.8055 63.9283 41.9864 63.0404C42.1163 61.6439 42.271 60.3738 42.5211 59.7847C43.1447 58.3159 41.7161 57.1894 40.5896 58.618C41.1729 57.6522 41.7563 56.6864 41.8367 55.6804C41.9171 54.6745 40.4081 54.5539 39.8247 55.5197C39.7115 55.0608 39.6305 54.6677 39.562 54.3352C39.496 54.0148 39.4416 53.7506 39.381 53.5383Z" fill="#236B11"/>
<path d="M62.9528 68.2466C61.7486 73.9735 54.3612 77.2682 46.4525 75.6053C38.5438 73.9424 32.9721 68.6016 34.3129 62.2248C35.517 56.4978 42.9044 53.2032 50.8131 54.866C58.7218 56.5289 64.4282 61.2292 62.9528 68.2466Z" fill="#BD8F54"/>
<path d="M41.1604 73.7998L41.0566 74.2936" stroke="#A87B42" stroke-width="0.2" stroke-linecap="round"/>
<path d="M42.2161 73.6833L42.5055 74.0966" stroke="#A87B42" stroke-width="0.2" stroke-linecap="round"/>
<path d="M35.9618 69.0973L36.2512 69.5107" stroke="#A87B42" stroke-width="0.2" stroke-linecap="round"/>
<path d="M40.2583 73.6026L40.2767 73.0983" stroke="#A87B42" stroke-width="0.2" stroke-linecap="round"/>
<path d="M39.2167 73.2348L39.6431 72.9651" stroke="#A87B42" stroke-width="0.2" stroke-linecap="round"/>
<path d="M39.9967 74.43L40.4232 74.1603" stroke="#A87B42" stroke-width="0.2" stroke-linecap="round"/>
<path d="M43.9469 75.2606L44.3734 74.9909" stroke="#A87B42" stroke-width="0.2" stroke-linecap="round"/>
<path d="M37.6569 70.8443L38.0833 70.5746" stroke="#A87B42" stroke-width="0.2" stroke-linecap="round"/>
<path d="M37.4492 71.8319L37.8757 71.5622" stroke="#A87B42" stroke-width="0.2" stroke-linecap="round"/>
<path d="M51.0677 75.7266L51.4942 75.4569" stroke="#A87B42" stroke-width="0.2" stroke-linecap="round"/>
<path d="M52.4107 75.8268L52.1671 76.2912" stroke="#A87B42" stroke-width="0.2" stroke-linecap="round"/>
<path d="M49.0348 75.5858L49.3347 75.1801" stroke="#A87B42" stroke-width="0.2" stroke-linecap="round"/>
<path d="M36.6472 70.7416L36.9471 70.3358" stroke="#A87B42" stroke-width="0.2" stroke-linecap="round"/>
<path d="M60.3999 70.5796L60.6998 70.1738" stroke="#A87B42" stroke-width="0.2" stroke-linecap="round"/>
<path d="M56.3989 74.8945L56.6989 74.4888" stroke="#A87B42" stroke-width="0.2" stroke-linecap="round"/>
<path d="M49.2675 76.351L48.9288 75.9769" stroke="#A87B42" stroke-width="0.2" stroke-linecap="round"/>
<path d="M50.8892 76.5757L51.1509 77.0072" stroke="#A87B42" stroke-width="0.2" stroke-linecap="round"/>
<path d="M47.8973 76.0912L48.3238 75.8215" stroke="#A87B42" stroke-width="0.2" stroke-linecap="round"/>
<path d="M48.004 76.4165L47.9341 75.9168" stroke="#A87B42" stroke-width="0.2" stroke-linecap="round"/>
<path d="M60.2142 71.4623L60.6407 71.1926" stroke="#A87B42" stroke-width="0.2" stroke-linecap="round"/>
<path d="M61.3832 71.767L61.0613 71.3784" stroke="#A87B42" stroke-width="0.2" stroke-linecap="round"/>
<path d="M50.0615 76.6533L49.9448 76.1624" stroke="#A87B42" stroke-width="0.2" stroke-linecap="round"/>
<path d="M61.5985 70.8291L61.4818 70.3382" stroke="#A87B42" stroke-width="0.2" stroke-linecap="round"/>
<path d="M61.9593 69.7339L62.3832 69.823" stroke="#A87B42" stroke-width="0.2" stroke-linecap="round"/>
<path d="M60.6767 71.7157L61.1704 71.8196" stroke="#A87B42" stroke-width="0.2" stroke-linecap="round"/>
<path d="M56.8176 73.9488L56.7009 73.4579" stroke="#A87B42" stroke-width="0.2" stroke-linecap="round"/>
<path d="M57.7365 75.056L57.3421 74.7412" stroke="#A87B42" stroke-width="0.2" stroke-linecap="round"/>
<path d="M56.987 74.5494L57.0908 74.0555" stroke="#A87B42" stroke-width="0.2" stroke-linecap="round"/>
<path d="M56.58 74.9794L56.7794 75.5369" stroke="#A87B42" stroke-width="0.2" stroke-linecap="round"/>
<path d="M57.559 74.0795L57.9345 73.7425" stroke="#A87B42" stroke-width="0.2" stroke-linecap="round"/>
<path d="M41.4464 74.4405L40.9562 74.56" stroke="#A87B42" stroke-width="0.2" stroke-linecap="round"/>
<path d="M62.173 67.0513C60.9688 72.7783 53.8025 76.1194 46.1665 74.5139C38.5305 72.9083 33.1798 67.614 34.5206 61.2372C35.7248 55.5102 42.8911 52.1691 50.5271 53.7746C58.1631 55.3802 63.6484 60.034 62.173 67.0513Z" fill="#86CC29"/>
<path d="M55.5966 61.5436L49.4381 63.8581L50.2687 59.9078L49.0481 63.2605L47.4629 63.4428L47.306 59.2848L46.9692 63.339L46.4754 63.2352L45.3308 58.8695L45.8778 63.6251L43.0442 59.9356L45.1763 64.5089L41.4336 62.6907L44.5787 64.8989L41.5121 64.7697L44.9687 65.4965L40.4992 67.1348L45.3586 66.0941L42.6567 69.1353L46.2424 66.7955L45.1257 69.6545L47.23 67.0032L47.2046 69.576L48.2176 67.2108L48.7113 67.3147L48.9722 70.9788L49.309 66.9247L50.2712 69.7051L50.2965 67.1323L52.2464 70.1204L50.8942 66.7424L54.2216 70.5357L51.4918 66.3524L56.5335 66.8969L51.6994 65.3648L55.5713 64.1164L51.4133 64.2734L55.5966 61.5436Z" fill="#75B620"/>
<path fill-rule="evenodd" clip-rule="evenodd" d="M54.1246 59.9851C54.1431 60.0331 54.1612 60.0799 54.1291 60.1475L54.1775 60.1304C54.2573 60.1026 54.2961 60.089 54.324 60.0635C54.3505 60.0393 54.3671 60.0044 54.3995 59.9364C54.3995 59.9364 54.4034 59.7683 54.3269 59.7319C54.2504 59.6955 54.1224 59.8045 54.1224 59.8045C54.0851 59.8829 54.1051 59.9346 54.1246 59.9851ZM51.5833 60.4371C51.5291 60.3855 51.479 60.3882 51.4276 60.3908C51.3736 60.3937 51.3182 60.3966 51.2553 60.3367C51.2553 60.3367 51.1915 60.1811 51.2499 60.1198C51.3084 60.0584 51.4668 60.1144 51.4668 60.1144C51.579 60.2212 51.579 60.2212 51.5822 60.3857L51.5833 60.4371ZM41.1511 64.6637C41.1934 64.6344 41.2347 64.6058 41.3079 64.6212L41.28 64.5781C41.2342 64.5071 41.2119 64.4725 41.1805 64.4514C41.1508 64.4314 41.1129 64.4234 41.0392 64.4079C41.0392 64.4079 40.8749 64.4436 40.8575 64.5265C40.8401 64.6094 40.9761 64.7082 40.9761 64.7082C41.0611 64.7261 41.1067 64.6945 41.1511 64.6637ZM52.1641 67.671C52.0909 67.6556 52.0496 67.6842 52.0073 67.7135C51.9628 67.7443 51.9172 67.7758 51.8322 67.758C51.8322 67.758 51.6962 67.6592 51.7137 67.5763C51.7311 67.4933 51.8954 67.4577 51.8954 67.4577C51.9691 67.4732 52.007 67.4812 52.0367 67.5012C52.068 67.5223 52.0903 67.5568 52.1361 67.6278L52.1641 67.671ZM55.1048 68.2893C55.0316 68.2739 54.9903 68.3025 54.948 68.3318C54.9035 68.3626 54.8579 68.3942 54.7729 68.3763C54.7729 68.3763 54.6369 68.2775 54.6544 68.1946C54.6718 68.1117 54.8361 68.076 54.8361 68.076C54.9098 68.0915 54.9476 68.0995 54.9774 68.1195C55.0087 68.1406 55.031 68.1752 55.0768 68.2461L55.1048 68.2893ZM50.4997 59.4697C50.5319 59.4021 50.5138 59.3553 50.4952 59.3073C50.4758 59.2568 50.4558 59.2051 50.4931 59.1267C50.4931 59.1267 50.6211 59.0177 50.6976 59.0541C50.7741 59.0905 50.7702 59.2585 50.7702 59.2585C50.7378 59.3266 50.7212 59.3615 50.6947 59.3857C50.6668 59.4112 50.628 59.4248 50.5482 59.4526L50.4997 59.4697ZM45.3498 58.7827C45.4004 58.7917 45.4499 58.8004 45.491 58.8629L45.5016 58.8126C45.5355 58.6515 45.5355 58.6515 45.4504 58.5223C45.4504 58.5223 45.3086 58.4319 45.2378 58.4786C45.1671 58.5252 45.1941 58.6911 45.1941 58.6911C45.2419 58.7636 45.2965 58.7733 45.3498 58.7827ZM45.3785 61.1189C45.304 61.1265 45.2734 61.1663 45.242 61.2071C45.209 61.2499 45.1752 61.2939 45.0888 61.3027C45.0888 61.3027 44.9292 61.25 44.9206 61.1657C44.912 61.0814 45.0576 60.9974 45.0576 60.9974C45.1325 60.9898 45.171 60.9859 45.2054 60.9959C45.2417 61.0065 45.2735 61.0326 45.3387 61.0863L45.3785 61.1189ZM48.3102 60.9295C48.3616 60.9268 48.4118 60.9242 48.466 60.9758L48.4649 60.9244C48.4632 60.8399 48.4624 60.7988 48.4468 60.7643C48.4321 60.7317 48.4041 60.705 48.3495 60.6531C48.3495 60.6531 48.191 60.597 48.1326 60.6584C48.0742 60.7198 48.1379 60.8753 48.1379 60.8753C48.2008 60.9352 48.2562 60.9323 48.3102 60.9295ZM51.7413 62.429C51.7998 62.3823 51.804 62.3323 51.8083 62.281C51.8129 62.2271 51.8175 62.1718 51.8854 62.1176C51.8854 62.1176 52.0481 62.0756 52.101 62.1418C52.1539 62.208 52.0769 62.3574 52.0769 62.3574C52.018 62.4044 51.9878 62.4286 51.9534 62.4388C51.9172 62.4495 51.8763 62.4447 51.7924 62.4349L51.7413 62.429ZM50.5656 69.3765C50.5142 69.3764 50.4639 69.3762 50.4127 69.3218L50.4109 69.3731L50.4109 69.3731C50.408 69.4576 50.4065 69.4987 50.4202 69.5339C50.4331 69.5673 50.4596 69.5955 50.5113 69.6503L50.5113 69.6503C50.5113 69.6503 50.6665 69.715 50.7282 69.6569C50.7899 69.5988 50.7347 69.44 50.7347 69.44C50.6752 69.3768 50.6197 69.3766 50.5656 69.3765ZM43.3956 60.7783C43.3256 60.7521 43.2805 60.7741 43.2342 60.7968C43.1856 60.8205 43.1358 60.8449 43.0545 60.8145C43.0545 60.8145 42.9349 60.6964 42.9645 60.617C42.9942 60.5376 43.162 60.5271 43.162 60.5271C43.307 60.5813 43.307 60.5813 43.3745 60.7314L43.3956 60.7783ZM40.1708 60.747C40.1928 60.7005 40.2144 60.6552 40.2855 60.632L40.2397 60.6085C40.1646 60.5699 40.1281 60.551 40.0904 60.5484C40.0546 60.5458 40.0178 60.5578 39.9462 60.5811C39.9462 60.5811 39.8216 60.6939 39.8478 60.7745C39.8741 60.8551 40.0412 60.8729 40.0412 60.8729C40.1238 60.846 40.1476 60.7959 40.1708 60.747ZM41.6588 67.4891C41.5877 67.5122 41.5661 67.5576 41.5441 67.6041C41.5209 67.653 41.4971 67.7031 41.4145 67.73C41.4145 67.73 41.2474 67.7122 41.2212 67.6316C41.1949 67.551 41.3195 67.4382 41.3195 67.4382C41.4667 67.3903 41.4667 67.3903 41.6131 67.4656L41.6588 67.4891ZM41.5925 62.5907C41.6146 62.5442 41.6361 62.4988 41.7072 62.4757L41.6615 62.4522C41.5152 62.3769 41.5152 62.3769 41.3679 62.4248C41.3679 62.4248 41.2433 62.5376 41.2696 62.6182C41.2958 62.6988 41.4629 62.7166 41.4629 62.7166C41.5455 62.6897 41.5693 62.6396 41.5925 62.5907ZM46.2609 71.1609C46.234 71.2307 46.2556 71.2761 46.2778 71.3225C46.3011 71.3713 46.3249 71.4214 46.2937 71.5024C46.2937 71.5024 46.1744 71.6209 46.0954 71.5904C46.0163 71.5599 46.0074 71.3921 46.0074 71.3921C46.0631 71.2476 46.0631 71.2476 46.2138 71.1816L46.2609 71.1609ZM43.9598 68.9585C43.9377 68.912 43.916 68.8667 43.9429 68.7969L43.8959 68.8176L43.8959 68.8176C43.8185 68.8515 43.7808 68.868 43.755 68.8955C43.7304 68.9217 43.7165 68.9577 43.6894 69.028C43.6894 69.028 43.6984 69.1959 43.7774 69.2264C43.8565 69.2568 43.9758 69.1384 43.9758 69.1384C44.007 69.0574 43.9831 69.0073 43.9598 68.9585ZM45.6666 68.2203C45.6397 68.2901 45.6613 68.3355 45.6835 68.3819C45.7068 68.4307 45.7307 68.4808 45.6994 68.5618C45.6994 68.5618 45.5802 68.6803 45.5011 68.6498C45.422 68.6193 45.4131 68.4515 45.4131 68.4515C45.4402 68.3812 45.4541 68.3451 45.4786 68.319C45.5045 68.2914 45.5422 68.2749 45.6196 68.241L45.6196 68.241L45.6666 68.2203ZM46.6638 68.588C46.6417 68.5416 46.6201 68.4962 46.647 68.4264L46.5999 68.4471C46.4491 68.5131 46.4491 68.5131 46.3935 68.6576C46.3935 68.6576 46.4024 68.8254 46.4815 68.8559C46.5605 68.8864 46.6798 68.7679 46.6798 68.7679C46.711 68.6869 46.6871 68.6368 46.6638 68.588ZM55.1796 63.759C55.2325 63.8119 55.2827 63.8105 55.3342 63.8091C55.3883 63.8076 55.4437 63.8061 55.5051 63.8675C55.5051 63.8675 55.565 64.0245 55.5051 64.0845C55.4452 64.1444 55.2881 64.0845 55.2881 64.0845C55.2349 64.0312 55.2075 64.0038 55.1936 63.9708C55.1789 63.936 55.1791 63.8949 55.1795 63.8104L55.1796 63.759ZM54.0577 65.4174C54.0062 65.4188 53.956 65.4202 53.9031 65.3673L53.903 65.4187C53.9026 65.5032 53.9024 65.5443 53.9171 65.5791C53.931 65.6121 53.9584 65.6395 54.0116 65.6927C54.0116 65.6927 54.1687 65.7526 54.2286 65.6927C54.2885 65.6328 54.2286 65.4758 54.2286 65.4758C54.1672 65.4143 54.1118 65.4159 54.0577 65.4174ZM51.5272 68.7075C51.602 68.7089 51.6372 68.6732 51.6734 68.6365C51.7113 68.5979 51.7502 68.5584 51.8371 68.5601C51.8371 68.5601 51.9891 68.6319 51.9874 68.7166C51.9857 68.8013 51.831 68.8669 51.831 68.8669C51.7556 68.8654 51.717 68.8647 51.684 68.8505C51.6493 68.8356 51.621 68.8058 51.5627 68.7446L51.5272 68.7075ZM48.3962 69.9416C48.3448 69.943 48.2946 69.9444 48.2417 69.8915L48.2415 69.9429C48.2407 70.1075 48.2407 70.1075 48.3502 70.217C48.3502 70.217 48.5072 70.2769 48.5671 70.217C48.6271 70.157 48.5671 70 48.5671 70C48.5057 69.9386 48.4503 69.9401 48.3962 69.9416ZM51.5023 61.7085C51.5552 61.7614 51.6054 61.76 51.6568 61.7586C51.7109 61.7571 51.7663 61.7556 51.8277 61.817C51.8277 61.817 51.8877 61.974 51.8277 62.0339C51.7678 62.0939 51.6108 62.0339 51.6108 62.0339C51.5575 61.9807 51.5301 61.9533 51.5162 61.9203C51.5015 61.8855 51.5017 61.8444 51.5021 61.7599L51.5023 61.7085ZM42.9114 64.1381C42.9338 64.0918 42.9556 64.0466 43.0269 64.0239C42.9199 63.9685 42.877 63.9424 42.8324 63.9389C42.7967 63.9361 42.7598 63.9479 42.688 63.9707C42.688 63.9707 42.5626 64.0827 42.5883 64.1634C42.614 64.2442 42.781 64.2631 42.781 64.2631C42.8638 64.2368 42.8879 64.1868 42.9114 64.1381Z" fill="#36491D"/>
<path d="M53.0205 66.4391C51.4918 66.3524 51.3783 67.8754 51.5703 68.4314C50.3907 67.6677 48.7114 67.3147 48.1041 68.7338C47.23 67.0032 45.7487 66.6917 44.5534 67.4716C44.7611 66.4841 44.5788 64.8989 43.0974 64.5873C45.1764 64.5089 44.9375 63.1927 44.6514 62.1013C45.384 63.5213 48.0606 63.0528 48.8659 61.6753C49.152 62.7667 50.4258 64.0658 52.1148 63.3896C51.4133 64.2734 52.1933 65.4686 53.0205 66.4391Z" fill="#D0F79D"/>
<path opacity="0.4" d="M62.2348 66.5021C60.4579 71.9324 53.6058 75.0468 46.3741 73.5263C39.1593 72.0093 34.0204 67.0296 34.6602 60.85C34.5615 61.1363 34.48 61.4301 34.4167 61.731C33.1398 67.8041 38.5305 72.9084 46.1664 74.5139C53.8024 76.1194 60.9223 72.9994 62.0691 67.5451C62.1435 67.1913 62.1985 66.8436 62.2348 66.5021Z" fill="#659A1E"/>
<path opacity="0.4" d="M45.4018 29.5565C45.2037 29.5149 44.9599 29.4802 44.6759 29.4581M35.5791 32.1318C38.2298 30.4022 40.7801 29.7081 42.6941 29.5028" stroke="white" stroke-linecap="round"/>
<path opacity="0.4" d="M74.3836 51.1188C76.4624 51.2064 78.9239 53.0804 80.2617 55.0428M81.2461 57.7179C81.2561 57.4789 81.2282 57.2249 81.1667 56.9612" stroke="white" stroke-linecap="round"/>
<path opacity="0.4" d="M56.5818 51.954C58.5124 52.3599 61.5871 53.3216 63.8182 54.9143M65.4447 56.3956C65.3503 56.2809 65.251 56.1684 65.1473 56.0582" stroke="white" stroke-linecap="round"/>
<path opacity="0.4" d="M48.7342 54.9445C50.337 55.0321 53.2822 55.3852 54.9446 56.5937M56.4272 57.5933C56.3636 57.4957 56.2827 57.4021 56.1867 57.3122" stroke="white" stroke-linecap="round"/>
</g>
<defs>
<clipPath id="clip0">
<rect width="96" height="96" fill="white"/>
</clipPath>
</defs>
</svg>
