<svg width="96" height="96" viewBox="0 0 96 96" fill="none" xmlns="http://www.w3.org/2000/svg">
<rect width="96" height="96" fill="#F3C3D1"/>
<ellipse cx="48" cy="60" rx="40" ry="17" fill="#D69EAE"/>
<path d="M64.7914 36.2872C69.3858 49.2807 59.9825 60.8562 45.1841 66.0888C30.3857 71.3214 15.4485 68.8182 11.2017 55.2361C6.95481 41.6538 16.0106 30.6671 30.809 25.4345C45.6074 20.2019 60.197 23.2937 64.7914 36.2872Z" fill="#850E32"/>
<path opacity="0.4" fill-rule="evenodd" clip-rule="evenodd" d="M65.8656 40.9904C64.8228 50.3179 56.6165 58.1314 45.1983 62.1688C30.3999 67.4014 15.4628 64.8982 11.216 51.3161C10.7149 49.7137 10.399 48.1474 10.2559 46.6224C9.97261 49.3433 10.2604 52.226 11.2016 55.2362C15.4485 68.8183 30.3856 71.3215 45.184 66.0889C58.1693 61.4974 67.0005 52.0221 65.8656 40.9904Z" fill="#68102B"/>
<ellipse cx="15.9822" cy="55.2947" rx="1.66084" ry="1.46441" transform="rotate(29.617 15.9822 55.2947)" fill="#E8C677"/>
<path opacity="0.6" d="M21.6548 33.6006C24.4204 30.8348 30.1129 28.0691 35.6348 26.6801M42.2352 25.7603C41.4872 25.7603 40.7043 25.8069 39.8978 25.895" stroke="white" stroke-linecap="round"/>
<path opacity="0.4" fill-rule="evenodd" clip-rule="evenodd" d="M48.0976 64.9472C61.1855 59.2911 69.0766 48.406 64.7916 36.2874C64.3007 34.8992 63.6958 33.624 62.9887 32.46C59.44 31.9297 56.126 32.6372 53.6711 34.7463C43.6837 42.1555 40.609 56.7654 48.0976 64.9472Z" fill="#620923"/>
<path d="M79.5953 41.6197C80.8133 37.5545 81.8736 25.4397 70.0672 14.9965C63.8647 17.4743 57.5135 28.9706 58.2274 35.2174C59.0256 42.2017 63.6982 46.9742 68.2379 50.5827C73.5423 50.566 78.315 45.8934 79.5953 41.6197Z" fill="#7DB60F"/>
<path opacity="0.8" fill-rule="evenodd" clip-rule="evenodd" d="M69.2176 15.3909C64.1408 19.6042 59.7813 28.5204 60.3794 33.7531C61.1776 40.7374 64.8622 46.8411 69.4019 50.4497C69.5563 50.4492 69.7112 50.4436 69.8662 50.4332C69.3314 50.5292 68.7875 50.581 68.2379 50.5827C63.6983 46.9742 59.0257 42.2017 58.2275 35.2174C57.5461 29.2558 63.2996 18.5129 69.2176 15.3909Z" fill="#699B09"/>
<path d="M67.9885 53.5593L69.7017 22.114C69.7017 22.114 68.8865 51.0982 68.504 52.9108C68.1215 54.7233 67.9885 53.5593 67.9885 53.5593Z" fill="#8FC625"/>
<path opacity="0.6" d="M72.4121 20.0354C73.536 21.4237 75.5792 24.9319 76.6584 28.3319M77.3674 32.4406C77.3786 32.0408 77.3564 31.6209 77.3057 31.1868" stroke="white" stroke-linecap="round"/>
<path opacity="0.6" fill-rule="evenodd" clip-rule="evenodd" d="M66.1818 48.8606C66.6212 48.8712 67.0571 48.8757 67.4884 48.8757C71.6304 45.562 72.459 38.9344 70.802 34.7921C69.8396 32.3863 66.9637 27.6677 61.2866 24.169C59.1707 28.0091 57.8849 32.2183 58.2277 35.2174C58.9051 41.1446 62.3729 45.4789 66.1818 48.8606Z" fill="#689610"/>
<path d="M68.8417 34.7922C67.2655 30.852 60.5571 20.7086 44.8166 19.8801C41.503 25.6793 43.6848 38.6308 48.1308 43.0767C53.1016 48.0474 59.729 48.8758 65.5282 48.8758C69.6702 45.562 70.4988 38.9344 68.8417 34.7922Z" fill="#7DB60F"/>
<path opacity="0.8" fill-rule="evenodd" clip-rule="evenodd" d="M44.3972 20.7167C43.0444 27.174 45.1799 36.867 48.9043 40.5912C53.8751 45.5619 60.5576 48.0473 66.3567 48.0473C66.4771 47.951 66.5946 47.8505 66.7093 47.746C66.3505 48.1538 65.9571 48.5325 65.5282 48.8757C59.729 48.8757 53.1016 48.0473 48.1308 43.0766C43.8876 38.8335 41.7067 26.8429 44.3972 20.7167Z" fill="#699B09"/>
<path d="M67.1853 51.3612L48.9595 25.6793C48.9595 25.6793 66.3569 48.8758 67.1853 50.5327C68.0138 52.1896 67.1853 51.3612 67.1853 51.3612Z" fill="#8FC625"/>
<path opacity="0.6" d="M49.7878 22.3655C51.5315 22.7529 55.314 24.2278 58.2745 26.2179M61.3861 28.9931C61.1461 28.673 60.8675 28.3582 60.5577 28.05" stroke="white" stroke-linecap="round"/>
<path opacity="0.6" fill-rule="evenodd" clip-rule="evenodd" d="M79.598 41.6104C79.5971 41.6135 79.5962 41.6166 79.5953 41.6197C78.3149 45.8934 73.5422 50.566 68.2378 50.5827C67.4468 49.9539 66.6518 49.2899 65.8739 48.5849C65.7614 48.6845 65.6461 48.7815 65.5282 48.8759C59.8403 48.8759 53.3556 48.0789 48.4187 43.3583C50.078 40.0633 52.519 37.0551 55.6314 34.7462C55.7181 34.6716 55.8059 34.5989 55.8948 34.5278C55.967 34.4615 56.0405 34.3962 56.1152 34.332C61.4922 29.7121 71.4517 32.4465 78.5808 40.4134C78.718 40.5664 78.854 40.7214 78.9889 40.8783C79.107 41.0158 79.2234 41.1539 79.338 41.2924C79.4256 41.3981 79.5123 41.5041 79.598 41.6104Z" fill="#76A51C"/>
<path d="M81.5329 66.8531C73.646 74.8067 61.8358 77.7014 51.0557 67.9011C42.3237 59.9629 45.2253 44.426 55.6315 36.7062C61.379 31.7681 71.8365 34.5136 78.989 42.8384C86.1414 51.1632 86.8684 61.4724 81.5329 66.8531Z" fill="#991A3F"/>
<ellipse cx="69.066" cy="51.3654" rx="19.8728" ry="13.0831" transform="rotate(49.3316 69.066 51.3654)" fill="#FBA9B7"/>
<path d="M80.4559 65.9413C75.5044 70.1954 65.7559 66.9213 59.8758 58.1011C53.2591 50.3999 51.9844 41.7746 56.9358 37.5205C61.8359 33.6004 70.8993 34.7196 77.5161 42.4209C85.3564 51.5463 86.336 61.0412 80.4559 65.9413Z" fill="#F8E2E5"/>
<path d="M80.4558 63.981C75.5044 68.2351 67.7152 65.9412 61.8354 58.101C55.2187 50.3998 54.1408 41.6703 58.8956 38.5004C64.7756 34.5805 70.8994 36.6794 77.5161 44.3807C82.4162 51.2408 86.3361 58.101 80.4558 63.981Z" fill="#EAAB0A"/>
<path fill-rule="evenodd" clip-rule="evenodd" d="M64.3452 43.0891C64.8392 42.9964 65.1259 42.3145 64.9854 41.5662C64.845 40.8178 64.3306 40.2863 63.8366 40.379C63.3425 40.4717 63.0559 41.1536 63.1963 41.9019C63.3368 42.6503 63.8512 43.1818 64.3452 43.0891ZM68.2959 43.3601C68.7028 43.6553 69.4655 43.2978 69.9995 42.5617C70.5334 41.8256 70.6364 40.9896 70.2295 40.6945C69.8226 40.3993 69.0599 40.7568 68.526 41.4929C67.992 42.229 67.889 43.065 68.2959 43.3601ZM76.2685 56.5711C76.6754 56.8663 77.4838 56.4458 78.074 55.6321C78.6643 54.8183 78.813 53.9193 78.4061 53.6242C77.9992 53.329 77.1908 53.7495 76.6005 54.5632C76.0103 55.377 75.8616 56.276 76.2685 56.5711ZM79.8944 61.093C79.3041 61.9068 78.4957 62.3272 78.0888 62.0321C77.6819 61.737 77.8306 60.838 78.4209 60.0242C79.0112 59.2104 79.8196 58.79 80.2264 59.0851C80.6333 59.3802 80.4847 60.2792 79.8944 61.093ZM65.6218 57.4028C65.4219 58.04 65.0019 58.4756 64.6837 58.3758C64.3654 58.2759 64.2694 57.6785 64.4693 57.0413C64.6692 56.4041 65.0892 55.9685 65.4074 56.0683C65.7257 56.1681 65.8217 56.7656 65.6218 57.4028ZM69.2999 62.8592C69.6181 62.959 70.0382 62.5234 70.238 61.8862C70.4379 61.2491 70.3419 60.6516 70.0237 60.5518C69.7054 60.4519 69.2854 60.8875 69.0855 61.5247C68.8857 62.1619 68.9816 62.7594 69.2999 62.8592ZM72.0257 49.5153C72.3405 50.1632 72.2292 50.8665 71.7771 51.0862C71.3249 51.3059 70.7032 50.9588 70.3884 50.3109C70.0736 49.663 70.1849 48.9597 70.637 48.74C71.0891 48.5203 71.7108 48.8674 72.0257 49.5153ZM75.9929 45.0296C76.445 44.8099 76.6776 44.3562 76.5124 44.0162C76.3472 43.6763 75.8468 43.5788 75.3947 43.7984C74.9426 44.0181 74.71 44.4718 74.8752 44.8118C75.0404 45.1518 75.5408 45.2493 75.9929 45.0296ZM59.4911 43.2484C59.7811 43.8452 59.6497 44.5071 59.1976 44.7268C58.7455 44.9465 58.1439 44.6408 57.8539 44.044C57.5639 43.4472 57.6953 42.7853 58.1474 42.5656C58.5995 42.3459 59.2011 42.6516 59.4911 43.2484ZM72.257 60.5113C72.5854 60.3517 72.621 59.7477 72.3365 59.1622C72.052 58.5767 71.5552 58.2315 71.2267 58.3911C70.8983 58.5507 70.8627 59.1547 71.1472 59.7401C71.4317 60.3256 71.9286 60.6709 72.257 60.5113ZM64.6258 45.9837C65.2694 46.0813 65.7467 46.4531 65.692 46.8141C65.6372 47.1751 65.0711 47.3886 64.4275 47.291C63.7839 47.1933 63.3066 46.8215 63.3613 46.4605C63.4161 46.0995 63.9822 45.886 64.6258 45.9837ZM71.4381 46.4946C71.7971 46.5613 72.1845 46.0965 72.3033 45.4565C72.4222 44.8165 72.2275 44.2436 71.8685 44.1769C71.5095 44.1103 71.1221 44.575 71.0032 45.2151C70.8844 45.8551 71.0791 46.4279 71.4381 46.4946ZM62.3578 52.1282C61.8569 52.7527 61.133 53.004 60.7409 52.6895C60.3487 52.375 60.4369 51.6138 60.9378 50.9892C61.4387 50.3647 62.1626 50.1134 62.5548 50.4279C62.9469 50.7424 62.8587 51.5036 62.3578 52.1282ZM76.7494 50.7034C77.0611 50.9535 77.7427 50.6215 78.2717 49.962C78.8007 49.3024 78.9768 48.565 78.665 48.3149C78.3532 48.0649 77.6717 48.3968 77.1427 49.0564C76.6137 49.7159 76.4376 50.4533 76.7494 50.7034Z" fill="#FACD5D"/>
<path fill-rule="evenodd" clip-rule="evenodd" d="M66.8371 39.6974C67.1648 40.3718 67.1864 41.0372 66.8854 41.1835C66.5843 41.3298 66.0745 40.9016 65.7468 40.2272C65.4191 39.5527 65.3974 38.8873 65.6985 38.741C65.9996 38.5948 66.5093 39.0229 66.8371 39.6974ZM68.9873 46.7951C69.4408 46.5747 69.5427 45.8493 69.215 45.1748C68.8872 44.5004 68.2539 44.1323 67.8004 44.3526C67.347 44.573 67.245 45.2984 67.5728 45.9728C67.9005 46.6473 68.5338 47.0154 68.9873 46.7951ZM76.547 47.7327C76.2735 48.4309 75.6712 48.8479 75.2017 48.664C74.7323 48.48 74.5735 47.7649 74.847 47.0667C75.1205 46.3685 75.7228 45.9516 76.1923 46.1355C76.6617 46.3194 76.8206 47.0345 76.547 47.7327ZM67.0028 51.1691C66.7879 51.8875 66.2866 52.3721 65.8832 52.2514C65.4797 52.1307 65.3269 51.4505 65.5418 50.7321C65.7566 50.0136 66.2579 49.5291 66.6614 49.6497C67.0648 49.7704 67.2177 50.4507 67.0028 51.1691ZM72.6949 53.7311C73.3538 54.089 73.6929 54.7384 73.4522 55.1814C73.2115 55.6245 72.4822 55.6934 71.8233 55.3354C71.1644 54.9774 70.8253 54.3281 71.066 53.8851C71.3067 53.442 72.036 53.3731 72.6949 53.7311ZM63.5096 55.9243C63.963 55.7039 64.065 54.9786 63.7373 54.3041C63.4095 53.6296 62.7762 53.2615 62.3227 53.4819C61.8692 53.7022 61.7673 54.4276 62.095 55.1021C62.4228 55.7766 63.0561 56.1447 63.5096 55.9243ZM60.3039 41.0072C60.6509 41.373 61.3732 41.2513 61.9173 40.7353C62.4614 40.2193 62.6212 39.5044 62.2743 39.1386C61.9273 38.7727 61.205 38.8945 60.6609 39.4105C60.1168 39.9265 59.957 40.6413 60.3039 41.0072ZM63.3165 45.1749C63.6442 45.8494 63.6365 46.529 63.2992 46.6929C62.9619 46.8568 62.4228 46.4429 62.095 45.7684C61.7673 45.094 61.775 44.4144 62.1123 44.2505C62.4496 44.0866 62.9887 44.5005 63.3165 45.1749ZM58.4503 49.5805C58.7824 49.7549 59.2466 49.5247 59.4872 49.0665C59.7278 48.6083 59.6538 48.0954 59.3218 47.9211C58.9898 47.7467 58.5255 47.9769 58.2849 48.4351C58.0443 48.8934 58.1183 49.4062 58.4503 49.5805ZM74.094 63.6733C73.8534 64.1315 73.3892 64.3617 73.0572 64.1873C72.7251 64.013 72.6511 63.5002 72.8917 63.0419C73.1323 62.5837 73.5966 62.3535 73.9286 62.5279C74.2606 62.7022 74.3346 63.2151 74.094 63.6733ZM73.0572 51.4064C73.3892 51.5807 73.8534 51.3506 74.094 50.8923C74.3346 50.4341 74.2606 49.9213 73.9286 49.7469C73.5966 49.5726 73.1323 49.8027 72.8917 50.261C72.6511 50.7192 72.7251 51.232 73.0572 51.4064ZM74.094 43.5889C73.8534 44.0472 73.3892 44.2773 73.0572 44.103C72.7251 43.9286 72.6511 43.4158 72.8917 42.9576C73.1323 42.4993 73.5966 42.2692 73.9286 42.4435C74.2606 42.6179 74.3346 43.1307 74.094 43.5889ZM80.1251 53.708C80.3827 53.4356 80.1499 52.797 79.6051 52.2818C79.0602 51.7666 78.4097 51.5698 78.152 51.8423C77.8944 52.1147 78.1272 52.7533 78.672 53.2685C79.2169 53.7837 79.8674 53.9805 80.1251 53.708ZM76.3866 59.7931C76.6004 60.5118 76.4824 61.1811 76.123 61.2881C75.7636 61.3951 75.2988 60.8991 75.085 60.1804C74.8711 59.4617 74.9891 58.7923 75.3485 58.6854C75.7079 58.5784 76.1727 59.0743 76.3866 59.7931ZM67.6506 61.3272C67.9955 61.4745 68.5138 61.0348 68.8083 60.3452C69.1029 59.6556 69.062 58.9772 68.7172 58.8299C68.3723 58.6826 67.854 59.1222 67.5595 59.8119C67.2649 60.5015 67.3058 61.1799 67.6506 61.3272ZM68.5831 54.4491C68.3867 54.909 67.9479 55.1624 67.6031 55.0151C67.2582 54.8679 67.1378 54.3756 67.3342 53.9157C67.5307 53.4558 67.9695 53.2024 68.3143 53.3496C68.6592 53.4969 68.7795 53.9891 68.5831 54.4491ZM82.3423 57.0777C82.5666 56.7772 82.2615 56.1699 81.6606 55.7212C81.0598 55.2726 80.3908 55.1524 80.1665 55.4529C79.9421 55.7533 80.2473 56.3606 80.8481 56.8093C81.4489 57.258 82.1179 57.3782 82.3423 57.0777Z" fill="#AC955D"/>
<path opacity="0.6" d="M65.1599 39.4805C67.8948 39.6147 71.5024 42.2598 74.0231 44.8229M76.522 47.8874C76.3898 47.6693 76.2349 47.4371 76.0598 47.194" stroke="white" stroke-linecap="round"/>
<path opacity="0.4" fill-rule="evenodd" clip-rule="evenodd" d="M50.9385 63.982C61.7187 73.7822 73.5288 70.8876 81.4157 62.9339C83.694 60.6365 84.8668 57.4404 84.9062 53.8839C86.3585 59.3479 84.9942 63.8644 81.4157 66.8541C72.8199 74.0358 61.7187 77.7024 50.9385 67.9022C46.9121 64.2418 45.3593 58.9659 45.8751 53.5857C46.2705 57.5381 47.9003 61.22 50.9385 63.982Z" fill="#68102B"/>
</svg>
