<svg width="96" height="96" viewBox="0 0 96 96" fill="none" xmlns="http://www.w3.org/2000/svg">
<rect width="96" height="96" fill="#FFDCDE"/>
<ellipse cx="48" cy="61.5" rx="40" ry="17.5" fill="#F1BABD"/>
<path d="M64.1041 24.1337C61.757 23.6079 58.2592 23.8384 53.6719 29.0985C58.9407 33.4002 64.0446 28.9779 64.996 27.2706C65.4979 26.3697 65.9864 25.6439 65.3354 25.6017C65.6819 25.2973 65.5274 24.4525 64.1041 24.1337Z" fill="#50870B"/>
<path d="M64.989 25.906C61.5667 28.2999 55.4065 29.1989 52.4144 29.0588L52.7189 29.4053C55.4069 29.319 61.8712 28.6464 64.989 25.906Z" fill="#61981B"/>
<path opacity="0.4" fill-rule="evenodd" clip-rule="evenodd" d="M54.0753 28.7641C59.1939 32.5938 63.6924 28.7212 64.6216 27.0535C64.7273 26.8639 64.8627 26.642 65.0047 26.4094C65.1627 26.1508 65.3287 25.8789 65.4707 25.6235C65.9935 25.6881 65.6659 26.2661 65.2398 27.0176C65.1899 27.1056 65.1386 27.196 65.0873 27.2882C64.1359 28.9956 59.032 33.4179 53.7632 29.1162C53.8678 28.9962 53.9719 28.8789 54.0753 28.7641Z" fill="#46730D"/>
<path d="M47.4347 20.9697C45.3706 21.9755 44.1193 25.803 45.8406 32.1668C53.0683 30.3312 51.9822 22.1255 51.004 21.376C50.2307 20.7835 49.5943 20.6839 49.2194 21.1729C49.1623 20.741 48.6732 20.3663 47.4347 20.9697Z" fill="#50870B"/>
<path d="M49.2764 21.6046C49.3591 25.5487 46.4948 30.4689 45.0913 33.1449L45.5232 33.0877C46.5329 30.7568 49.791 25.4915 49.2764 21.6046Z" fill="#61981B"/>
<path opacity="0.4" fill-rule="evenodd" clip-rule="evenodd" d="M45.7631 31.8752C50.9864 30.1914 51.6308 24.3999 51.2052 21.6334C52.0923 23.2288 52.5686 30.4579 45.8403 32.1667C45.8139 32.0689 45.7881 31.9718 45.7631 31.8752Z" fill="#46730D"/>
<path d="M57.3558 13.3455C56.5102 17.3166 50.8845 21.4559 52.2718 28.8675C58.5491 27.239 60.4813 18.1622 57.9228 13.4663C57.768 13.6173 57.5127 13.168 57.3558 13.3455Z" fill="#50870B"/>
<path d="M57.7756 15.1499C56.2203 21.1305 53.8627 27.9562 50.9895 30.3095L51.6776 29.863C54.5508 27.5097 56.6885 20.2556 57.7756 15.1499Z" fill="#61981B"/>
<path opacity="0.4" fill-rule="evenodd" clip-rule="evenodd" d="M52.2238 28.5961C56.027 27.1218 58.6183 22.0511 58.9978 17.5519C59.2674 22.1779 57.0045 27.6397 52.2718 28.8676C52.2547 28.7766 52.2388 28.6861 52.2238 28.5961Z" fill="#46730D"/>
<path d="M53.0291 28.9364L42.1326 33.318L41.3419 34.3461L54.8478 28.699L53.0291 28.9364Z" fill="#877B0B"/>
<path opacity="0.6" d="M62.6762 24.9028C62.6075 24.9118 62.5385 24.9216 62.4696 24.9321M58.248 26.4056C58.8019 26.032 60.1846 25.4275 61.6613 25.0878" stroke="white" stroke-width="0.3" stroke-linecap="round"/>
<path opacity="0.6" d="M55.7012 18.2292C55.65 18.2959 55.5976 18.3683 55.5444 18.4457M53.6772 22.5628C53.8073 21.8933 54.4122 20.4227 55.0376 19.282" stroke="white" stroke-width="0.3" stroke-linecap="round"/>
<path opacity="0.6" d="M47.7808 21.7559C47.7381 21.7923 47.6948 21.8308 47.6508 21.8716M45.774 25.0893C46.1945 23.834 46.6953 22.9751 47.1706 22.3884" stroke="white" stroke-width="0.3" stroke-linecap="round"/>
<path fill-rule="evenodd" clip-rule="evenodd" d="M53.7598 49.5951C56.1366 36.4939 52.1691 28.7372 38.0247 26.7124C29.7032 25.2027 22.96 30.5262 19.8387 38.146C19.4094 37.8478 19.078 37.45 18.7224 37.023C17.9177 36.0568 16.9886 34.9411 14.5178 34.4929C14.7861 35.029 15.0132 35.5936 15.2375 36.1512C15.7728 37.4817 16.292 38.7722 17.316 39.5396C15.7905 38.8502 13.466 38.0158 12.1226 38.5974C12.389 38.8544 12.6927 39.1974 13.0235 39.5711C14.0008 40.675 15.2153 42.047 16.4091 42.2635C15.2266 42.5045 14.1991 43.2766 13.3021 43.9506C12.574 44.4977 11.9319 44.9802 11.3625 45.0617C11.1885 46.0205 14.1229 46.5254 16.0114 46.7304C14.8994 47.2869 14.4825 48.2792 14.0928 49.2067C13.8462 49.7934 13.6105 50.3542 13.2167 50.7625C14.738 51.0384 15.5065 50.0788 16.3003 49.0876C16.787 48.4798 17.2833 47.8602 17.9685 47.5063C17.9093 56.0922 22.3681 63.928 30.9893 65.492C44.5183 67.9465 51.6682 61.1242 53.7598 49.5951Z" fill="#D02C40"/>
<path opacity="0.8" fill-rule="evenodd" clip-rule="evenodd" d="M49.5575 31.1388C54.2087 35.0454 55.277 41.231 53.7596 49.5949C52.6386 55.7739 50.0647 60.6009 45.8344 63.3724C41.8883 59.4087 40.5974 53.6295 41.4375 46.8287C42.3898 39.119 44.8619 33.789 49.5575 31.1388Z" fill="#BB2D3E"/>
<path fill-rule="evenodd" clip-rule="evenodd" d="M42.8377 45.5305C45.2077 32.4281 51.6441 26.5561 65.6 29.6218C73.9103 31.1251 78.3567 38.4567 78.6183 46.6729C78.881 46.5504 79.1385 46.4037 79.4062 46.2512C80.4987 45.6286 81.7602 44.9098 84.2312 45.3568C83.7919 45.7647 83.3811 46.2138 82.9755 46.6572C82.0074 47.7154 81.0685 48.7418 79.8405 49.1012C81.5108 48.9908 83.9803 49.0248 85.0343 50.0407C84.6946 50.188 84.29 50.4026 83.8491 50.6365C82.5467 51.3275 80.928 52.1861 79.7341 51.9702C80.757 52.6107 81.4483 53.6941 82.0519 54.6399C82.5418 55.4077 82.9739 56.0848 83.4785 56.3609C83.305 57.3198 80.38 56.7632 78.5396 56.2927C79.3857 57.2039 79.428 58.2794 79.4677 59.2847C79.4927 59.9206 79.5167 60.5285 79.7423 61.0489C78.2209 60.7737 77.8378 59.6055 77.4422 58.3988C77.2672 57.8652 77.0898 57.3241 76.8104 56.8494C73.7136 64.5309 66.9478 69.9179 58.5846 68.4051C45.0543 65.9576 40.752 57.0607 42.8377 45.5305Z" fill="#DB3247"/>
<path opacity="0.6" d="M62.2225 31.3029C67.1171 31.7924 71.1856 33.934 73.3824 37.3792M74.4029 39.4232C74.3292 39.2267 74.2504 39.0333 74.1664 38.8431" stroke="white" stroke-linecap="round"/>
<path opacity="0.6" fill-rule="evenodd" clip-rule="evenodd" d="M42.4024 48.9655C41.7235 58.805 46.4315 66.2067 58.5846 68.4051C66.9478 69.9179 73.7136 64.5309 76.8105 56.8494C77.0898 57.3241 77.2673 57.8652 77.4422 58.3988L77.4422 58.3988C77.8378 59.6055 78.2209 60.7737 79.7423 61.0489C79.5167 60.5285 79.4927 59.9206 79.4677 59.2847C79.4609 59.1137 79.4541 58.9406 79.4433 58.7667C78.2172 58.3828 77.8654 57.3097 77.503 56.2043C77.328 55.6707 77.1506 55.1295 76.8711 54.6548C73.7743 62.3364 67.0085 67.7234 58.6452 66.2106C47.4134 64.1789 42.5407 57.7028 42.4024 48.9655ZM79.5007 56.5208C81.2536 56.9035 83.3331 57.1648 83.4785 56.3609C82.9848 56.0908 82.5606 55.4369 82.0837 54.6898C81.0414 54.6605 79.6459 54.3655 78.6004 54.0982C79.2884 54.8392 79.4449 55.6887 79.5007 56.5208ZM81.6211 51.6919C82.379 51.4164 83.1585 51.0029 83.8491 50.6365L83.8492 50.6365C84.2901 50.4026 84.6947 50.188 85.0344 50.0407C84.4854 49.5116 83.5524 49.2488 82.5483 49.1341C81.5885 49.5816 80.5961 49.9206 79.7949 49.7757C80.5525 50.2501 81.1282 50.9674 81.6211 51.6919ZM82.7059 46.9512C82.7956 46.8538 82.8854 46.7557 82.9755 46.6572L82.9755 46.6572L82.9755 46.6572C83.3812 46.2137 83.7919 45.7647 84.2312 45.3568C83.4947 45.2236 82.8657 45.1939 82.3166 45.2344C81.5848 45.989 80.8248 46.6365 79.9012 46.9067C80.7296 46.8519 81.7545 46.8327 82.7059 46.9512Z" fill="#CA263A"/>
<path opacity="0.8" fill-rule="evenodd" clip-rule="evenodd" d="M54.097 47.4615C54.0047 48.1562 53.8923 48.8674 53.7603 49.5951C51.6687 61.1241 44.5188 67.9464 30.9898 65.492C26.0034 64.5874 22.4095 61.5847 20.2769 57.5524C20.5468 55.2114 21.3294 52.6466 22.7814 49.8635C26.023 43.6498 33.2203 42.9033 34.3817 42.9033H36.1218C35.9429 42.784 35.774 42.677 35.6154 42.5766C34.2316 41.7003 33.64 41.3257 34.1604 37.6831C36.3806 37.6831 37.2411 39.0429 38.3032 40.7214C38.6285 41.2354 38.9727 41.7793 39.3806 42.3232C38.2702 39.5473 38.9577 37.8341 40.035 35.1492C40.0832 35.0292 40.1321 34.9071 40.1817 34.783C44.0356 36.9845 44.0323 38.1415 44.0219 41.7236C44.0213 41.9163 44.0207 42.116 44.0207 42.3232C44.0207 41.1532 44.0568 41.2104 44.2901 41.5808C44.6353 42.1286 45.412 43.3613 47.1422 42.3232C47.4286 43.7556 47.9981 43.3486 48.5011 42.989C49.0166 42.6206 49.4622 42.3021 49.4622 44.0633C50.4777 41.5244 52.2134 39.8746 54.1858 39.8921C54.2888 40.6047 54.3548 41.3444 54.3853 42.1112C53.8646 42.7357 53.1033 43.052 52.3623 43.3599C51.5865 43.6823 50.8329 43.9954 50.4009 44.6433V45.2233C50.4901 45.3125 50.7973 45.4844 51.2557 45.741C51.94 46.1239 52.9612 46.6954 54.097 47.4615Z" fill="#BB2D3E"/>
<path d="M14.3712 64.819C16.6915 62.4989 21.9114 61.3389 25.9715 62.499C25.9715 65.3991 23.8731 68.2238 21.3314 70.0392C17.2712 72.9393 14.3711 71.7793 13.7911 70.6192C12.0512 70.0392 11.4709 67.719 14.3712 64.819Z" fill="#50870B"/>
<path opacity="0.4" fill-rule="evenodd" clip-rule="evenodd" d="M13.886 70.7793C14.641 71.8777 17.4584 72.8055 21.3313 70.0392C23.8731 68.2238 25.9714 65.3991 25.9714 62.499C25.9194 62.4841 25.8672 62.4696 25.8148 62.4555C24.8363 65.1123 22.433 68.1755 20.4611 69.584C17.8043 71.4816 15.396 71.3926 13.886 70.7793Z" fill="#44710B"/>
<path d="M16.1112 69.0041C17.0392 69.0041 23.6514 64.3639 26.5515 62.0439H27.1315C24.2315 63.7839 17.8513 69.0041 16.1112 69.0041Z" fill="#44710B"/>
<path opacity="0.6" d="M13.5009 67.2379C13.7967 66.8036 14.3629 66.0745 14.9819 65.494C15.1432 65.3427 15.3081 65.2015 15.4728 65.0782M16.1885 64.6746C16.1164 64.6993 16.0431 64.7302 15.9688 64.7668" stroke="white" stroke-width="0.3" stroke-linecap="round"/>
<path fill-rule="evenodd" clip-rule="evenodd" d="M25.9083 63.5083C25.9503 63.2149 25.9721 62.9198 25.9721 62.6238C24.0378 62.0712 21.8403 62.0451 19.8185 62.4202C22.0196 63.0962 24.3415 63.3436 25.9083 63.5083Z" fill="#497A0B"/>
<path d="M16.0767 55.0588C14.9569 55.2905 14.3873 53.9487 13.6874 54.0936C12.5102 62.5114 23.3735 63.2798 27.9025 62.8291C28.4093 61.7511 25.4648 58.8086 24.7891 58.3646C23.9444 57.8096 17.4764 54.7691 16.0767 55.0588Z" fill="#50870B"/>
<path opacity="0.4" fill-rule="evenodd" clip-rule="evenodd" d="M13.6203 54.7266C14.1262 61.5744 23.7453 63.0302 27.9565 62.6283C27.949 62.7006 27.9313 62.7678 27.9026 62.829C23.4898 63.2682 13.0637 62.5499 13.6203 54.7266Z" fill="#44710B"/>
<path d="M28.2916 62.6242C26.8305 62.3858 19.3021 58.7308 16.1112 56.824C17.2712 57.9838 28.2916 63.204 28.8716 63.204C29.4516 63.204 28.8716 62.6239 28.2916 62.6242Z" fill="#44710B"/>
<path opacity="0.6" d="M16.4011 55.6637C16.7922 55.6637 17.7636 55.9802 18.4971 56.3286M19.3012 56.8237C19.2377 56.7602 19.148 56.6923 19.0392 56.6225" stroke="white" stroke-width="0.3" stroke-linecap="round"/>
<path opacity="0.8" fill-rule="evenodd" clip-rule="evenodd" d="M45.1473 37.3051C43.919 39.8713 43.1156 43.015 42.66 46.7032C41.2236 58.3321 46.0176 66.974 59.6637 68.6596C60.3306 68.742 60.9851 68.7819 61.6264 68.7816C63.1957 66.0885 64.0963 62.5675 63.7407 57.9837C63.2092 51.1321 56.1 47.1536 53.5757 45.741C53.1173 45.4844 52.81 45.3125 52.7209 45.2233V44.6433C53.1528 43.9954 53.9064 43.6823 54.6823 43.3599C55.9901 42.8165 57.361 42.2468 57.361 40.0032C55.042 39.423 52.7209 39.423 51.5609 42.3232C51.5609 40.6618 51.9574 39.7935 52.3088 39.0242C52.6935 38.1821 53.024 37.4586 52.7209 35.943C52.4419 36.1104 52.1575 36.2778 51.8714 36.4463C49.1834 38.0286 46.3407 39.702 46.3407 42.3232V42.3201C46.3407 39.6223 46.3407 38.4618 45.1473 37.3051Z" fill="#C02639"/>
<path d="M62.5809 57.9837C63.8407 74.2242 49.3314 77.1243 45.1809 77.1243C41.0303 77.1243 34.7397 75.3843 31.9306 74.2242C25.402 71.5281 17.34 63.2039 24.2996 49.8635C27.5412 43.6498 35.8992 44.0633 37.0606 44.0633C38.222 44.0633 38.2206 44.0633 38.2206 43.4833C36.4806 42.3233 34.7405 41.743 35.3206 37.6831C38.2206 37.6831 38.8007 40.0032 40.5407 42.3233C39.3807 39.4232 39.9618 38.263 41.1207 35.363C45.1809 37.6824 45.1809 38.2627 45.1809 42.3201V42.3233C45.1809 39.423 48.661 37.6831 51.5611 35.9431C52.1411 38.8431 50.401 38.8431 50.401 42.3233C51.5611 39.423 53.8822 39.423 56.2012 40.0032C56.2012 43.5778 52.7211 42.9033 51.5611 44.6433V45.2233C52.1411 45.8034 61.9529 49.8878 62.5809 57.9837Z" fill="#DE4154"/>
<path opacity="0.6" d="M54.4365 49.0194C55.7822 49.5905 58.4799 51.7482 59.918 54.9893M60.7285 57.6677C60.6899 57.436 60.6439 57.208 60.5913 56.9837" stroke="white" stroke-linecap="round"/>
<path d="M28.5817 71.9041C25.2829 69.705 21.0414 64.9439 22.2016 57.9837C23.3618 51.0235 25.6815 45.2233 33.8018 44.6433C38.4661 44.3101 38.4419 45.2233 41.342 43.4833C43.082 45.2233 43.3108 43.4832 45.4021 43.4833C46.5622 43.4833 46.5622 45.8033 47.7227 46.3834C52.3628 48.1234 54.252 51.3395 55.2628 57.4036C57.003 67.844 48.3022 77.7043 41.342 76.5443C34.9618 75.4809 32.0618 74.2242 28.5817 71.9041Z" fill="#FED6DB"/>
<path d="M28.5814 70.1641C25.778 67.3608 22.2014 64.3639 23.3612 57.9837C24.5211 51.6035 25.6814 46.3834 33.8016 45.8033C38.466 45.4702 38.4414 46.3833 41.3415 44.6433C40.762 46.3834 42.502 46.3834 41.922 48.7034C40.762 49.8635 39.4242 49.8673 39.6019 51.6035C40.762 52.1835 40.1066 52.1298 40.762 53.3436C41.2033 54.161 43.082 54.5036 43.6621 57.9837C44.8221 55.0836 41.922 52.7636 40.762 51.0235C40.6742 50.27 42.2318 50.5101 42.502 49.8635C42.9479 48.7967 42.8524 48.0574 43.082 46.9634C43.4334 45.2893 45.0348 45.2233 45.4021 45.2233C46.5621 45.2234 45.9816 46.9634 47.1422 47.5434C51.7823 49.2835 53.0915 51.3396 54.1023 57.4037C55.6491 66.684 48.3021 75.9643 41.3419 75.3843C36.357 74.9689 31.4816 73.0642 28.5814 70.1641Z" fill="#F08592"/>
<path fill-rule="evenodd" clip-rule="evenodd" d="M36.8391 48.2268C36.9527 48.9327 37.5485 48.9869 38.2544 48.8733C38.9603 48.7597 39.5091 48.5214 39.3955 47.8155C39.2819 47.1096 38.6861 47.0554 37.9802 47.169C37.2742 47.2826 36.7255 47.5209 36.8391 48.2268ZM29.4447 50.7127C30.1597 50.7127 30.3078 50.1331 30.3078 49.4181C30.3078 48.7031 30.1597 48.1234 29.4447 48.1234C28.7297 48.1234 28.5816 48.7031 28.5816 49.4181C28.5816 50.1331 28.7297 50.7127 29.4447 50.7127ZM43.7706 62.6001C43.3499 63.1782 42.8892 63.5598 42.311 63.1392C41.7328 62.7185 41.9541 62.1627 42.3748 61.5845C42.7954 61.0063 43.2562 60.6247 43.8344 61.0454C44.4125 61.466 44.1913 62.0219 43.7706 62.6001ZM43.4995 73.3866C43.0788 73.9648 42.6181 74.3464 42.0399 73.9257C41.4617 73.505 41.683 72.9492 42.1036 72.371C42.5243 71.7929 42.985 71.4113 43.5632 71.8319C44.1414 72.2526 43.9201 72.8084 43.4995 73.3866ZM46.0922 55.8019C46.5135 56.3796 46.7354 56.9352 46.1577 57.3565C45.58 57.7778 45.1188 57.3968 44.6975 56.8191C44.2762 56.2414 44.0543 55.6858 44.632 55.2645C45.2097 54.8432 45.6709 55.2242 46.0922 55.8019ZM33.8798 55.708C34.5018 55.3554 34.3448 54.7781 33.9922 54.1561C33.6397 53.534 33.225 53.1028 32.603 53.4554C31.9809 53.8079 32.1379 54.3852 32.4905 55.0073C32.8431 55.6293 33.2577 56.0606 33.8798 55.708ZM26.0817 58.53C26.4342 59.1521 26.5912 59.7293 25.9692 60.0819C25.3471 60.4345 24.9325 60.0032 24.5799 59.3812C24.2274 58.7591 24.0704 58.1819 24.6924 57.8293C25.3145 57.4767 25.7291 57.908 26.0817 58.53ZM38.582 58.2041C39.1519 58.6358 39.6199 58.2632 40.0516 57.6932C40.4833 57.1232 40.7152 56.5717 40.1453 56.14C39.5753 55.7083 39.1073 56.081 38.6756 56.651C38.2439 57.221 38.012 57.7724 38.582 58.2041ZM50.4599 62.9581C50.0282 63.5281 49.5602 63.9007 48.9902 63.469C48.4202 63.0373 48.6521 62.4859 49.0838 61.9159C49.5155 61.3459 49.9835 60.9732 50.5535 61.4049C51.1235 61.8366 50.8916 62.3881 50.4599 62.9581ZM46.3746 52.3534C45.6687 52.467 45.0729 52.4129 44.9593 51.7069C44.8458 51.001 45.3945 50.7627 46.1004 50.6491C46.8064 50.5356 47.4022 50.5897 47.5157 51.2956C47.6293 52.0015 47.0806 52.2398 46.3746 52.3534ZM30.2623 63.7873C30.3759 64.4933 30.9717 64.5474 31.6777 64.4338C32.3836 64.3202 32.9323 64.0819 32.8188 63.376C32.7052 62.6701 32.1094 62.616 31.4034 62.7295C30.6975 62.8431 30.1488 63.0814 30.2623 63.7873ZM51.0156 58.1536C50.3097 58.2672 49.7139 58.213 49.6003 57.5071C49.4867 56.8012 50.0355 56.5629 50.7414 56.4493C51.4473 56.3357 52.0431 56.3898 52.1567 57.0958C52.2703 57.8017 51.7216 58.04 51.0156 58.1536ZM48.4402 67.9475C48.5538 68.6534 49.1496 68.7075 49.8556 68.594C50.5615 68.4804 51.1102 68.2421 50.9967 67.5362C50.8831 66.8302 50.2873 66.7761 49.5813 66.8897C48.8754 67.0033 48.3267 67.2415 48.4402 67.9475ZM45.2146 66.2739C44.5086 66.3874 43.9128 66.3333 43.7993 65.6274C43.6857 64.9215 44.2344 64.6832 44.9404 64.5696C45.6463 64.456 46.2421 64.5101 46.3557 65.2161C46.4693 65.922 45.9205 66.1603 45.2146 66.2739ZM38.0299 67.2397C38.1435 67.9457 38.7393 67.9998 39.4453 67.8862C40.1512 67.7726 40.6999 67.5343 40.5864 66.8284C40.4728 66.1225 39.877 66.0683 39.171 66.1819C38.4651 66.2955 37.9164 66.5338 38.0299 67.2397ZM45.2146 69.754C44.5086 69.8676 43.9128 69.8134 43.7993 69.1075C43.6857 68.4016 44.2344 68.1633 44.9404 68.0497C45.6463 67.9361 46.2421 67.9902 46.3557 68.6962C46.4693 69.4021 45.9205 69.6404 45.2146 69.754ZM27.6725 60.3348C27.7861 61.0408 28.3819 61.0949 29.0879 60.9813C29.7938 60.8677 30.3425 60.6294 30.229 59.9235C30.1154 59.2176 29.5196 59.1634 28.8137 59.277C28.1077 59.3906 27.559 59.6289 27.6725 60.3348ZM32.4542 72.074C31.7482 72.1876 31.1524 72.1335 31.0388 71.4275C30.9253 70.7216 31.474 70.4833 32.1799 70.3697C32.8859 70.2561 33.4817 70.3103 33.5953 71.0162C33.7088 71.7221 33.1601 71.9604 32.4542 72.074ZM33.359 62.1473C33.4726 62.8532 34.0684 62.9073 34.7743 62.7938C35.4802 62.6802 36.029 62.4419 35.9154 61.736C35.8018 61.03 35.206 60.9759 34.5001 61.0895C33.7942 61.2031 33.2454 61.4413 33.359 62.1473Z" fill="#E76675"/>
<path fill-rule="evenodd" clip-rule="evenodd" d="M34.1321 50.2812C33.5593 50.7092 33.0064 50.9375 32.5784 50.3647C32.1504 49.792 32.5261 49.3264 33.0988 48.8984C33.6716 48.4704 34.2245 48.2421 34.6525 48.8148C35.0805 49.3876 34.7049 49.8532 34.1321 50.2812ZM36.4791 53.6226C36.9071 54.1953 37.46 53.967 38.0328 53.539C38.6056 53.111 38.9812 52.6454 38.5532 52.0726C38.1252 51.4999 37.5723 51.7282 36.9995 52.1562C36.4267 52.5842 36.0511 53.0498 36.4791 53.6226ZM28.3142 53.3882C28.0824 54.0646 27.7543 54.5648 27.0779 54.333C26.4016 54.1011 26.4494 53.5048 26.6813 52.8284C26.9132 52.152 27.2412 51.6517 27.9176 51.8836C28.594 52.1155 28.5461 52.7118 28.3142 53.3882ZM50.4262 55.3847C51.1407 55.3567 51.2659 54.7717 51.2379 54.0572C51.2098 53.3427 51.0391 52.7694 50.3247 52.7974C49.6102 52.8255 49.485 53.4104 49.513 54.1249C49.5411 54.8394 49.7118 55.4128 50.4262 55.3847ZM47.4869 63.419C48.2014 63.391 48.3266 62.806 48.2986 62.0915C48.2705 61.3771 48.0998 60.8037 47.3853 60.8317C46.6709 60.8598 46.5457 61.4448 46.5737 62.1592C46.6018 62.8737 46.7725 63.4471 47.4869 63.419ZM30.0456 55.9085C30.7425 56.0684 31.2743 56.3423 31.1145 57.0392C30.9546 57.7361 30.3566 57.7509 29.6597 57.591C28.9627 57.4312 28.4309 57.1573 28.5907 56.4604C28.7506 55.7634 29.3487 55.7487 30.0456 55.9085ZM41.4716 64.8072C41.6315 64.1103 41.0996 63.8364 40.4027 63.6765C39.7058 63.5167 39.1077 63.5314 38.9479 64.2284C38.788 64.9253 39.3199 65.1992 40.0168 65.359C40.7137 65.5189 41.3118 65.5041 41.4716 64.8072ZM41.2659 68.8552C41.9628 69.015 42.4946 69.2889 42.3348 69.9858C42.1749 70.6828 41.5769 70.6975 40.88 70.5377C40.183 70.3778 39.6512 70.1039 39.811 69.407C39.9709 68.7101 40.5689 68.6953 41.2659 68.8552ZM48.6989 71.5843C48.8587 70.8874 48.3269 70.6135 47.6299 70.4536C46.933 70.2938 46.3349 70.3085 46.1751 71.0054C46.0153 71.7023 46.5471 71.9763 47.244 72.1361C47.9409 72.296 48.539 72.2812 48.6989 71.5843ZM39.9147 61.5082C39.6828 62.1846 39.3548 62.6849 38.6784 62.453C38.002 62.2212 38.0499 61.6249 38.2818 60.9485C38.5136 60.2721 38.8417 59.7718 39.5181 60.0037C40.1944 60.2355 40.1466 60.8319 39.9147 61.5082ZM35.1982 56.6529C35.8746 56.8847 36.2026 56.3844 36.4345 55.7081C36.6663 55.0317 36.7142 54.4354 36.0378 54.2035C35.3615 53.9716 35.0334 54.4719 34.8016 55.1483C34.5697 55.8247 34.5218 56.421 35.1982 56.6529ZM33.9029 59.1298C33.671 59.8062 33.343 60.3065 32.6666 60.0746C31.9902 59.8427 32.0381 59.2464 32.2699 58.57C32.5018 57.8937 32.8299 57.3934 33.5062 57.6252C34.1826 57.8571 34.1347 58.4534 33.9029 59.1298ZM33.5298 68.7057C34.2061 68.9376 34.5342 68.4373 34.766 67.7609C34.9979 67.0845 35.0458 66.4882 34.3694 66.2563C33.693 66.0245 33.365 66.5247 33.1331 67.2011C32.9013 67.8775 32.8534 68.4738 33.5298 68.7057ZM29.4742 66.1486C29.2423 66.8249 28.9142 67.3252 28.2379 67.0934C27.5615 66.8615 27.6094 66.2652 27.8412 65.5888C28.0731 64.9124 28.4011 64.4121 29.0775 64.644C29.7539 64.8759 29.706 65.4722 29.4742 66.1486ZM24.7579 62.4532C25.4343 62.6851 25.7623 62.1848 25.9942 61.5084C26.2261 60.8321 26.2739 60.2357 25.5976 60.0039C24.9212 59.772 24.5931 60.2723 24.3613 60.9487C24.1294 61.625 24.0815 62.2214 24.7579 62.4532ZM36.1368 71.4146C36.6298 71.9325 37.1517 71.64 37.6695 71.147C38.1874 70.654 38.5051 70.147 38.012 69.6292C37.519 69.1113 36.9971 69.4038 36.4792 69.8968C35.9614 70.3898 35.6437 70.8968 36.1368 71.4146Z" fill="#FF98A4"/>
<path opacity="0.4" fill-rule="evenodd" clip-rule="evenodd" d="M62.6295 58.7544C61.9412 72.2801 49.0531 74.8042 45.1809 74.8042C41.0304 74.8042 34.7398 73.0642 31.9307 71.9042C27.4233 70.0428 22.185 65.4986 21.6638 58.4732C21.0651 66.8241 26.945 72.1653 31.9308 74.2242C34.7398 75.3843 41.0305 77.1243 45.181 77.1243C49.265 77.1243 63.3784 74.3165 62.6295 58.7544ZM52.5802 45.8329C52.5235 45.8011 52.4688 45.7705 52.416 45.741C51.9575 45.4844 51.6503 45.3125 51.5612 45.2233V44.6433C51.9931 43.9954 52.7467 43.6823 53.5225 43.3599C54.7322 42.8573 55.9959 42.3322 56.1788 40.4807C55.2292 41.8968 54.0595 42.429 53.055 42.886C52.1121 43.315 51.3146 43.6778 50.9811 44.6433V45.2233C51.086 45.3282 51.5119 45.4719 52.1429 45.6847C52.2795 45.7308 52.4256 45.7801 52.5802 45.8329ZM50.4332 41.5433C50.5343 40.3703 50.8573 39.6631 51.1491 39.0243C51.5338 38.1822 51.8643 37.4586 51.5612 35.9431C51.5481 35.9509 51.5351 35.9587 51.522 35.9665C51.3821 36.6595 51.1549 37.3464 50.92 38.0565C50.4938 39.3449 50.0424 40.7094 50.0424 42.3232C50.1527 42.0475 50.2839 41.7876 50.4332 41.5433ZM41.2235 35.4218C41.1896 35.4023 41.1554 35.3828 41.1209 35.363C41.0662 35.4999 41.0128 35.6328 40.9608 35.7623C40.0129 38.1224 39.5333 39.3166 40.2626 41.56C40.4217 41.8331 40.5871 42.0899 40.7621 42.3232C39.842 40.0228 40.3823 37.7222 41.2235 35.4218ZM35.2911 37.9027C34.8564 41.3517 36.1725 42.183 37.6756 43.1325C37.8393 43.2359 38.0052 43.3407 38.1713 43.4505C38.2724 43.4309 38.3357 43.3995 38.3754 43.3494C38.4423 43.2651 38.4421 43.1275 38.4421 42.9033C37.1035 42.0109 35.634 40.432 35.2911 37.9027Z" fill="#D03144"/>
<path opacity="0.6" d="M24.5215 34.203C25.4918 32.7475 28.0854 30.0746 32.6417 28.8998M35.5418 28.4028C35.1535 28.4381 34.7759 28.4842 34.4089 28.5399" stroke="white" stroke-linecap="round"/>
</svg>
