<svg width="96" height="96" viewBox="0 0 96 96" fill="none" xmlns="http://www.w3.org/2000/svg">
<rect width="96" height="96" fill="#FFDFA3"/>
<ellipse cx="49" cy="60" rx="40" ry="17" fill="#F7C86F"/>
<path d="M62.6213 27.2979C56.8389 27.3659 51.0722 30.0332 48.5929 31.7766C48.9683 40.6509 38.2044 51.626 52.5228 58.4239C67.9555 65.7509 87.6701 58.0453 85.9041 46.4656C84.0281 34.1649 69.6499 27.2154 62.6213 27.2979Z" fill="#FEB03A"/>
<path opacity="0.6" d="M71.8533 31.8818C73.6158 32.8609 77.5634 35.5818 79.9321 38.1241M81.2991 39.8744C81.2372 39.7713 81.1707 39.6671 81.0997 39.5618" stroke="white" stroke-linecap="round"/>
<path fill-rule="evenodd" clip-rule="evenodd" d="M45.0841 47.8597C45.2997 51.265 47.1365 54.4135 52.5229 56.9708C66.9704 63.83 85.1706 57.5146 85.9865 47.1798C86.8556 58.3579 67.636 65.5992 52.5229 58.424C46.3779 55.5065 44.8527 51.8196 45.0841 47.8597Z" fill="#EFA12B"/>
<circle cx="80.5724" cy="47.8669" r="2.9064" fill="#E0A024"/>
<circle cx="80.5725" cy="47.8669" r="1.4532" fill="#CC9326"/>
<path fill-rule="evenodd" clip-rule="evenodd" d="M74.3629 59.9773C72.274 51.4144 62.1856 42.0541 50.0553 42.0541C48.7473 42.0541 47.4631 42.163 46.21 42.3679C44.4176 48.3292 43.5999 54.1876 52.5227 58.4239C59.7452 61.8529 67.9055 61.9895 74.3629 59.9773Z" fill="#ECA52D"/>
<path opacity="0.4" fill-rule="evenodd" clip-rule="evenodd" d="M64.3155 27.397C63.7151 27.325 63.1475 27.2918 62.6211 27.2979C56.8388 27.3658 51.0721 30.0331 48.5927 31.7766C48.7076 34.4917 47.7798 37.4035 46.8466 40.332C44.9088 46.4133 42.9478 52.5673 50.2518 57.1841C55.6208 53.9044 59.1375 49.2877 61.5609 45.1325C65.4388 38.4833 64.7072 32.8992 64.2976 29.773C64.1885 28.9399 64.1022 28.2814 64.1321 27.8238C64.2147 27.6821 64.2751 27.5391 64.3155 27.397Z" fill="#D29319"/>
<path d="M15.0118 44.4126C11.2929 45.6291 9.13317 45.2476 7.0357 43.899C6.61544 50.4249 12.5476 59.3329 25.586 61.1119C45.7954 63.8694 55.1966 53.5534 60.1079 45.1325C65.0191 36.7115 62.537 29.9989 62.6791 27.8238C63.4976 26.4203 62.1408 24.8767 60.6439 25.5084C58.3394 24.5603 43.2926 22.4566 35.8502 26.096C20.0628 33.8163 19.895 42.8153 15.0118 44.4126Z" fill="#FDB732"/>
<path opacity="0.4" fill-rule="evenodd" clip-rule="evenodd" d="M60.5866 44.2728C56.9434 42.026 52.6086 40.6009 47.8754 40.6009C34.7879 40.6009 23.4088 51.4967 22.5026 60.5313C23.4821 60.7698 24.5096 60.9651 25.5854 61.1119C45.7949 63.8694 55.196 53.5535 60.1073 45.1325C60.2756 44.8439 60.4353 44.5573 60.5866 44.2728Z" fill="#D59418"/>
<path d="M46.076 53.6247C42.3376 43.2843 62.7386 27.689 70.7319 20C70.9202 31.1133 54.3491 54.0546 46.076 53.6247Z" fill="#67A01F"/>
<path fill-rule="evenodd" clip-rule="evenodd" d="M46.9883 53.5836C55.5057 52.4397 70.9139 30.7185 70.7323 20C70.5982 20.129 70.4607 20.2601 70.3198 20.3935C68.9836 31.3826 55.1906 51.367 46.9883 53.5836Z" fill="#61971E"/>
<path d="M45.2004 55.5302L45.0352 54.8226C46.0558 53.6838 47.3863 52.162 48.8952 50.399L49.0845 50.1772C49.0845 50.1772 47.959 48.1708 48.2518 46.6102C48.3223 48.1617 49.169 50.1574 49.3863 49.7962L49.6525 49.5115C50.4529 48.5707 51.2945 47.5727 52.1595 46.5365C52.1595 46.5365 51.2092 44.2851 51.2133 42.9342C51.742 45.4153 52.3563 46.2572 52.3563 46.2572L52.8335 45.7272C53.8424 44.5127 54.8763 43.254 55.9085 41.9803C54.8734 40.8581 54.9264 38.7316 55.3273 37.1571C54.9264 38.7316 55.2716 41.2124 56.1362 41.7678L57.2249 40.3462C58.4463 38.8205 59.5957 37.0461 60.7341 35.5616C60.7341 35.5616 59.5605 33.5862 59.9613 32.0117C60.0448 33.8976 60.9995 35.4283 60.9995 35.4283C61.141 35.2426 61.32 35.0277 61.5016 34.8109L62.112 34.0602C62.9053 33.002 63.6542 31.9785 64.3408 31.0093C64.5951 30.6503 64.8409 30.2987 65.0771 29.9555C65.0319 29.9011 64.3558 28.8265 64.3129 28.09L64.5155 28.5844C64.8296 29.2052 65.2919 29.686 65.3616 29.5396C67.0194 27.0998 68.1585 25.125 68.4288 23.9921C68.3769 25.053 67.25 27.1078 65.5001 29.7062C65.4589 29.7673 66.3299 30.1801 67.6165 29.6017C67.061 30.4662 65.2965 30.0068 65.2566 30.0653C65.0871 30.3138 64.9123 30.5669 64.7325 30.8242C63.8491 32.0889 62.8465 33.4559 61.769 34.8811L61.1146 35.7352C61.1146 35.7352 62.9213 36.08 64.4385 35.4988C63.1731 36.5179 60.9146 35.973 60.9146 35.973L56.3416 41.8169C56.2964 41.8732 58.4206 42.0141 60.2416 41.0371C59.1306 41.8596 57.0007 42.3232 56.0653 42.1619C54.9674 43.5344 53.8038 45.0114 52.7468 46.3069C53.0063 46.4674 55.0347 46.5189 56.2847 45.4809C55.7423 46.3537 53.6196 46.8493 52.4708 46.5925L49.5824 50.1207L49.4888 50.235C49.6045 50.4225 52.0785 49.8622 53.4076 49.1372C52.1577 50.1751 49.7349 50.4093 49.254 50.5216L49.0953 50.7155C47.5491 52.6041 46.2007 54.2589 45.2004 55.5302Z" fill="#7CBE2A"/>
<path opacity="0.8" fill-rule="evenodd" clip-rule="evenodd" d="M61.7924 40.8442C58.4279 45.5135 54.5885 49.5869 51.1611 51.8185C51.7195 47.4615 56.1048 43.8526 61.7924 40.8442Z" fill="#5B9119"/>
<path d="M49.6598 53.7907C50.2875 42.8132 75.1769 36.4939 85.5493 32.5664C81.3535 42.8589 57.0978 57.4384 49.6598 53.7907Z" fill="#67A01F"/>
<path fill-rule="evenodd" clip-rule="evenodd" d="M50.5148 54.1116C58.7962 56.408 81.5028 42.4933 85.5495 32.5665C85.3756 32.6324 85.1976 32.6989 85.0156 32.7662C79.4669 42.3451 58.9282 55.2979 50.5148 54.1116Z" fill="#61971E"/>
<path d="M48.1055 55.1986L48.2318 54.483C49.6179 53.8371 51.4395 52.961 53.5201 51.9331L53.7814 51.8036C53.7814 51.8036 53.5352 49.5163 54.4179 48.1964C53.8729 49.6507 53.8668 51.8186 54.2086 51.5719L54.5653 51.4148C55.6712 50.8644 56.8373 50.2776 58.04 49.6649C58.04 49.6649 58.0513 47.2212 58.5861 45.9807C58.0969 48.4699 58.3308 49.4855 58.3308 49.4855L58.9779 49.1857C60.383 48.4656 61.8285 47.7148 63.2783 46.9494C62.7677 45.5107 63.6524 43.5762 64.64 42.2861C63.6524 43.5762 62.9946 45.993 63.5712 46.8435L65.1311 45.9644C66.854 45.0418 68.6084 43.862 70.2388 42.9446C70.2388 42.9446 69.9362 40.6669 70.9238 39.3768C70.2592 41.1436 70.5352 42.9264 70.5352 42.9264C70.7383 42.8112 70.9874 42.6841 71.2395 42.5561L72.096 42.1058C73.2414 41.4446 74.3324 40.798 75.3447 40.1767C75.7197 39.9466 76.0839 39.7199 76.436 39.4973C76.4158 39.4295 76.2166 38.1756 76.4668 37.4815L76.4586 38.0157C76.5034 38.71 76.7394 39.3339 76.8611 39.2268C79.3446 37.6351 81.1683 36.2671 81.8623 35.3317C81.3974 36.2868 79.5535 37.7331 76.9229 39.4343C76.861 39.4744 77.4997 40.1963 78.91 40.1703C78.0594 40.7468 76.6176 39.6307 76.5579 39.6688C76.3043 39.8307 76.0441 39.9946 75.7777 40.1606C74.4682 40.9761 73.0089 41.8389 71.4579 42.7258L70.5204 43.2539C70.5204 43.2539 72.0461 44.2812 73.6696 44.3432C72.1054 44.7827 70.243 43.3939 70.243 43.3939L63.7408 46.9694C63.6771 47.0034 65.5749 47.9681 67.6333 47.7856C66.2885 48.1051 64.1478 47.6941 63.3511 47.178C61.802 48.0084 60.1514 48.909 58.6703 49.6847C58.8458 49.9343 60.6906 50.779 62.248 50.316C61.4062 50.9053 59.2596 50.5265 58.3042 49.8387L54.2613 51.9474L54.1303 52.0157C54.1631 52.2335 56.658 52.691 58.1652 52.5468C56.6078 53.0098 54.2881 52.2727 53.8018 52.1869L53.5796 52.3028C51.4154 53.4315 49.5251 54.4229 48.1055 55.1986Z" fill="#7CBE2A"/>
<path fill-rule="evenodd" clip-rule="evenodd" d="M8.58515 44.6972C8.051 44.4933 7.54149 44.2243 7.0356 43.899C6.61534 50.4249 12.5475 59.3329 25.5859 61.1119C40.2951 63.1189 49.2786 58.2003 54.9727 52.1274C49.2354 57.5001 40.5541 61.5028 27.0391 59.6587C15.45 58.0774 9.47511 50.8639 8.58515 44.6972ZM25.2133 33.2455C23.4075 35.1631 22.1359 36.9553 21.0568 38.4761C19.9378 40.053 19.0259 41.3383 17.94 42.1692C18.4742 41.5209 19.0097 40.7662 19.6036 39.9293C20.9513 38.0299 22.5994 35.7072 25.2133 33.2455Z" fill="#E3AC41"/>
<path opacity="0.8" d="M67.0319 48.6043C62.7973 44.308 56.7609 41.0425 49.9986 40.6423C46.6177 45.2448 44.6913 49.7951 46.0758 53.6247C46.7509 53.6597 47.4811 53.5392 48.2531 53.2822C48.2317 53.4506 48.2161 53.6201 48.2063 53.7907C51.8701 55.5875 59.6145 52.9618 67.0319 48.6043Z" fill="#5B9119"/>
<path d="M73.3064 63.1255C69.6735 71.8447 59.5011 75.4777 48.6021 75.4777C36.9765 75.4777 26.8041 72.5713 23.8977 63.1255C23.8977 53.8958 34.9582 42.0541 48.6021 42.0541C62.2459 42.0541 73.3064 53.8958 73.3064 63.1255Z" fill="#FEBD41"/>
<path opacity="0.8" fill-rule="evenodd" clip-rule="evenodd" d="M73.237 61.8364C69.5453 70.4371 59.4324 74.0245 48.6021 74.0245C37.0616 74.0245 26.9531 71.1605 23.9627 61.8787C23.9196 62.2986 23.8977 62.7146 23.8977 63.1255C26.8041 72.5713 36.9765 75.4777 48.6021 75.4777C59.5011 75.4777 69.6735 71.8447 73.3064 63.1255C73.3064 62.7008 73.283 62.2707 73.237 61.8364Z" fill="#F0AB27"/>
<path fill-rule="evenodd" clip-rule="evenodd" d="M26.4473 68.0125C26.6526 67.5199 26.873 67.0181 27.1079 66.5086C26.4177 66.3032 25.7378 66.1108 25.0697 65.9309C24.8569 65.5389 24.6598 65.1324 24.4789 64.711C25.4909 64.9378 26.5309 65.1996 27.5896 65.4949C28.5202 63.5915 29.6416 61.5976 30.9288 59.5881C28.6605 59.0009 26.5892 58.5755 24.8001 58.3047C24.8526 58.159 24.9071 58.0132 24.9639 57.8674C26.8207 57.9021 29.0442 58.2008 31.4879 58.7302C32.7899 56.7659 34.2464 54.797 35.8343 52.8932C33.3535 52.0656 31.1047 51.4583 29.2008 51.0967C29.3267 50.9547 29.4545 50.8135 29.5842 50.6733C31.5519 50.8089 33.9388 51.2814 36.5685 52.0285C38.0684 50.2936 39.6768 48.623 41.3756 47.0715C39.172 46.513 37.1751 46.1164 35.4696 45.8589C35.5973 45.7809 35.7257 45.7039 35.8549 45.6279C37.6256 45.5983 39.7879 45.848 42.1861 46.3464C44.0004 44.7572 45.9111 43.3089 47.8973 42.0647C48.1315 42.0578 48.3665 42.0542 48.6023 42.0542C48.8199 42.0542 49.037 42.0572 49.2533 42.0632C47.2707 43.5023 45.3949 45.051 43.629 46.6695C45.615 47.1453 47.732 47.7761 49.9006 48.5465C52.0909 46.5503 54.3869 44.8093 56.7253 43.4685C56.9314 43.5413 57.1364 43.6167 57.34 43.6945C55.0906 45.3416 52.9935 47.1154 51.0465 48.9648C53.546 49.902 56.0946 51.0183 58.5733 52.2907C60.7021 50.6392 62.9009 49.2658 65.1172 48.2906C65.1544 48.3219 65.1915 48.3531 65.2285 48.3845C63.1963 49.7483 61.2797 51.2191 59.4772 52.7633C62.0281 54.1219 64.4881 55.6452 66.7243 57.3073C67.9845 56.2841 69.2717 55.3551 70.5749 54.5455C70.6924 54.7364 70.8064 54.9279 70.9169 55.12C69.7454 56.0229 68.6172 56.9592 67.5319 57.9213C69.7044 59.6113 71.6385 61.4361 73.2025 63.37C73.156 63.4768 73.1085 63.5829 73.06 63.6881C71.039 61.831 68.9233 60.1448 66.7593 58.6171C64.8473 60.366 63.0736 62.1919 61.4361 64.0495C64.0309 65.9047 66.3425 67.856 68.1837 69.837C68.0116 69.9742 67.8366 70.1087 67.659 70.2405C65.4093 68.4185 63.0181 66.6883 60.5562 65.0658C59.2312 66.6242 58.0008 68.199 56.8638 69.7639C58.5353 70.9414 60.0825 72.1811 61.4535 73.4711C61.2035 73.5597 60.9512 73.6452 60.6967 73.7277C59.2512 72.63 57.7642 71.594 56.2517 70.6182C55.1434 72.1863 54.1292 73.7395 53.2081 75.2515C52.7668 75.296 52.3228 75.3338 51.8766 75.3651C52.8742 73.5984 54.0093 71.7864 55.2566 69.9872C52.7558 68.428 50.1952 67.0307 47.645 65.7892C46.0911 67.9597 44.7172 70.1063 43.5203 72.1587C45.2818 73.1873 46.9601 74.2961 48.5062 75.4777C47.9229 75.4769 47.3433 75.4687 46.7682 75.4528C45.5065 74.6352 44.2311 73.8693 42.9503 73.1524C42.5764 73.8153 42.2214 74.4668 41.8854 75.1045C41.5566 75.065 41.2302 75.0221 40.9064 74.9758C41.2556 74.2198 41.6374 73.4449 42.0495 72.6567C39.9267 71.5083 37.7944 70.4924 35.6906 69.5972C35.0296 70.8787 34.4469 72.0995 33.9415 73.2387C33.7511 73.1653 33.5625 73.0899 33.3758 73.0124C33.7553 71.8389 34.2515 70.5732 34.8511 69.2457C32.4996 68.277 30.1903 67.4582 27.9767 66.7725C27.6257 67.4149 27.2958 68.0422 26.9872 68.6513C26.8014 68.444 26.6213 68.2311 26.4473 68.0125ZM35.3573 68.1614C33.0713 67.2272 30.7693 66.4246 28.5366 65.7665C29.5899 63.9086 30.8109 61.9406 32.1944 59.9271C34.2653 60.5001 36.4786 61.2011 38.775 62.0353C37.4543 64.1279 36.3018 66.2005 35.3573 68.1614ZM39.4334 61.0118C37.1492 60.2097 34.9151 59.5444 32.8159 59.0353C34.1418 57.1591 35.6066 55.2519 37.2064 53.3652C39.1154 54.041 41.1418 54.8368 43.2388 55.7419C41.871 57.4654 40.5945 59.2405 39.4334 61.0118ZM44.1145 54.6609C42.008 53.8036 39.9453 53.0596 37.9924 52.4525C39.4838 50.7474 41.0857 49.0659 42.7953 47.4464C44.7346 47.9788 46.8097 48.631 48.9686 49.4171C47.2693 51.0434 45.641 52.8149 44.1145 54.6609ZM36.2502 68.5334C38.415 69.4527 40.5553 70.4892 42.5983 71.6318C43.7368 69.5541 45.0729 67.402 46.5647 65.2722C44.302 64.2078 42.0553 63.2659 39.8738 62.4422C38.4936 64.547 37.2867 66.5998 36.2502 68.5334ZM40.5578 61.4162C42.795 62.24 45.0666 63.1904 47.2942 64.2495C48.474 62.6259 49.741 61.0244 51.0764 59.4884C48.8107 58.2992 46.5599 57.2126 44.3752 56.2401C42.9886 57.9688 41.7167 59.7059 40.5578 61.4162ZM45.2728 55.142C47.5332 56.0993 49.8297 57.1808 52.0825 58.358C53.8143 56.4583 55.6482 54.6808 57.5458 53.1136C55.0299 51.8489 52.5354 50.7674 50.1313 49.8504C48.386 51.5706 46.7671 53.3477 45.2728 55.142ZM53.1607 58.9306C54.8105 57.1053 56.5934 55.3165 58.5112 53.6074C60.9775 54.891 63.456 56.3522 65.8823 58.0082C63.9927 59.6198 62.171 61.434 60.4557 63.3623C58.1755 61.7947 55.7047 60.3036 53.1607 58.9306ZM48.3816 64.777C49.5456 63.2037 50.8039 61.6235 52.1577 60.0632C54.6342 61.3964 57.1189 62.8496 59.5452 64.408C58.2525 65.9246 57.0272 67.4996 55.8871 69.0922C53.5525 67.5246 51.0071 66.0762 48.3816 64.777Z" fill="#FCA21A"/>
<path opacity="0.6" d="M38.4297 46.1196C41.4997 44.6477 48.3166 43.8771 53.7119 44.8187M58.7734 46.3558C58.2481 46.0153 58.0296 45.8739 57.3324 45.6053" stroke="white" stroke-linecap="round"/>
<path opacity="0.6" d="M44.2425 26.069C44.0101 26.1077 43.7675 26.1513 43.5159 26.2M28.9839 33.3349C31.1632 30.2839 36.2021 28.1317 40.4249 26.9394" stroke="white" stroke-linecap="round"/>
</svg>
