<svg width="96" height="96" viewBox="0 0 96 96" fill="none" xmlns="http://www.w3.org/2000/svg">
<rect width="96" height="96" fill="#FFEDAD"/>
<ellipse cx="48" cy="64" rx="40" ry="10" fill="#EFD780"/>
<path d="M54 48C54 60.5 44.3888 65 35 65C25.6112 65 22 57.3888 22 48C22 37.5 25.6112 31 35 31C44.3888 31 54 36 54 48Z" fill="#E31B22"/>
<path opacity="0.6" d="M26.5 38C27.7562 36.7438 29.7136 35.137 32.666 34.3542M34.5 34C34.4187 34.0102 34.3381 34.0209 34.2581 34.0323" stroke="white" stroke-linecap="round"/>
<path fill-rule="evenodd" clip-rule="evenodd" d="M53.9781 47.0196C53.4681 58.7457 44.129 63 35 63C25.9291 63 22.2512 55.8955 22.0125 46.9473C22.0041 47.2936 22 47.6445 22 48C22 57.3889 25.6112 65 35 65C44.3888 65 54 60.5 54 48C54 47.6679 53.9926 47.3411 53.9781 47.0196Z" fill="#D10F16"/>
<path opacity="0.4" fill-rule="evenodd" clip-rule="evenodd" d="M28.0193 63.0811C29.8598 64.3069 32.1668 65 35 65C44.3889 65 54 60.5 54 48C54 36 44.3889 31 35 31C34.6771 31 34.361 31.0077 34.0517 31.023C34.2618 32.477 35.0809 32.7848 35.9078 33.0954C36.513 33.3228 37.1223 33.5517 37.5001 34.2327C38.8829 38.1048 41.4897 40.9877 45.4897 42.114C43.2961 44.1336 42.0001 47.0134 42.0001 51C42.0001 52.9208 42.1681 54.79 42.5365 56.5558C36.7958 56.3145 30.8194 58.0008 28.0193 63.0811Z" fill="#A40C11"/>
<path d="M22.8942 48.2466L23.5079 51.1831L24.5073 50.4634L29.9132 48.8228L29.7086 47.8439L24.0981 48.5057L22.8942 48.2466Z" fill="#C57619"/>
<path fill-rule="evenodd" clip-rule="evenodd" d="M22.9806 48.6603L22.8942 48.2466L24.0981 48.5058L29.7086 47.8439L29.8049 48.3048L23.9999 49L22.9806 48.6603Z" fill="#BC6C0E"/>
<path d="M27 44.2499C28.5642 45.3833 31.0631 48.7454 28.5445 53.1265" stroke="#BA2127" stroke-linecap="round"/>
<path d="M26.4834 69.2341C28 54.5 47.2699 56.0953 54 61C50.0602 71.6292 37.6296 73.1474 35.0001 72.5C32.0896 71.7834 29.1934 68.9734 26.4834 69.2341Z" fill="#59911B"/>
<path opacity="0.4" d="M32.3127 61.7352C32.235 61.8157 32.1573 61.8961 32.0797 61.9767M31.1743 62.9312C30.5007 63.6592 29.8495 64.4184 29.2609 65.2647" stroke="white" stroke-width="0.5" stroke-linecap="round"/>
<path opacity="0.4" fill-rule="evenodd" clip-rule="evenodd" d="M42.6479 57.5607C47.1325 57.7688 51.4596 59.1486 54 61C52.9801 63.7516 51.3912 65.8926 49.5506 67.5435C45.7767 65.3181 43.6256 61.7517 42.6479 57.5607Z" fill="#45740F"/>
<path fill-rule="evenodd" clip-rule="evenodd" d="M26.6121 68.2661C26.5605 68.5806 26.5175 68.9033 26.4834 69.2341C28.0704 69.0815 29.7212 69.9818 31.4013 70.8981C32.5903 71.5466 33.794 72.2031 35.0001 72.5C37.6297 73.1474 50.0602 71.6293 54 61C53.8881 60.9185 53.7728 60.8378 53.6541 60.7582C49.4351 70.7427 37.5062 72.178 34.9366 71.5453C33.7305 71.2484 32.5269 70.5919 31.3379 69.9435C29.7254 69.0641 28.14 68.1994 26.6121 68.2661Z" fill="#4B8708"/>
<path d="M52.4046 61.56L52.5241 61.0745C48.5255 61.9781 35.6806 64.6515 34.2315 66.3545C38.3472 64.2782 46.9519 62.7922 52.4046 61.56Z" fill="#84C240"/>
<path opacity="0.4" fill-rule="evenodd" clip-rule="evenodd" d="M53.7858 61.5489C49.6287 71.6816 37.5837 73.1361 35.0001 72.5C34.4047 72.3534 33.8099 72.1192 33.2172 71.8416C35.4498 63.472 46.5005 60.7394 53.7858 61.5489Z" fill="#42730B"/>
<path d="M34.0208 78.7711C30.9156 63.6196 50.0031 60.1532 57.8946 62.8131C56.7592 66.2202 55.1359 68.4489 53.5 70C50.2447 73.0867 46.546 73.4903 43.7889 75.1568C42.896 75.6965 40.5883 77.6078 40 78C38.5 79 36.5278 77.7095 34.0208 78.7711Z" fill="#649E24"/>
<path opacity="0.4" d="M36.3216 71C36.2487 71.0974 36.1782 71.2008 36.1101 71.3094M35.5594 72.3994C35.3291 72.9546 35.1385 73.5539 34.9857 74.1295" stroke="white" stroke-width="0.5" stroke-linecap="round"/>
<path fill-rule="evenodd" clip-rule="evenodd" d="M34.0553 72.5341C33.7195 74.203 33.7226 76.0824 34.154 78.1874C35.442 77.642 36.5888 77.7174 37.603 77.7841C38.5628 77.8472 39.4038 77.9025 40.1332 77.4163C40.3661 77.261 40.8684 76.8677 41.4457 76.4157C42.3268 75.7258 43.3826 74.8992 43.922 74.5731C44.9238 73.9676 46.0499 73.5288 47.2339 73.0674C49.3084 72.2591 51.5606 71.3814 53.6332 69.4163C55.1772 67.9522 56.7101 65.8846 57.832 62.7922C57.8529 62.7991 57.8737 62.8061 57.8945 62.8131C56.7591 66.2201 55.1358 68.4488 53.4999 70C51.4273 71.9651 49.1751 72.8427 47.1006 73.6511C45.9166 74.1125 44.7905 74.5513 43.7887 75.1568C43.2493 75.4828 42.1935 76.3095 41.3124 76.9994C40.7351 77.4514 40.2328 77.8447 39.9999 78C39.2705 78.4862 38.4295 78.4309 37.4697 78.3678C36.4555 78.3011 35.3087 78.2256 34.0207 78.7711C33.5382 76.417 33.5915 74.3449 34.0553 72.5341Z" fill="#5C951D"/>
<path d="M53.5 70C52.5 71 44.5 76 40 78C41.5 76.5 41.5 74.6 43.5 73C46 71 50 72 53.5 70Z" fill="#59901B"/>
<path d="M53.5 70C52 71.5 44.5 76 40 78C41.5 76.5 42 75.1 44 73.5C46.5 71.5 50 72 53.5 70Z" fill="#83B44D"/>
<path d="M58.5 61.4999L58.2962 61.0434C55.6952 64.2121 40.0979 71.7661 40 74C44.5 69 54.9533 65.8209 58.5 61.4999Z" fill="#84C240"/>
<path opacity="0.6" fill-rule="evenodd" clip-rule="evenodd" d="M44.8669 63.0072C49.5588 61.662 54.6646 61.7244 57.8946 62.8131C56.907 65.7767 55.5502 67.8487 54.1371 69.3587C49.7758 68.3075 46.7871 66.0286 44.8669 63.0072Z" fill="#558E14"/>
<path d="M79 51.5C79 61.4411 74.5 70 61 70C47.5 70 43 61.4411 43 51.5C43 41.5589 51.0589 38.5 61 38.5C70.9411 38.5 79 41.5589 79 51.5Z" fill="#F1222A"/>
<path fill-rule="evenodd" clip-rule="evenodd" d="M76.4381 62.5058C73.6572 66.1599 69.0589 68.5 62 68.5C48.5 68.5 44 59.9411 44 50C44 47.4994 44.5099 45.4343 45.4314 43.7438C43.8854 45.6659 43 48.2049 43 51.5001C43 61.4412 47.5 70.0001 61 70.0001C68.9828 70.0001 73.8187 67.0074 76.4381 62.5058Z" fill="#E10B13"/>
<path d="M62 34H59L59.5 35.5L60 43H61L61.5 35.5L62 34Z" fill="#C57619"/>
<path fill-rule="evenodd" clip-rule="evenodd" d="M60.5588 43L61 35.5L61.3 34H62L61.5 35.5L61 43H60.5588Z" fill="#BC6C0E"/>
<path d="M56 42.0352C57.243 43.2776 63.4118 43.3769 65 42" stroke="#CC1B22" stroke-linecap="round"/>
<path d="M35 30.2328C47 21.7328 57.5 31.7327 58.5 40.2327C47 44.2327 41 41.2327 38.5 34.2327C37.5236 32.4724 35 33.7327 35 30.2328Z" fill="#659E24"/>
<path fill-rule="evenodd" clip-rule="evenodd" d="M35.0772 30.1784C35.0515 30.1965 35.0257 30.2146 35 30.2328C35 32.3787 35.9487 32.7351 36.9077 33.0954C37.5129 33.3228 38.1223 33.5517 38.5 34.2327C41 41.2327 47 44.2327 58.5 40.2327C58.479 40.0543 58.4538 39.8751 58.4245 39.6955C47.2827 43.3892 40.958 40.1151 38.5 33.2327C38.1223 32.5517 37.5129 32.3228 36.9077 32.0954C36.1112 31.7962 35.3219 31.4996 35.0772 30.1784Z" fill="#599418"/>
<path d="M60 40.5C54.5 37.8573 46.5 32.5 41 31C49 34 55.6667 38.8333 60 41V40.5Z" fill="#84C240"/>
<path opacity="0.8" d="M69 41.5C72.6979 43.1435 75.3829 45.7999 76.5 50.0242M77 53C76.9657 52.5885 76.9197 52.1888 76.8622 51.8005" stroke="white" stroke-linecap="round"/>
<path opacity="0.8" d="M44 28.5C45.4407 28.5 48.6976 29.5378 50.9672 30.679M53 32C52.8642 31.8642 52.6957 31.7244 52.5 31.5823" stroke="white" stroke-width="0.5" stroke-linecap="round"/>
</svg>
