<svg width="96" height="96" viewBox="0 0 96 96" fill="none" xmlns="http://www.w3.org/2000/svg">
<rect width="96" height="96" fill="#F8CEAF"/>
<ellipse cx="49" cy="64" rx="42" ry="12" fill="#E6B38E"/>
<path d="M46.0976 42.8645C47.2685 41.7607 49.0651 39.4414 48.8819 39.0665C48.6786 38.6506 48.0593 38.4379 47.4401 38.2252C47.856 38.0219 48.4846 37.1994 48.6973 36.5801C48.891 36.0162 47.7128 35.2682 47.1865 35.2925C47.1852 35.2588 47.1839 35.2253 47.1824 35.1917C48.1644 34.1775 48.9036 32.8288 48.1155 32.2265C47.6071 31.838 47.4906 31.8485 47.3296 31.863C47.23 31.8719 47.1135 31.8824 46.877 31.8012C46.7005 31.4402 46.7991 30.8476 46.9001 30.2411C47.0317 29.4501 47.1673 28.6354 46.7017 28.2795C46.2458 27.9311 46.0397 28.0938 45.7703 28.3065C45.6082 28.4345 45.4232 28.5805 45.1471 28.6443C45.0738 28.5416 44.9982 28.4403 44.9204 28.3402C45.0277 27.7271 44.921 26.9186 44.234 26.3937C43.5105 25.8408 42.9371 26.4105 42.6647 26.9772C42.5696 27.0015 42.4756 27.0262 42.3829 27.0512C42.2456 26.9287 42.1127 26.7933 41.9798 26.658C41.4028 26.0704 40.8257 25.4828 39.8898 25.9403C38.6804 26.5314 39.025 27.3311 39.4176 28.1371C39.3935 28.1491 39.3695 28.1612 39.3456 28.1732C39.2312 28.1276 39.1107 28.0715 38.9851 28.013C38.447 27.7623 37.8169 27.4687 37.1814 27.7794C37.0499 28.1621 37.0774 28.4672 37.1153 28.8888C37.1363 29.1223 37.1606 29.3915 37.1628 29.7295C37.1485 29.7444 37.1344 29.7593 37.1203 29.7742C36.8629 29.3647 36.0997 28.8538 35.5081 29.6278C35.2506 30.3778 35.3761 30.7516 35.5131 31.1597C35.6023 31.4255 35.6964 31.7059 35.6928 32.1142C35.4894 31.6983 34.8702 31.4856 34.6575 32.1049C34.5512 32.4145 34.8053 32.9345 35.034 33.4024C35.2627 33.8704 35.4661 34.2863 35.2581 34.388C34.5503 34.1449 34.057 32.6192 33.6107 31.2388C33.276 30.2035 32.9677 29.2499 32.6151 28.9805C31.7926 28.3518 30.3414 28.5458 30.332 29.581C30.1287 29.165 29.9254 28.7491 29.3061 28.5364C28.7363 28.3407 28.5108 28.8495 28.3127 29.4144C28.189 29.4149 28.0628 29.4177 27.9341 29.423C27.5742 29.2372 27.3455 28.9998 27.155 28.8022C26.86 28.4961 26.6568 28.2853 26.2005 28.5084C25.7131 28.7465 25.6508 29.1307 25.5992 29.4489C25.5813 29.5588 25.5648 29.6608 25.5324 29.7462C25.451 29.7635 25.3688 29.7816 25.2857 29.8004C24.9021 29.0227 24.4959 28.3108 23.714 28.6929C23.2267 28.9311 23.3769 29.3882 23.5013 29.7669C23.5663 29.9649 23.6243 30.1415 23.5804 30.2541C23.5196 30.2725 23.4584 30.2912 23.3968 30.3103C23.1711 30.2114 23.0007 30.0584 22.838 29.9122C22.6059 29.7037 22.3895 29.5092 22.0502 29.5061C21.4408 29.5006 21.0056 30.532 21.2089 30.948C20.6854 30.7682 20.3469 30.5901 20.0991 30.4598C19.7605 30.2817 19.5913 30.1926 19.3511 30.31C18.9352 30.5133 17.8812 32.5744 19.1197 32.9997C17.8719 33.6096 17.4559 33.8129 17.2432 34.4322C17.0837 34.8966 17.6261 35.018 18.1686 35.1394C18.3494 35.1798 18.5302 35.2203 18.6851 35.2735C17.8531 35.6801 17.2245 36.5026 17.4277 36.9186C17.6152 37.3025 18.1573 37.5131 19.0532 37.5508C19.085 37.6569 19.1193 37.7621 19.1559 37.8663C19.1021 37.9794 19.042 38.0948 18.9819 38.2103C18.7491 38.6577 18.5163 39.105 18.6475 39.4144C18.8443 39.8785 19.4702 40.043 19.8862 39.8397C20.1244 40.327 20.0803 40.5987 20.0437 40.8237C20.0179 40.9828 19.9959 41.1186 20.08 41.2909C20.2766 41.6933 21.2516 41.7152 21.6917 41.5322C21.6973 41.5374 21.7029 41.5427 21.7085 41.5479C21.1175 42.3589 21.5212 43.1705 22.1318 43.3801C22.4414 43.4864 22.6494 43.3847 22.8574 43.2831C23.0654 43.1814 23.2734 43.0798 23.583 43.1861C23.1577 44.4246 23.361 44.8406 23.777 44.6373C24.1926 44.4342 25.0237 44.028 25.6427 44.2396C25.6431 44.2398 25.6435 44.24 25.6439 44.2402C25.4851 44.3177 25.2966 44.3347 25.1357 44.3492C24.8751 44.3726 24.6866 44.3896 24.8122 44.6467C24.8986 44.8234 24.9483 44.9251 25.0244 44.9999C25.1273 45.101 25.2787 45.153 25.6348 45.2753C25.4268 45.377 25.1172 45.2706 24.8075 45.1643C24.4979 45.0579 24.1883 44.9516 23.9803 45.0533C23.5643 45.2566 23.5577 45.4395 23.6753 45.6801C22.5291 45.2472 21.4572 45.7711 21.2812 45.8571C20.8653 46.0604 21.0685 46.4762 21.2717 46.8921C20.4507 47.0018 20.0293 46.9166 19.7426 46.8585C19.5226 46.8138 19.382 46.7853 19.2014 46.8736C18.7854 47.0769 19.3953 48.3248 19.5986 48.7408C18.1479 48.9347 17.9352 49.5535 17.7223 50.1727C17.5094 50.7921 18.1194 52.0404 19.1546 52.0498C18.4609 53.2388 18.8985 53.8749 19.1873 54.2946C19.2487 54.3839 19.3034 54.4633 19.3391 54.5363C19.5367 54.9405 20.9102 55.0947 21.3719 54.5995C21.3779 54.6045 21.384 54.6095 21.3901 54.6146C21.1969 55.2385 21.2069 56.2162 21.8066 56.4222C22.6293 57.0508 23.8772 56.4409 24.2932 56.2376C24.6998 57.0695 24.9031 57.4854 25.9383 57.4948C26.6601 57.5013 26.982 57.2023 27.2518 56.9517C27.3471 56.8631 27.4359 56.7806 27.5335 56.7198C27.5626 56.7196 27.5918 56.7192 27.621 56.7187C28.04 57.5138 29.0595 57.5231 30.0792 57.5322C30.3859 57.535 31.3674 57.3666 31.6884 56.0308C31.7563 56.01 31.8241 55.9888 31.892 55.9672C32.2114 56.6073 32.4127 56.9071 32.7783 56.7284C32.8609 56.688 33.4353 55.9101 33.8498 55.2311C37.7193 53.5618 41.3211 50.7697 43.6216 48.3368C44.4548 47.1423 45.3917 45.1755 46.0976 42.8645Z" fill="#5C9412"/>
<path d="M48.7965 38.9315C48.21 39.7965 47.2469 40.9436 46.5229 41.6261C46.3952 42.0443 46.2599 42.4512 46.119 42.8444C47.2902 41.7327 49.0641 39.4392 48.882 39.0665C48.8587 39.019 48.83 38.9741 48.7965 38.9315Z" fill="#508110"/>
<path d="M48.4042 37.1807C48.5287 36.9772 48.6324 36.7692 48.6974 36.5801C48.7384 36.4606 48.7178 36.3327 48.6548 36.2058C48.3987 36.5641 48.0986 36.8727 47.8654 36.9867C48.0486 37.0496 48.2318 37.1125 48.4042 37.1807Z" fill="#508110"/>
<path d="M48.0184 34.1347C48.2889 33.6959 48.4576 33.2596 48.4467 32.8913C48.2227 33.2558 47.9281 33.6223 47.6078 33.9532C47.6092 33.9868 47.6106 34.0203 47.6118 34.054C47.7242 34.0488 47.8663 34.0788 48.0184 34.1347Z" fill="#508110"/>
<path d="M46.0169 43.1241C45.402 44.7803 44.6933 46.1717 44.0469 47.0983C41.7464 49.5312 38.1446 52.3233 34.2751 53.9926C33.8607 54.6716 33.2863 55.4495 33.2036 55.4899C32.838 55.6686 32.6368 55.3688 32.3173 54.7287C32.2495 54.7503 32.1816 54.7715 32.1138 54.7923C31.7928 56.1281 30.8113 56.2965 30.5046 56.2937C29.4849 56.2846 28.4654 56.2753 28.0464 55.4802C28.0172 55.4807 27.988 55.4811 27.9588 55.4813C27.8612 55.5421 27.7724 55.6246 27.6771 55.7132C27.4074 55.9638 27.0854 56.2628 26.3637 56.2563C25.3284 56.2469 25.1251 55.831 24.7185 54.999C24.3026 55.2024 23.0547 55.8123 22.232 55.1837C21.6323 54.9777 21.6222 54 21.8154 53.3761L21.7972 53.361C21.3355 53.8562 19.962 53.702 19.7644 53.2978C19.7288 53.2248 19.6741 53.1454 19.6127 53.0561C19.3239 52.6364 18.8862 52.0003 19.58 50.8113C18.7583 50.8038 18.2045 50.0159 18.1175 49.3815C17.9124 49.62 17.8174 49.8963 17.7223 50.1727C17.5094 50.7921 18.1194 52.0404 19.1546 52.0498C18.4609 53.2388 18.8985 53.8749 19.1874 54.2947C19.2488 54.3839 19.3034 54.4634 19.3391 54.5363C19.5367 54.9406 20.9102 55.0947 21.3719 54.5995L21.3901 54.6146C21.1969 55.2386 21.207 56.2162 21.8067 56.4222C22.6293 57.0508 23.8772 56.4409 24.2932 56.2376C24.6998 57.0695 24.9031 57.4855 25.9383 57.4948C26.6601 57.5014 26.982 57.2023 27.2518 56.9517C27.3471 56.8631 27.4359 56.7807 27.5335 56.7198C27.5627 56.7196 27.5918 56.7192 27.621 56.7188C28.0401 57.5138 29.0596 57.5231 30.0792 57.5323C30.386 57.535 31.3675 57.3666 31.6884 56.0308C31.7563 56.01 31.8242 55.9888 31.892 55.9672C32.2115 56.6073 32.4127 56.9071 32.7783 56.7284C32.861 56.688 33.4354 55.9101 33.8498 55.2312C37.7193 53.5618 41.3211 50.7698 43.6216 48.3368C44.4235 47.1873 45.3213 45.3225 46.0169 43.1241Z" fill="#508110"/>
<path d="M19.1637 47.7146C19.3885 47.6225 19.6692 47.5497 20.024 47.5023C19.9542 47.3595 19.8365 47.1186 19.7288 46.8557C19.5166 46.8127 19.3783 46.7872 19.2014 46.8737C18.9958 46.9742 19.0409 47.3301 19.1637 47.7146Z" fill="#508110"/>
<path d="M23.3477 44.2789C23.5887 44.2953 23.8428 44.3442 24.1007 44.4416C23.983 44.201 23.9897 44.0181 24.4056 43.8148C24.6136 43.7131 24.9233 43.8194 25.2329 43.9258C25.5425 44.0321 25.8521 44.1385 26.0601 44.0368C25.704 43.9145 25.5527 43.8625 25.4497 43.7614C25.3736 43.6866 25.324 43.5849 25.2376 43.4082C25.1119 43.1511 25.3005 43.1341 25.561 43.1107C25.722 43.0962 25.9104 43.0792 26.0692 43.0017L26.068 43.0011C25.449 42.7895 24.618 43.1957 24.2023 43.3988C23.7864 43.6021 23.5831 43.1861 24.0084 41.9476C23.6988 41.8413 23.4908 41.9429 23.2828 42.0446C23.0748 42.1462 22.8668 42.2479 22.5571 42.1416C21.9466 41.932 21.5429 41.1204 22.1339 40.3094L22.117 40.2937C21.6769 40.4767 20.702 40.4547 20.5054 40.0524C20.4212 39.8801 20.4433 39.7443 20.4691 39.5852C20.5056 39.3602 20.5497 39.0885 20.3115 38.6012C19.8956 38.8045 19.2697 38.64 19.0729 38.1759C19.0609 38.1475 19.0519 38.118 19.0457 38.0874C19.0246 38.1283 19.0033 38.1693 18.982 38.2103C18.7492 38.6577 18.5164 39.105 18.6476 39.4144C18.8444 39.8785 19.4702 40.043 19.8862 39.8397C20.1244 40.3271 20.0803 40.5987 20.0438 40.8237C20.0179 40.9828 19.9959 41.1186 20.0801 41.2909C20.2766 41.6933 21.2516 41.7152 21.6917 41.5323L21.7085 41.5479C21.1176 42.359 21.5213 43.1705 22.1318 43.3801C22.4415 43.4864 22.6495 43.3848 22.8575 43.2831C23.0655 43.1815 23.2734 43.0798 23.5831 43.1861C23.4156 43.6737 23.3456 44.0338 23.3477 44.2789Z" fill="#508110"/>
<path d="M19.0895 37.6682C19.1584 37.4501 19.2828 37.211 19.4073 36.9718C19.4674 36.8564 19.5275 36.7408 19.5813 36.6278C19.5446 36.5236 19.5104 36.4184 19.4786 36.3123C18.6828 36.2788 18.1663 36.109 17.9293 35.8025C17.521 36.1942 17.2939 36.6446 17.4277 36.9187C17.6153 37.3026 18.1573 37.5132 19.0533 37.5508C19.065 37.5901 19.0771 37.6292 19.0895 37.6682Z" fill="#508110"/>
<path d="M17.9406 35.087C18.1476 34.7079 18.5891 34.2898 19.1104 34.035C18.9556 33.9818 18.7748 33.9413 18.5939 33.9009C18.3168 33.8389 18.0396 33.7768 17.8561 33.6691C17.5292 33.8884 17.3571 34.1007 17.2432 34.4322C17.1063 34.831 17.4869 34.9769 17.9406 35.087Z" fill="#508110"/>
<path d="M18.5449 32.2696C18.8003 32.1252 19.1257 31.9662 19.5451 31.7612C19.0731 31.5991 18.934 31.1995 18.9657 30.7556C18.7173 31.1668 18.4879 31.7778 18.5449 32.2696Z" fill="#508110"/>
<path d="M35.7265 43.9503C34.4879 43.5249 27.8325 46.7778 24.0701 50.678C26.5753 48.4229 32.23 44.2897 35.9298 44.3662C37.9909 45.4202 40.2365 48.9605 42.9169 50.2271C42.307 48.9792 37.2731 45.771 36.5584 43.5437C38.3674 39.5675 43.4604 32.923 42.2721 29.9292C43.2372 32.3607 36.5677 42.5084 36.1424 43.747C35.5325 42.4991 27.3255 34.1424 23.8039 34.3176C28.3514 35.187 35.5232 43.5343 35.7265 43.9503Z" fill="#85B546"/>
<path opacity="0.4" d="M47.7972 38.1777C47.9996 38.5919 46.0147 41.1543 44.7212 42.3737C43.9413 44.9268 42.9062 47.0997 41.9857 48.4194C39.4441 51.1073 36.3291 53.6373 32.0541 55.4815C31.696 56.0682 31.2298 56.7217 31 57C31 53 31.5392 48.9798 33 44.5C36.0525 35.1387 40.3869 33.0455 47.4165 34.8174C47.5785 35.0201 47.6604 35.2354 47.5933 35.4307C47.3583 36.1149 46.6639 37.0237 46.2043 37.2483C46.8885 37.4832 47.5727 37.7182 47.7972 38.1777Z" fill="#497411"/>
<path d="M67.8586 60.6202C60.902 70.3821 46.646 76.6859 39.852 73.7318C33.0581 70.7777 30.0682 57.232 34.1056 44.8503C38.143 32.4685 46.4878 33.4042 56.6787 37.8353C66.8696 42.2665 74.8153 50.8583 67.8586 60.6202Z" fill="#FF3535"/>
<path opacity="0.8" fill-rule="evenodd" clip-rule="evenodd" d="M37.6029 71.7102C44.3969 74.6644 58.6529 68.3605 65.6095 58.5986C70.0289 52.3971 68.434 46.6678 64.07 42.1774C70.0337 46.9009 72.9724 53.4444 67.8587 60.6202C60.9021 70.3821 46.6461 76.6859 39.8521 73.7318C38.6203 73.1962 37.5134 72.3123 36.5509 71.1503C36.8905 71.3658 37.2413 71.553 37.6029 71.7102Z" fill="#D34242"/>
<path d="M36.0316 40.4342C40.4978 32.796 47.904 34.0198 56.679 37.8353C66.8699 42.2665 74.8155 50.8582 67.8589 60.6202C63.8452 60.5525 66.9286 55.2295 63.0038 55.5987C61.5928 54.9288 59.8534 56.1489 58.7037 54.2912C57.6179 52.5366 56.486 48.9322 55.1041 48.056C53.1866 46.8401 51.3884 48.7073 48.9209 48.5691C47.2832 48.4774 46.4907 45.8472 45.2797 44.803C44.5378 44.1632 40.9049 45.9673 40.3415 44.7197C39.4308 42.7031 41.4532 41.2885 39.178 40.4872C38.7824 39.5413 36.0825 41.0872 36.0316 40.4342Z" fill="#FFEADB"/>
<path opacity="0.8" d="M39.1313 39.8139C38.3063 40.8026 36.7655 43.1198 35.9037 45.8283M35.3688 48.1861L35.3239 47.6881" stroke="white" stroke-linecap="round"/>
<path fill-rule="evenodd" clip-rule="evenodd" d="M65.5175 58.5894C65.7459 59.6508 66.1859 60.5919 67.8588 60.6202C72.8775 53.5776 70.1401 47.1441 64.3992 42.4425C68.3368 46.9909 69.6429 52.6853 65.5175 58.5894Z" fill="#F1D3BE"/>
<path d="M54.8505 36.6395C54.5672 33.6464 54.8595 27.3778 56.8824 26.177C57.7576 28.9428 59.1767 33.6797 58.7086 36.605C60.0736 31.025 62.3819 29.3325 64.8623 28.7814C67.7513 34.3873 62.2753 35.731 60.1762 38.684C65.9622 36.7893 65.4067 33.1128 69.1208 32.558C69.0382 37.4587 66.8149 40.6654 62.8023 41.0958C65.7682 42.1419 68.3786 39.9549 72.0094 44.3384C65.8054 46.0861 62.7086 46.6513 60.9192 42.9164C60.894 44.4101 62.0913 46.6409 60.8255 48.4719C57.1635 45.9403 58.4293 44.1093 57.6147 42.1271C56.5701 44.6954 53.4806 44.6433 52.2565 44.0052C52.905 42.1638 53.5431 40.9396 55.6419 40.3576C53.2527 39.5204 48.5945 41.4736 46.2086 36.4937C50.5158 37.3851 52.9883 37.2255 54.2228 37.2464C53.0195 35.3737 46.8659 34.134 46.3232 29.7037C49.4095 29.7557 53.2118 32.7059 54.8505 36.6395Z" fill="#5C9412"/>
<path fill-rule="evenodd" clip-rule="evenodd" d="M56.8824 26.177C54.8595 27.3778 54.5672 33.6464 54.8505 36.6395C55.0605 36.0434 55.1998 34.8637 55.3608 33.5001C55.6549 31.0102 56.0214 27.9068 57.0225 26.6222C56.9746 26.4689 56.9278 26.3203 56.8824 26.177ZM58.798 35.0633C58.7958 35.0778 58.7935 35.0922 58.7912 35.1066C58.7936 35.097 58.796 35.0874 58.7983 35.0779C58.7982 35.0731 58.7981 35.0682 58.798 35.0633ZM64.5794 28.8496C66.1592 32.6623 63.8222 34.9631 61.6954 37.057C61.541 37.209 61.3877 37.3599 61.2371 37.5102C61.6345 37.1417 62.066 36.7886 62.4987 36.4345C64.7015 34.6318 66.9353 32.8038 64.8623 28.7814C64.7678 28.8025 64.6734 28.8251 64.5794 28.8496ZM60.4494 38.3299C60.1915 38.615 59.9538 38.9011 59.7471 39.1919C61.1362 38.737 62.1857 38.0791 63.03 37.334C62.2849 37.8308 61.3642 38.2949 60.1762 38.684C60.2619 38.5634 60.3532 38.4455 60.4494 38.3299ZM69.0604 32.5674C68.5609 36.9346 65.856 40.5758 62.187 40.9693C62.4749 41.0709 62.7653 41.1373 63.0584 41.1786C62.9733 41.1535 62.8879 41.126 62.8023 41.0958C66.8149 40.6654 69.0382 37.4587 69.1208 32.558C69.1005 32.561 69.0804 32.5642 69.0604 32.5674ZM71.5797 43.8445C65.6683 45.4934 62.6762 45.9446 60.9296 42.2991C60.9252 42.563 60.9592 42.8306 61.0113 43.1025C62.8144 46.6318 65.9105 46.0565 72.0094 44.3384C71.8646 44.1635 71.7213 43.9991 71.5797 43.8445ZM61.3825 45.9492C61.313 46.3669 61.1516 46.7958 60.8463 47.2373C58.3095 45.4836 58.2421 44.4199 58.1694 43.2728C58.1372 42.764 58.1039 42.2388 57.8536 41.6298C56.9705 43.8009 54.0217 44.0063 52.3912 43.6323C52.3461 43.7537 52.3013 43.878 52.2565 44.0052C53.4806 44.6433 56.5701 44.6954 57.6147 42.1271C57.8577 42.7184 57.9156 43.2963 57.9744 43.8833C58.1126 45.2641 58.2559 46.6955 60.8255 48.4719C61.3761 47.6755 61.4607 46.8034 61.3825 45.9492ZM53.7954 40.107C54.3264 39.6662 54.946 39.3218 55.6627 39.123C54.9745 38.8819 54.098 38.8722 53.1417 38.8617C51.1448 38.8398 48.8001 38.8141 47.0963 36.6677C46.8095 36.6147 46.5137 36.5569 46.2086 36.4937C47.9072 40.0391 50.7576 40.0704 53.1209 40.0963C53.3508 40.0988 53.5762 40.1013 53.7954 40.107ZM54.1799 37.1828C53.7348 36.5534 52.7358 35.9915 51.593 35.3488C49.3994 34.1151 46.6759 32.5834 46.3232 29.7037C46.4389 29.7056 46.5557 29.7117 46.6733 29.7217C47.6034 32.0099 50.1377 33.7219 52.1723 35.0963C53.3927 35.9207 54.4333 36.6237 54.8401 37.2568C54.6589 37.2537 54.4383 37.2277 54.1799 37.1828Z" fill="#558514"/>
<g opacity="0.4">
<path d="M61.3566 47.1339C61.2831 47.5921 61.1217 48.043 60.8252 48.4719C58.2556 46.6955 58.1123 45.2641 57.974 43.8833C57.9153 43.2963 57.8574 42.7184 57.6144 42.1271C56.6691 44.4512 53.6532 44.4651 52.2564 44.0052L52.246 44.6225C53.4701 45.2606 56.5565 45.3126 57.5936 43.3617C57.8366 43.953 57.8944 44.5309 57.9532 45.1179C58.0915 46.4986 58.2454 47.3128 60.815 49.0892C61.3763 48.2772 61.4426 48.004 61.3566 47.1339Z" fill="#E1BB9F"/>
<path d="M53.7533 41.341C54.2164 40.9148 54.816 40.5865 55.6415 40.3576C54.9533 40.1164 54.0768 40.1068 53.1206 40.0963C51.1236 40.0744 47.912 38.6401 46.2083 36.4937C46.1978 37.111 46.1979 37.111 46.1979 37.111C47.8965 40.6564 50.7364 41.3049 53.0998 41.3309C53.3224 41.3333 53.5407 41.3357 53.7533 41.341Z" fill="#E1BB9F"/>
<path d="M66.7303 45.5826C67.0059 45.9448 67.2634 46.3135 67.5013 46.6884C64.3986 47.2601 62.473 46.9071 61.1789 44.6835L61.1384 44.4856C61.0209 43.9142 60.9111 43.3798 60.9189 42.9164C62.1057 45.3936 63.868 45.9792 66.7303 45.5826Z" fill="#E1BB9F"/>
</g>
<path d="M60.1002 41.6677C59.7208 42.2343 58.385 41.4709 57.2518 40.712C56.1186 39.9531 55.0675 38.4511 55.447 37.8845C55.8264 37.3179 57.3898 37.795 58.5231 38.5538C59.6563 39.3127 60.4797 41.1011 60.1002 41.6677Z" fill="#558911"/>
<path d="M59.3851 39.1858C59.3957 38.5685 59.1506 37.9469 58.5334 37.9365C57.9162 37.9261 56.9167 39.1442 57.5232 39.7719C58.1298 40.3995 59.3746 39.8031 59.3851 39.1858Z" fill="#4F800E"/>
<path fill-rule="evenodd" clip-rule="evenodd" d="M43.6918 40.0202C43.2995 40.4114 42.823 40.5695 42.6274 40.3734C42.4318 40.1773 42.5912 39.7012 42.9834 39.31C43.3757 38.9188 43.8522 38.7607 44.0478 38.9568C44.2434 39.1529 44.084 39.629 43.6918 40.0202ZM42.1887 46.0021C42.0189 46.5294 41.6676 46.8881 41.4039 46.8032C41.1403 46.7184 41.0641 46.2221 41.2339 45.6948C41.4036 45.1674 41.7549 44.8087 42.0186 44.8936C42.2823 44.9785 42.3584 45.4748 42.1887 46.0021ZM43.1461 52.5631C42.9763 53.0904 42.625 53.4491 42.3613 53.3642C42.0977 53.2794 42.0215 52.7831 42.1912 52.2558C42.361 51.7284 42.7123 51.3697 42.976 51.4546C43.2396 51.5395 43.3158 52.0358 43.1461 52.5631ZM38.5744 56.353C38.8512 56.3618 39.0899 55.9201 39.1074 55.3664C39.125 54.8127 38.9148 54.3567 38.6379 54.3479C38.3611 54.3392 38.1224 54.7809 38.1049 55.3346C38.0873 55.8883 38.2975 56.3443 38.5744 56.353ZM38.2367 49.5261C38.0199 50.0359 37.6376 50.3613 37.3827 50.2529C37.1278 50.1445 37.0968 49.6434 37.3136 49.1336C37.5304 48.6238 37.9127 48.2983 38.1676 48.4067C38.4225 48.5151 38.4535 49.0162 38.2367 49.5261ZM35.4631 59.1046C35.7395 59.0873 35.9356 58.625 35.901 58.0721C35.8663 57.5193 35.6142 57.0851 35.3377 57.1024C35.0613 57.1197 34.8653 57.5819 34.8999 58.1348C34.9345 58.6877 35.1866 59.1219 35.4631 59.1046ZM48.2574 56.8294C47.8651 57.2206 47.3886 57.3787 47.193 57.1826C46.9974 56.9865 47.1568 56.5104 47.5491 56.1192C47.9413 55.728 48.4178 55.5699 48.6134 55.766C48.809 55.9621 48.6496 56.4382 48.2574 56.8294ZM44.9715 47.8223C45.1671 48.0184 45.6436 47.8603 46.0358 47.4691C46.4281 47.0779 46.5875 46.6018 46.3919 46.4057C46.1963 46.2096 45.7198 46.3677 45.3275 46.7589C44.9353 47.1501 44.7759 47.6262 44.9715 47.8223ZM42.0859 72.4718C42.2815 72.6679 42.7581 72.5098 43.1503 72.1186C43.5426 71.7274 43.702 71.2513 43.5064 71.0552C43.3108 70.859 42.8343 71.0172 42.442 71.4084C42.0498 71.7995 41.8903 72.2757 42.0859 72.4718ZM46.0823 66.8248C45.6901 67.216 45.2135 67.3741 45.0179 67.178C44.8224 66.9819 44.9818 66.5058 45.374 66.1146C45.7663 65.7234 46.2428 65.5652 46.4384 65.7614C46.634 65.9575 46.4746 66.4336 46.0823 66.8248ZM38.4921 68.8455C38.7158 69.0089 39.162 68.7788 39.4889 68.3316C39.8158 67.8843 39.8995 67.3892 39.6758 67.2258C39.4522 67.0624 39.0059 67.2924 38.6791 67.7397C38.3522 68.187 38.2685 68.682 38.4921 68.8455ZM41.9044 64.5495C41.7113 65.0687 41.3442 65.4113 41.0846 65.3147C40.825 65.2181 40.7712 64.7189 40.9643 64.1997C41.1575 63.6805 41.5245 63.3379 41.7841 63.4345C42.0437 63.5311 42.0976 64.0302 41.9044 64.5495ZM50.0495 66.2596C50.2451 66.4558 50.7217 66.2976 51.1139 65.9064C51.5062 65.5152 51.6656 65.0391 51.47 64.843C51.2744 64.6469 50.7979 64.805 50.4056 65.1962C50.0134 65.5874 49.8539 66.0635 50.0495 66.2596ZM66.7317 56.3141C66.2035 56.4813 65.7076 56.4027 65.624 56.1387C65.5404 55.8746 65.9008 55.525 66.429 55.3578C66.9571 55.1906 67.453 55.2692 67.5366 55.5333C67.6202 55.7973 67.2598 56.1469 66.7317 56.3141ZM56.8574 66.3609C57.0011 66.5977 57.5015 66.5567 57.9751 66.2693C58.4487 65.982 58.7162 65.5571 58.5725 65.3203C58.4288 65.0835 57.9284 65.1244 57.4548 65.4118C56.9812 65.6991 56.7137 66.124 56.8574 66.3609ZM64.2909 61.326C63.8172 61.6133 63.3168 61.6543 63.1731 61.4175C63.0295 61.1807 63.2969 60.7557 63.7706 60.4684C64.2442 60.181 64.7446 60.1401 64.8883 60.3769C65.0319 60.6137 64.7645 61.0386 64.2909 61.326ZM49.4387 71.1088C49.5897 71.341 50.0886 71.2845 50.553 70.9826C51.0175 70.6807 51.2717 70.2477 51.1207 70.0154C50.9698 69.7832 50.4709 69.8397 50.0064 70.1416C49.5419 70.4435 49.2878 70.8765 49.4387 71.1088ZM56.1963 61.9793C55.804 62.3705 55.3275 62.5286 55.1319 62.3325C54.9363 62.1364 55.0957 61.6603 55.488 61.2691C55.8802 60.8779 56.3567 60.7198 56.5523 60.9159C56.7479 61.112 56.5885 61.5881 56.1963 61.9793ZM62.1929 51.8176C62.3885 52.0137 62.865 51.8556 63.2573 51.4644C63.6495 51.0732 63.8089 50.5971 63.6133 50.401C63.4177 50.2049 62.9412 50.363 62.549 50.7542C62.1567 51.1454 61.9973 51.6215 62.1929 51.8176ZM54.5736 53.7876C54.1814 54.1788 53.7048 54.3369 53.5092 54.1408C53.3136 53.9447 53.4731 53.4686 53.8653 53.0774C54.2576 52.6862 54.7341 52.528 54.9297 52.7242C55.1253 52.9203 54.9659 53.3964 54.5736 53.7876ZM56.0825 48.0097C56.2781 48.2059 56.7546 48.0477 57.1469 47.6565C57.5391 47.2654 57.6985 46.7892 57.5029 46.5931C57.3073 46.397 56.8308 46.5551 56.4385 46.9463C56.0463 47.3375 55.8869 47.8136 56.0825 48.0097ZM44.0091 58.5578C43.8689 59.0938 43.538 59.4714 43.27 59.4013C43.0021 59.3311 42.8985 58.8398 43.0388 58.3039C43.179 57.768 43.5099 57.3904 43.7779 57.4605C44.0459 57.5306 44.1494 58.0219 44.0091 58.5578ZM48.1113 62.2141C48.3069 62.4102 48.7835 62.2521 49.1757 61.8609C49.568 61.4697 49.7274 60.9936 49.5318 60.7975C49.3362 60.6013 48.8596 60.7595 48.4674 61.1507C48.0751 61.5419 47.9157 62.018 48.1113 62.2141ZM48.5675 43.8072C48.1753 44.1984 47.6987 44.3565 47.5031 44.1604C47.3075 43.9643 47.467 43.4882 47.8592 43.097C48.2514 42.7058 48.728 42.5477 48.9236 42.7438C49.1192 42.9399 48.9598 43.416 48.5675 43.8072ZM37.4368 62.7925C37.7048 62.8625 38.0355 62.4848 38.1756 61.9488C38.3156 61.4128 38.2119 60.9216 37.9439 60.8515C37.6759 60.7815 37.3451 61.1593 37.2051 61.6952C37.0651 62.2312 37.1688 62.7225 37.4368 62.7925Z" fill="#C12222"/>
<path opacity="0.4" fill-rule="evenodd" clip-rule="evenodd" d="M48.4672 72.4313C48.8927 71.7016 49.1445 70.9114 49.383 70.1627C49.5883 69.5183 49.7838 68.9046 50.0719 68.3867C48.8566 67.3618 48.1224 66.0246 48.1342 64.7642C48.1538 62.6698 49.5187 62.6811 50.4141 62.6886C50.9401 62.6929 51.3041 62.6959 51.1384 62.2702C51.047 62.0353 50.9316 61.8097 50.8186 61.5889C50.3782 60.7278 49.9743 59.9381 51.1695 58.9457C53.0694 57.3681 56.571 57.506 58.8412 59.9348C58.8882 59.9851 58.9342 60.037 58.979 60.0903L58.9578 59.9614C58.5509 57.5071 60.4831 56.2541 61.0204 56.3933C61.3613 56.4815 61.7461 56.153 62.153 55.8057C62.3875 55.6055 62.6293 55.3991 62.8743 55.2626C62.8696 56.0332 63.3051 56.0104 63.758 55.9867C64.1647 55.9655 64.5854 55.9435 64.714 56.4943C64.7689 56.7296 65.0988 56.7005 65.5216 56.6631C66.0344 56.6178 66.684 56.5605 67.1457 56.9482C68.0876 57.7391 68.3593 58.9034 67.4238 60.3021C67.2606 60.5461 67.2055 61.0109 67.1355 61.6005C67.1189 61.7406 67.1015 61.8876 67.0815 62.0405C65.1517 64.0729 62.9292 65.8897 60.5902 67.4216C60.3716 67.2677 60.1819 67.1062 60.0159 66.9385C59.8894 67.355 59.7271 67.7444 59.5288 68.0924C55.8374 70.3426 51.928 71.8762 48.4672 72.4313Z" fill="#AC1C1C"/>
<path d="M66.2083 66.1502C65.172 68.0044 63.7537 68.2494 62.9972 69.6944C57.6245 68.303 59.6283 64.993 57.3402 62.7595C59.0848 62.6643 59.2041 62.806 58.9371 61.1959C58.5302 58.7417 60.4624 57.4887 60.9997 57.6278C61.537 57.767 62.1835 56.8706 62.8536 56.4971C62.8446 57.9596 64.4214 56.5645 64.6933 57.7289C64.8148 58.2496 66.2827 57.4754 67.125 58.1827C68.0669 58.9737 68.3386 60.138 67.4031 61.5367C66.9848 62.1622 67.2765 64.2388 66.2083 66.1502Z" fill="white"/>
<path d="M61.4149 69.141C59.4351 68.2128 59.0698 66.8634 58.7027 65.5077C58.4422 64.5453 58.1808 63.5798 57.3404 62.7595C57.4856 62.7516 57.6196 62.7453 57.743 62.7395C59.1021 62.6758 59.182 62.672 58.9373 61.1959C58.8582 60.7189 58.8675 60.2872 58.9377 59.9024C59.4518 60.2145 59.9592 60.6289 60.4486 61.1524C62.1029 62.9223 62.4575 66.7573 61.4149 69.141Z" fill="#F4F4E0"/>
<path d="M49.348 66.0196C49.3185 69.1819 53.9849 72.8272 59.1625 70.8122C62.0393 69.6926 62.3253 63.6191 60.0551 61.1902C57.7849 58.7614 54.2832 58.6235 52.3834 60.2011C50.8816 61.448 51.9044 62.3749 52.3522 63.5256C52.8 64.6762 49.3791 62.6951 49.348 66.0196Z" fill="white"/>
<path d="M64.4125 68.1456C65.0157 67.6529 65.6646 67.1231 66.2083 66.1502C66.8099 65.0738 66.9802 63.945 67.0888 63.0525C64.4021 61.6376 60.4081 65.4886 62.4205 69.0389C62.6487 69.2027 62.8799 69.3527 63.1136 69.4895C63.4627 68.9212 63.9225 68.5456 64.4125 68.1456Z" fill="#F4F4E0"/>
<path d="M66.9786 63.2346C64.293 61.6395 60.3575 66.6706 62.3997 70.2734C65.611 72.5789 69.4206 72.1332 72.3286 70.9925C75.2365 69.8519 75.7065 64.6344 75.5781 62.1683C73.0157 60.4472 68.7065 60.8023 68.764 61.9052C68.8603 63.7547 68.8925 64.3713 66.9786 63.2346Z" fill="white"/>
<path d="M73.7006 69.9879C72.2016 68.9823 70.2909 68.2536 69.5932 68.0987C68.0373 67.7531 66.5369 68.4567 65.1391 69.1123C64.5354 69.3954 63.9507 69.6696 63.389 69.8464C63.3817 69.8722 63.3742 69.8985 63.3667 69.9251C63.2965 70.1723 63.2173 70.4508 63.1425 70.7529C66.1855 72.5071 69.6419 72.0464 72.3285 70.9925C72.865 70.7821 73.3185 70.4329 73.7006 69.9879Z" fill="#F4F4E0"/>
<path d="M69.4506 68.81C67.2228 68.3152 64.2985 69.8236 62.2822 70.5895C61.7666 72.4082 61.7443 76.5662 65.7799 78.6494C70.8243 81.2534 73.3123 78.7136 74.0795 77.9303C74.622 77.3765 75.684 75.1847 74.5528 74.1242C74.1528 73.7493 75.6609 74.1006 75.6379 73.0166C75.5917 70.8484 70.6589 69.0784 69.4506 68.81Z" fill="white"/>
<path d="M69.159 79.753C69.4253 77.9823 68.6102 76.5666 67.8066 75.1706C67.7464 75.0661 67.6864 74.9618 67.6268 74.8574C67.315 74.3109 66.9709 73.9978 66.5901 73.6513C65.9852 73.1009 65.2878 72.4663 64.481 70.6786C64.33 70.3441 63.9482 70.4324 63.577 70.5183C63.2586 70.592 62.9481 70.6639 62.7977 70.4656C62.5991 70.6995 62.3744 70.9761 62.1332 71.2788C61.8122 73.3094 62.1943 76.7984 65.78 78.6494C67.0685 79.3145 68.1902 79.644 69.159 79.753Z" fill="#F4F4E0"/>
<path d="M58.1781 74.6741C59.2497 73.4123 60.6701 71.4963 61.5631 70.4448C61.8889 70.8742 62.915 70.062 63.2464 70.6578C64.6396 73.1627 65.9318 73.178 66.7389 74.5926C68.674 77.9844 69.5253 79.6026 67.4073 82.8279C66.7758 83.7895 64.3845 84.1921 63.3349 83.4771C62.2853 82.7622 60.9456 84.3393 59.3349 83.5534C57.7242 82.7674 54.1597 79.4054 58.1781 74.6741Z" fill="white"/>
<path d="M61.3839 70.6589C61.4419 70.7192 61.4972 70.7791 61.5494 70.8386C62.6257 72.6863 60.9319 74.928 58.7215 77.8531C58.5845 78.0344 58.4455 78.2183 58.3051 78.4049C57.7355 79.162 57.0822 79.5993 56.4172 79.8002C56.144 78.3893 56.499 76.6513 58.1782 74.6741C58.7383 74.0146 59.3937 73.1764 60.0193 72.3763C60.5133 71.7444 60.9887 71.1364 61.3839 70.6589Z" fill="#F4F4E0"/>
<path d="M59.97 70.3173C59.8851 70.1405 59.79 69.9632 59.6855 69.7839C58.4822 67.9112 53.1307 66.1673 51.7023 67.1794C51.0459 67.6444 50.7803 68.2666 50.5826 68.9545C52.3032 70.9145 55.6128 72.1937 59.1626 70.8122C59.4593 70.6968 59.7284 70.5286 59.97 70.3173Z" fill="#F4F4E0"/>
<path d="M52.1391 67.4417C53.5675 66.4296 58.584 68.8457 60.3149 70.8178C61.4579 72.78 60.8372 74.7124 58.4311 77.91C56.025 81.1076 50.7668 79.076 50.7995 77.1337C50.8239 75.6859 49.6674 74.524 48.5026 73.8568C50.8869 71.9541 50.3536 68.7069 52.1391 67.4417Z" fill="white"/>
<circle cx="62.1338" cy="71.0601" r="3.7042" transform="rotate(0.966272 62.1338 71.0601)" fill="#CAD139"/>
<path fill-rule="evenodd" clip-rule="evenodd" d="M65.7979 70.5132C65.4764 72.3654 63.9199 74.1775 62.0816 74.1465C59.8791 74.1093 58.6895 72.2781 58.4828 70.4313C58.4512 70.6157 58.4333 70.8048 58.43 70.9976C58.3955 73.0431 60.0258 74.7293 62.0712 74.7638C64.1167 74.7983 65.8029 73.168 65.8374 71.1226C65.8409 70.9153 65.8273 70.7117 65.7979 70.5132Z" fill="#BCC23A"/>
<path d="M65.2096 71.7293L64.5923 71.7189M63.9438 73.5603L63.6404 73.2465M61.1609 73.8221L61.4747 73.5187M59.6958 69.1665L59.9992 69.4803M60.9615 67.3355L61.265 67.6493M58.4404 70.3802L58.7438 70.6941M64.6444 68.6325L64.9582 68.3291M63.3994 69.229L63.0856 69.5324M59.0056 73.477L59.3194 73.1736M65.4922 73.2777L65.1888 72.9639M65.2408 69.8775L65.7769 69.5778M58.4091 72.2321L58.723 71.9286M62.803 67.9841L62.3778 67.2795" stroke="#996313" stroke-width="0.2" stroke-linecap="round"/>
</svg>
