<svg width="96" height="96" viewBox="0 0 96 96" fill="none" xmlns="http://www.w3.org/2000/svg">
<rect width="96" height="96" fill="#C2EDBC"/>
<ellipse cx="48" cy="62.5" rx="40" ry="17.5" fill="#9DD794"/>
<path d="M74.3714 25.2015C84.3807 35.1924 82.4003 52.4289 71.2447 62.3605C60.0892 72.2921 43.4023 71.7578 33.9735 61.1671C24.5448 50.5763 25.9446 33.9397 37.1002 24.0081C48.2558 14.0764 64.3622 15.2105 74.3714 25.2015Z" fill="#588A24"/>
<path fill-rule="evenodd" clip-rule="evenodd" d="M71.8738 22.7665C69.4467 21.5367 63.4459 18.5724 58.8394 17.9144C58.5162 17.8683 57.7645 18.0041 56.8328 18.1725C55.6206 18.3915 54.1037 18.6656 52.8294 18.6656C51.5886 18.6656 49.8925 19.121 48.3679 19.5303C47.123 19.8645 45.9924 20.1681 45.3171 20.1681C44.9181 20.1681 43.8834 21.0158 42.7757 21.9232C41.7978 22.7243 40.763 23.572 40.0586 23.9242C38.5561 24.6754 33.2976 28.4315 32.5469 29.934C32.2463 30.5358 31.9297 31.511 31.597 32.5355C31.1868 33.7991 30.7521 35.1378 30.2929 35.9438C28.9528 38.2962 28.6476 42.8048 28.7903 45.7097C28.8784 47.5037 29.8056 53.5108 30.2927 54.7243C30.4487 55.113 30.733 55.6353 31.0506 56.219L31.0507 56.219L31.0507 56.2191C31.5804 57.1924 32.203 58.3365 32.4793 59.317C24.734 48.7184 26.5748 33.3788 37.1002 24.0082C47.3273 14.9032 62.2033 14.5944 71.8738 22.7665ZM72.3247 23.1571C70.128 22.0953 60.1253 19.99 55.0834 21.6706C48.3224 23.9242 41.5611 27.6801 38.5565 30.6853C35.5519 33.6904 32.5467 43.4561 31.7955 46.461C31.2211 48.7586 31.9641 53.2524 32.6815 57.5913C32.8229 58.4465 32.9633 59.2956 33.0924 60.1208C33.1577 60.2028 33.2236 60.2846 33.2902 60.366C33.2737 59.072 33.2321 57.8379 33.1918 56.6443C32.9707 50.0856 32.7909 44.7531 37.0538 37.4463C41.5456 29.747 45.5308 28.3398 49.3162 27.0032C51.0192 26.4019 52.6818 25.8148 54.3319 24.6755C57.6461 22.3871 61.3835 22.7633 65.3868 23.1663C67.7037 23.3995 70.1095 23.6416 72.574 23.3815C72.4913 23.306 72.4082 23.2313 72.3247 23.1571ZM72.5822 23.3889C72.0931 23.4877 71.1293 23.7078 69.9414 23.9791C67.9777 24.4275 65.4018 25.0157 63.3465 25.4267C60.4595 26.0041 58.9392 27.0484 56.8614 28.4757C55.0797 29.6995 52.8881 31.2049 49.0733 32.9389C43.5066 35.4693 40.3263 41.7497 38.1544 46.0387C37.1023 48.1164 36.2868 49.7268 35.5513 50.2171C34.1054 51.181 33.5291 57.8462 33.3575 60.4481C33.4606 60.5732 33.5651 60.6975 33.671 60.821C34.4159 59.4189 35.208 57.4965 36.0534 55.4449C37.6782 51.5017 39.4998 47.0809 41.5611 44.9585C42.9114 43.5681 43.5764 42.2922 44.2048 41.0864C45.2987 38.9875 46.282 37.101 50.5764 35.1925C54.4356 33.4774 55.8548 32.2662 57.0252 31.2675C57.9366 30.4896 58.6971 29.8406 60.3417 29.1828C63.1465 28.0609 71.1874 24.4518 72.6976 23.495C72.6592 23.4595 72.6207 23.4242 72.5822 23.3889ZM72.7097 23.5063C71.0488 24.9193 69.1938 26.9826 67.3587 29.0239C65.109 31.5262 62.8892 33.9953 61.0936 35.1925C58.8399 36.6949 50.5764 45.7097 48.3228 48.7146C47.4059 49.9371 45.9867 50.6781 44.5092 51.4495L44.5091 51.4495C42.9051 52.2869 41.2324 53.1602 40.0593 54.7244C38.4729 56.8397 35.5728 59.5237 33.8709 61.0512C33.905 61.0899 33.9392 61.1286 33.9735 61.1672C34.0239 61.2237 34.0744 61.28 34.1252 61.336C34.7988 60.9923 35.5355 60.6485 36.2722 60.3048C38.1121 59.4464 39.952 58.5879 40.8106 57.7293C41.3556 57.1842 42.8894 55.947 44.6587 54.5198L44.659 54.5196L44.659 54.5196C47.7665 52.0131 51.6002 48.9207 52.0789 47.9634C52.8301 46.4609 60.4962 38.9487 64.0984 35.9438C66.7379 33.742 71.3486 27.6791 72.7979 24.0931C71.563 27.4683 70.5808 30.9044 69.8415 33.4908L69.8414 33.4909C69.3007 35.3826 68.8898 36.8198 68.6051 37.4463C66.2756 42.5712 65.1019 43.6508 63.6504 44.9861C62.7614 45.8038 61.7683 46.7174 60.3417 48.7146C56.5855 53.9732 52.8294 56.2269 49.0733 56.9781C47.9885 57.195 46.0354 57.8613 43.7971 58.6249C40.629 59.7057 36.8896 60.9814 34.2326 61.4536C34.2521 61.4749 34.2717 61.4962 34.2913 61.5174C39.5909 62.1647 48.7376 59.8445 52.8294 58.4805C55.5315 57.5798 57.9637 54.7893 60.7733 51.5655L60.7734 51.5655L60.7734 51.5654L60.7734 51.5654C62.6505 49.4117 64.6961 47.0646 67.1033 44.9585C68.4277 43.7998 70.3897 39.3798 70.8588 37.4463C71.102 35.9871 71.5696 34.7245 72.0399 33.4547C73.0011 30.8597 73.9734 28.2348 73.0633 23.8404C72.9464 23.7277 72.8285 23.6163 72.7097 23.5063ZM74.6316 25.4985C77.4143 30.0387 80.9605 37.6067 78.3712 47.9634C75.4087 59.8123 70.2566 62.9006 66.5125 65.145L66.3516 65.2415C62.5955 67.4951 53.5806 69.5983 46.8198 68.2464C45.7596 68.0343 43.5254 66.7973 41.1828 65.5001L41.1827 65.5001C39.0279 64.3069 36.7813 63.063 35.2721 62.5192C44.8741 71.7848 60.5848 71.851 71.2448 62.3606C82.2966 52.5213 83.7733 36.1011 74.6316 25.4985ZM34.9736 62.2262C42.0051 64.4523 53.1368 67.3108 56.5855 65.2415L56.5857 65.2414C58.4408 64.1284 64.0978 60.7341 66.3514 59.983C68.6051 59.2317 73.0133 54.1715 73.8637 52.4707C75.1838 49.8304 75.6018 46.6745 75.948 44.0601C76.1928 42.2114 76.4018 40.6334 76.8686 39.7C77.9954 37.4463 76.1173 26.9291 73.1124 23.9242C76.2584 30.886 75.2159 39.3995 74.6149 41.2024C74.2657 42.2498 73.9544 43.3738 73.6345 44.5286C72.3484 49.1715 70.9244 54.3125 66.3514 56.9781C63.9384 58.3847 62.2662 59.3739 61.0082 60.1181L61.0081 60.1182C59.289 61.1352 58.3432 61.6947 57.3368 62.2366C50.4843 65.9264 43.9534 64.1493 38.85 62.7606C37.2518 62.3258 35.7936 61.929 34.5094 61.7501C34.6624 61.9113 34.8171 62.07 34.9736 62.2262Z" fill="#215606"/>
<path d="M73.4001 24.6379C72.3613 24.6754 71.6565 23.5282 71.6101 23.173C71.5637 22.8177 72.3612 22.4217 73.1125 21.6705C73.8635 21.6705 75.3659 23.1729 74.6609 23.5279L74.6391 23.5388C73.9538 23.8838 73.8589 23.9316 73.4001 24.6379Z" fill="#214F0A"/>
<path opacity="0.6" d="M47 22C49.6866 20.081 54.73 19.0458 58.7382 19.5729M62 20.5C61.8389 20.4194 61.672 20.3437 61.5 20.2728" stroke="white" stroke-linecap="round"/>
<path opacity="0.4" d="M80.1005 47.6515C78.4777 51.4331 76.0033 54.9542 72.7473 57.8531C61.5917 67.7847 44.9048 67.2504 35.476 56.6596C29.8243 50.3113 28.0632 41.7907 29.9619 33.844C26.0269 42.936 27.2335 53.5963 33.9737 61.1671C43.4024 71.7579 60.0893 72.2922 71.2449 62.3605C75.7668 58.3347 78.7812 53.1087 80.1005 47.6515Z" fill="#1B4506"/>
<path opacity="0.4" fill-rule="evenodd" clip-rule="evenodd" d="M54.9493 69.3879C47.1784 70.0079 39.3818 67.2418 33.9734 61.1669C32.5648 59.5846 31.3978 57.8674 30.469 56.0578C30.4703 56.0564 30.4716 56.0549 30.473 56.0535L30.473 56.0535L30.473 56.0535C34.0792 52.1275 39.156 46.6005 42.3127 43.4558L45.2484 43.4524L54.9493 69.3879ZM79.0955 50.7032C77.5826 55.0175 74.9525 59.0593 71.2446 62.3603C67.2553 65.9119 62.5586 68.1251 57.7394 69.0187L71.721 43.7096L74.6143 44.2065C75.8473 45.9396 77.4429 48.2646 79.0955 50.7032Z" fill="#1B4506"/>
<path d="M88.8754 64.5538C87.0828 69.7206 81.636 72.6367 77.1231 72.9277C71.2418 73.307 65.9433 71.3426 64.485 70.509L60.4119 67.7918L72.8052 44.3028L75.6985 44.7998C79.4758 50.1091 87.0742 61.8821 88.8754 64.5538Z" fill="#588A24"/>
<path fill-rule="evenodd" clip-rule="evenodd" d="M60.8357 66.989L72.8057 44.3024L75.6986 44.7998C78.3799 48.5686 82.9867 55.5946 86.0785 60.31C87.1343 61.9201 88.0134 63.2609 88.5789 64.1106C86.4367 69.3166 81.1997 71.8831 76.4148 72.1359C71.9211 72.3732 70.1276 71.7379 66.2275 70.3563C65.7028 70.1704 65.14 69.971 64.5273 69.7584L60.8357 66.989Z" fill="#FBECCF"/>
<path opacity="0.4" fill-rule="evenodd" clip-rule="evenodd" d="M88.741 64.3538C85.7207 67.7313 81.1145 70.3747 77.8893 70.5827C72.0079 70.962 66.5765 69.1626 65.1181 68.329L61.6521 65.4408L60.4117 67.7918L64.4848 70.5089C65.9431 71.3426 71.2416 73.307 77.1229 72.9277C81.6358 72.6366 87.0826 69.7206 88.8752 64.5537C88.8335 64.4919 88.7888 64.4252 88.741 64.3538Z" fill="#4A7A17"/>
<path d="M61.2346 66.2328L72.8055 44.3024L75.6986 44.7997C79.0582 49.5219 88.1672 63.7619 88.1672 63.7619C86.4999 66.6786 83.2629 70.7618 77.2067 71.4276C71.1505 72.0934 64.5811 68.467 64.5811 68.467L61.2346 66.2328Z" fill="#FF5147"/>
<path d="M75.6986 44.7998L72.8056 44.3025L61.2346 66.2329L64.5811 68.4672C64.5811 68.4672 64.6057 68.4779 64.653 68.498L75.6986 44.7998Z" fill="#FF665E"/>
<path opacity="0.4" d="M73.4565 44.4141C67.3719 55.5583 65.6778 57.8119 62.7373 64.7302L66.0838 66.9645C66.0838 66.9645 72.6533 70.5908 78.7095 69.925C81.877 69.5768 84.2733 68.2937 86.0772 66.7317C84.1728 68.9178 81.3494 70.972 77.207 71.4274C71.1508 72.0932 64.5814 68.4669 64.5814 68.4669L61.2349 66.2327L72.8058 44.3022L73.4565 44.4141Z" fill="#C83027"/>
<path fill-rule="evenodd" clip-rule="evenodd" d="M78.8924 54.6708C79.1087 54.9336 79.1093 55.3739 78.8432 55.593C78.5771 55.812 78.1451 55.7268 77.9288 55.464C77.6301 55.1011 77.6411 54.3781 77.6534 54.1475C77.8533 54.2801 78.0633 54.3259 78.2611 54.369C78.5037 54.422 78.7279 54.4709 78.8924 54.6708ZM72.3125 59.2146C72.1538 59.5158 71.748 59.6867 71.4431 59.526C71.1382 59.3653 71.0497 58.9339 71.2083 58.6328C71.4274 58.217 72.0985 57.9476 72.3158 57.8697C72.2709 58.1053 72.3099 58.3167 72.3466 58.5158C72.3916 58.7599 72.4332 58.9856 72.3125 59.2146ZM78.3235 62.1206C78.557 62.3683 78.5872 62.8077 78.3364 63.0441C78.0856 63.2805 77.6488 63.2245 77.4153 62.9768C77.0929 62.6348 77.0554 61.9127 77.0522 61.6818C77.2605 61.8006 77.4731 61.8322 77.6734 61.862C77.919 61.8985 78.1459 61.9323 78.3235 62.1206ZM72.7657 65.9468C73.0749 66.099 73.4759 65.9171 73.6263 65.6117C73.7407 65.3795 73.6929 65.155 73.6412 64.9122C73.5991 64.7142 73.5543 64.5039 73.5928 64.2672C73.3776 64.351 72.7142 64.6387 72.5066 65.0603C72.3562 65.3657 72.4565 65.7945 72.7657 65.9468ZM85.3947 65.2133C85.735 65.1591 85.9574 64.779 85.9039 64.4429C85.8632 64.1872 85.6947 64.0315 85.5123 63.8631C85.3636 63.7257 85.2056 63.5799 85.1004 63.3644C84.9731 63.557 84.5975 64.1749 84.6714 64.6391C84.7249 64.9752 85.0543 65.2675 85.3947 65.2133Z" fill="#513B3B"/>
<path opacity="0.6" d="M76.9999 49L79.927 53.7566M80.9999 55.5L80.7721 55.1298" stroke="white" stroke-linecap="round"/>
<path d="M25.2455 61.581C26.1439 66.9757 31.0229 70.766 35.4226 71.8117C41.1564 73.1744 46.7098 72.1287 48.2875 71.5522L52.7594 69.5584L44.4917 44.3202L41.556 44.3236C36.9399 48.9223 27.4703 59.2502 25.2455 61.581Z" fill="#588A24"/>
<path fill-rule="evenodd" clip-rule="evenodd" d="M52.4764 68.6959L44.4911 44.3197L41.5558 44.3236C38.279 47.588 32.5565 53.7394 28.7159 57.8679C27.4045 59.2776 26.3125 60.4515 25.6122 61.194C26.8486 66.6861 31.5795 70.0966 36.2538 71.1502C40.6436 72.1397 42.5184 71.815 46.5953 71.1087C47.1438 71.0137 47.7322 70.9118 48.3719 70.8052L52.4764 68.6959Z" fill="#FBECCF"/>
<path opacity="0.4" fill-rule="evenodd" clip-rule="evenodd" d="M37.1571 70.5831C32.7574 69.5375 27.8784 65.7472 26.98 60.3525C27.6255 59.6763 28.8807 58.3269 30.4504 56.6396C33.8511 52.984 38.7275 47.7422 42.0748 44.3231L41.5562 44.3237C38.2793 47.5881 32.5567 53.7396 28.7161 57.8681C27.1464 59.5554 25.8911 60.9048 25.2456 61.581C26.144 66.9757 31.0231 70.766 35.4227 71.8117C41.1566 73.1744 46.7099 72.1288 48.2877 71.5522L50.0435 70.7694C47.6751 71.2939 42.1633 71.773 37.1571 70.5831Z" fill="#4A7A17"/>
<path d="M52.2104 67.8834L44.4913 44.3197L41.5558 44.3235C37.4501 48.4137 26.0047 60.8837 26.0047 60.8837C27.1579 64.0391 29.7342 68.6443 35.5922 70.3188C41.4503 71.9934 48.5359 69.5232 48.5359 69.5232L52.2104 67.8834Z" fill="#FF5147"/>
<path d="M41.556 44.3236L44.4914 44.3198L52.2106 67.8835L48.5361 69.5233C48.5361 69.5233 48.51 69.5297 48.46 69.5416L41.556 44.3236Z" fill="#FF665E"/>
<path opacity="0.6" d="M44.5 48L46.1768 52.6949M47 55L46.8214 54.5" stroke="white" stroke-linecap="round"/>
<path opacity="0.4" fill-rule="evenodd" clip-rule="evenodd" d="M37.8454 70.7673C37.086 70.6746 36.3295 70.5296 35.5925 70.3189C29.7344 68.6443 27.1581 64.0392 26.005 60.8837C26.005 60.8837 37.4503 48.4138 41.5561 44.3236L41.9884 44.323C41.8839 44.3826 41.8027 44.4474 41.7511 44.5176C37.7786 49.9367 27.4859 61.1363 27.4859 61.1363C28.6391 64.2918 31.2154 68.8969 37.0734 70.5715C37.3286 70.6444 37.5862 70.7095 37.8454 70.7673Z" fill="#C83027"/>
<path fill-rule="evenodd" clip-rule="evenodd" d="M36.7478 53.5171C36.4904 53.7398 36.4157 54.1738 36.6412 54.4345C36.8667 54.6952 37.3069 54.6838 37.5644 54.4611C37.9198 54.1536 38.0305 53.439 38.0571 53.2097C37.8378 53.3067 37.6231 53.3166 37.4208 53.3259C37.1728 53.3372 36.9436 53.3478 36.7478 53.5171ZM42.4701 59.1026C42.5759 59.4262 42.9472 59.6629 43.2748 59.5557C43.6024 59.4486 43.7621 59.0383 43.6564 58.7147C43.5103 58.268 42.8941 57.8896 42.6929 57.7763C42.6976 58.0161 42.6236 58.2179 42.554 58.408C42.4686 58.6411 42.3896 58.8566 42.4701 59.1026ZM36.0562 60.9566C35.7844 61.1615 35.6807 61.5895 35.8882 61.8647C36.0957 62.1399 36.5357 62.1582 36.8075 61.9533C37.1828 61.6703 37.3412 60.9648 37.3832 60.7378C37.1578 60.8199 36.9429 60.8153 36.7405 60.811C36.4923 60.8057 36.2629 60.8008 36.0562 60.9566ZM40.8916 65.6627C40.5612 65.7608 40.1965 65.5141 40.0996 65.1877C40.0259 64.9396 40.1107 64.7264 40.2025 64.4957C40.2773 64.3076 40.3568 64.1078 40.3587 63.868C40.5567 63.9868 41.1623 64.3819 41.296 64.8325C41.3929 65.1588 41.222 65.5646 40.8916 65.6627ZM28.5655 62.8164C28.2391 62.7057 28.0838 62.2937 28.193 61.9713C28.2761 61.7261 28.4685 61.601 28.6766 61.4656C28.8463 61.3552 29.0265 61.238 29.1665 61.0433C29.2596 61.2545 29.5259 61.9268 29.3751 62.3719C29.2658 62.6943 28.892 62.927 28.5655 62.8164Z" fill="#513B3B"/>
<path opacity="0.2" d="M35.4233 71.8116C31.0236 70.7659 26.1446 66.9756 25.2462 61.5809C25.8917 60.9047 27.147 59.5553 28.7166 57.868C31.0824 55.325 34.1623 52.0143 36.9447 49.0836L47.6082 69.2941L43.5352 72.0112C43.315 72.1371 43.0072 72.2888 42.6232 72.4542C40.4804 72.547 37.9697 72.4168 35.4233 71.8116Z" fill="#541916"/>
<path d="M17.6417 66.0562C19.4343 71.223 24.8811 74.1391 29.394 74.4301C35.2753 74.8094 40.5738 72.845 42.0321 72.0114L46.1052 69.2942L33.7119 45.8053L30.8186 46.3022C27.0413 51.6115 19.4429 63.3845 17.6417 66.0562Z" fill="#588A24"/>
<path fill-rule="evenodd" clip-rule="evenodd" d="M45.6812 68.4914L33.7113 45.8048L30.8184 46.3022C28.1371 50.0711 23.5303 57.097 20.4384 61.8125C19.3827 63.4226 18.5036 64.7634 17.9381 65.613C20.0803 70.8191 25.3173 73.3855 30.1022 73.6383C34.5958 73.8757 36.3894 73.2403 40.2895 71.8587C40.8142 71.6728 41.377 71.4734 41.9897 71.2609L45.6812 68.4914Z" fill="#FBECCF"/>
<path opacity="0.4" fill-rule="evenodd" clip-rule="evenodd" d="M30.8973 72.9276C26.3844 72.6365 20.9376 69.7205 19.145 64.5536C19.6676 63.7785 20.6782 62.2372 21.9418 60.31C24.6795 56.1347 28.6051 50.1477 31.33 46.2144L30.8189 46.3022C28.1375 50.0711 23.5306 57.0972 20.4388 61.8126C19.1751 63.7398 18.1646 65.281 17.642 66.0562C19.4346 71.223 24.8814 74.1391 29.3943 74.4301C35.2756 74.8095 40.5741 72.845 42.0324 72.0114L43.6317 70.9445C41.3852 71.8597 36.0323 73.2587 30.8973 72.9276Z" fill="#4A7A17"/>
<path d="M45.2825 67.7353L33.7116 45.8048L30.8185 46.3021C27.4589 51.0244 18.273 65.2411 18.273 65.2411C19.9403 68.1578 23.2542 72.2642 29.3104 72.93C35.3665 73.5958 41.936 69.9695 41.936 69.9695L45.2825 67.7353Z" fill="#FF5147"/>
<path d="M30.8185 46.3023L33.7115 45.805L45.2825 67.7354L41.936 69.9697C41.936 69.9697 41.9113 69.9804 41.8641 70.0005L30.8185 46.3023Z" fill="#FF665E"/>
<path opacity="0.6" d="M36 52L37.3043 54.2826M38 55.5L37.8417 55.2229" stroke="white" stroke-linecap="round"/>
<path opacity="0.4" fill-rule="evenodd" clip-rule="evenodd" d="M31.6065 72.9933C30.8424 73.0296 30.0724 73.0138 29.3104 72.93C23.2543 72.2642 19.9404 68.1578 18.2731 65.2411C18.2731 65.2411 27.459 51.0244 30.8186 46.3021L31.245 46.2289C31.152 46.3052 31.0827 46.3827 31.0437 46.4607C28.0388 52.4705 19.7756 65.2411 19.7756 65.2411C21.4429 68.1578 24.7568 72.2643 30.813 72.9301C31.0767 72.9591 31.3414 72.9799 31.6065 72.9933Z" fill="#C83027"/>
<path fill-rule="evenodd" clip-rule="evenodd" d="M27.6246 56.1732C27.4083 56.436 27.4076 56.8764 27.6737 57.0954C27.9398 57.3144 28.3719 57.2292 28.5882 56.9664C28.8869 56.6035 28.8758 55.8805 28.8635 55.6499C28.6637 55.7825 28.4537 55.8283 28.2558 55.8715C28.0133 55.9244 27.7891 55.9733 27.6246 56.1732ZM34.2044 60.717C34.3631 61.0182 34.769 61.1891 35.0739 61.0284C35.3788 60.8677 35.4673 60.4363 35.3086 60.1352C35.0895 59.7194 34.4185 59.45 34.2012 59.3721C34.2461 59.6077 34.2071 59.8191 34.1704 60.0182C34.1254 60.2624 34.0838 60.488 34.2044 60.717ZM28.1935 63.623C27.96 63.8707 27.9298 64.3101 28.1806 64.5465C28.4313 64.7829 28.8681 64.7269 29.1016 64.4792C29.424 64.1372 29.4615 63.4151 29.4648 63.1842C29.2565 63.303 29.0438 63.3346 28.8436 63.3644C28.598 63.4009 28.371 63.4347 28.1935 63.623ZM33.7513 67.4492C33.4421 67.6014 33.041 67.4195 32.8907 67.1141C32.7763 66.8819 32.8241 66.6574 32.8758 66.4146C32.9179 66.2166 32.9627 66.0063 32.9242 65.7696C33.1394 65.8534 33.8027 66.1411 34.0104 66.5627C34.1607 66.8681 34.0605 67.2969 33.7513 67.4492ZM21.1223 66.7157C20.7819 66.6615 20.5595 66.2814 20.613 65.9453C20.6537 65.6896 20.8223 65.5339 21.0047 65.3655C21.1534 65.2281 21.3113 65.0823 21.4166 64.8668C21.5439 65.0594 21.9195 65.6773 21.8456 66.1415C21.7921 66.4776 21.4627 66.7699 21.1223 66.7157Z" fill="#513B3B"/>
<path opacity="0.2" d="M33.6735 74.1979C29.5842 73.3732 25.22 70.5758 23.652 66.0561C24.1745 65.281 20.7655 59.6561 22.0291 57.7289C23.0504 56.1714 25.3086 54.3314 26.5365 52.4703L38.5217 70.6871L34.6308 73.6593C34.405 73.8083 34.0817 73.993 33.6735 74.1979Z" fill="#541916"/>
<path d="M8.40652 69.2766C10.526 74.3182 16.1483 76.8798 20.6705 76.8815C26.5641 76.8838 31.726 74.5844 33.128 73.6592L37.0189 70.687L23.1482 48.039L20.2926 48.7201C16.8628 54.2602 10.0332 66.4951 8.40652 69.2766Z" fill="#588A24"/>
<path fill-rule="evenodd" clip-rule="evenodd" d="M36.5449 69.913L23.148 48.0386L20.2928 48.7201C17.8581 52.6528 13.7102 59.9591 10.9264 64.8626C9.97592 66.5369 9.18442 67.9311 8.67446 68.8152C11.1453 73.8737 16.5358 76.0999 21.3271 76.046C25.8268 75.9954 27.576 75.2466 31.3797 73.6183C31.8914 73.3992 32.4404 73.1642 33.0382 72.9129L36.5449 69.913Z" fill="#FBECCF"/>
<path opacity="0.4" fill-rule="evenodd" clip-rule="evenodd" d="M22.0749 75.2857C17.5527 75.284 11.9304 72.7224 9.81093 67.6808C10.2829 66.8738 11.1928 65.2711 12.3305 63.267C14.7955 58.925 18.33 52.6992 20.7977 48.5997L20.2933 48.72C17.8585 52.6527 13.7106 59.9591 10.9268 64.8627C9.78902 66.8668 8.87913 68.4695 8.40719 69.2765C10.5267 74.3181 16.1489 76.8797 20.6712 76.8814C26.5647 76.8837 31.7267 74.5843 33.1287 73.659L34.6565 72.492C32.4733 73.549 27.2208 75.2877 22.0749 75.2857Z" fill="#4A7A17"/>
<path d="M36.0982 69.1838L23.1479 48.0386L20.2926 48.7199C17.242 53.6474 8.98447 68.4227 8.98447 68.4227C10.8349 71.2267 14.4047 75.1128 20.4911 75.3898C26.5775 75.6667 32.9015 71.6276 32.9015 71.6276L36.0982 69.1838Z" fill="#FF5147"/>
<path d="M20.2928 48.7201L23.148 48.0387L36.0984 69.1839L32.9017 71.6277C32.9017 71.6277 32.8778 71.64 32.8319 71.6631L20.2928 48.7201Z" fill="#FF665E"/>
<path opacity="0.8" d="M23 50L25.4375 53.5625M26.1875 54.8125L26 54.5" stroke="white" stroke-linecap="round"/>
<path opacity="0.4" fill-rule="evenodd" clip-rule="evenodd" d="M22.7869 75.306C22.0266 75.3912 21.2571 75.4246 20.4913 75.3898C14.405 75.1128 10.8351 71.2268 8.9847 68.4227C8.9847 68.4227 17.2422 53.6475 20.2928 48.72L20.7135 48.6196C20.6256 48.7017 20.5614 48.7835 20.5275 48.8637C17.9133 55.0535 10.4841 68.3266 10.4841 68.3266C12.3345 71.1307 15.9043 75.0167 21.9907 75.2937C22.2558 75.3058 22.5214 75.3096 22.7869 75.306Z" fill="#C83027"/>
<path fill-rule="evenodd" clip-rule="evenodd" d="M17.7368 58.7752C17.5377 59.0513 17.5653 59.4908 17.8449 59.6924C18.1244 59.894 18.5501 59.7813 18.7492 59.5051C19.0241 59.1239 18.9668 58.4031 18.9397 58.1738C18.7488 58.3188 18.5421 58.378 18.3475 58.4337C18.1088 58.5021 17.8882 58.5652 17.7368 58.7752ZM24.5938 62.8888C24.7715 63.1792 25.1874 63.3238 25.4814 63.1439C25.7754 62.9641 25.8362 62.5279 25.6585 62.2376C25.4133 61.8366 24.7264 61.6107 24.5045 61.5469C24.5644 61.7791 24.539 61.9926 24.5151 62.1936C24.4858 62.4401 24.4587 62.668 24.5938 62.8888ZM18.7811 66.1734C18.564 66.4355 18.5619 66.8759 18.8273 67.0958C19.0927 67.3157 19.525 67.2318 19.7422 66.9697C20.0421 66.6078 20.0333 65.8848 20.0218 65.6542C19.8215 65.7861 19.6113 65.8312 19.4134 65.8737C19.1706 65.9259 18.9463 65.9741 18.7811 66.1734ZM24.5723 69.6362C24.2735 69.8079 23.8616 69.652 23.692 69.3568C23.5631 69.1324 23.5964 68.9054 23.6324 68.6597C23.6618 68.4594 23.693 68.2467 23.6395 68.013C23.8596 68.0828 24.54 68.3275 24.7742 68.735C24.9438 69.0301 24.8711 69.4644 24.5723 69.6362ZM11.9222 69.7121C11.5791 69.6799 11.3328 69.3148 11.3647 68.9759C11.3889 68.7182 11.5472 68.552 11.7184 68.3722C11.8581 68.2256 12.0064 68.07 12.0976 67.8482C12.237 68.0323 12.6513 68.6249 12.6073 69.0928C12.5754 69.4317 12.2654 69.7444 11.9222 69.7121Z" fill="#513B3B"/>
</svg>
